<?xml version="1.0" encoding="UTF-8" standalone="no"?>
<!-- Created with Inkscape (http://www.inkscape.org/) -->

<svg
   xmlns:dc="http://purl.org/dc/elements/1.1/"
   xmlns:cc="http://creativecommons.org/ns#"
   xmlns:rdf="http://www.w3.org/1999/02/22-rdf-syntax-ns#"
   xmlns:svg="http://www.w3.org/2000/svg"
   xmlns="http://www.w3.org/2000/svg"
   xmlns:sodipodi="http://sodipodi.sourceforge.net/DTD/sodipodi-0.dtd"
   xmlns:inkscape="http://www.inkscape.org/namespaces/inkscape"
   id="svg2"
   version="1.1"
   inkscape:version="0.91 r13725"
   width="210mm"
   height="297mm"
   xml:space="preserve"
   sodipodi:docname="chessboard-pattern_8x6.svg"><metadata
     id="metadata8"><rdf:RDF><cc:Work
         rdf:about=""><dc:format>image/svg+xml</dc:format><dc:type
           rdf:resource="http://purl.org/dc/dcmitype/StillImage" /><dc:title /></cc:Work></rdf:RDF></metadata><defs
     id="defs6"><clipPath
       clipPathUnits="userSpaceOnUse"
       id="clipPath100"><path
         d="m 0,297.638 470.551,0 L 470.551,0 0,0 0,297.638 Z"
         id="path102"
         inkscape:connector-curvature="0" /></clipPath></defs><sodipodi:namedview
     pagecolor="#ffffff"
     bordercolor="#666666"
     borderopacity="1"
     objecttolerance="10"
     gridtolerance="10"
     guidetolerance="10"
     inkscape:pageopacity="0"
     inkscape:pageshadow="2"
     inkscape:window-width="1280"
     inkscape:window-height="720"
     id="namedview4"
     showgrid="false"
     inkscape:zoom="1.2686553"
     inkscape:cx="408.62934"
     inkscape:cy="835.36174"
     inkscape:window-x="0"
     inkscape:window-y="1"
     inkscape:window-maximized="1"
     inkscape:current-layer="g10"
     inkscape:document-units="mm"
     units="mm" /><g
     id="g10"
     inkscape:groupmode="layer"
     inkscape:label="Escaner 3D_pegatina ajedrezado_MASTER"
     transform="matrix(1.25,0,0,-1.25,0,1052.3622)"><g
       id="g4171"
       transform="translate(0.63058895,37.204748)"><path
         inkscape:connector-curvature="0"
         id="path14"
         style="fill:#292827;fill-opacity:1;fill-rule:nonzero;stroke:none"
         d="m 214.22977,552.97294 -28.34615,0 0,-28.34614 28.34615,0 0,28.34614 z" /><path
         inkscape:connector-curvature="0"
         id="path16"
         style="fill:#292827;fill-opacity:1;fill-rule:nonzero;stroke:none"
         d="m 270.92282,552.97294 -28.34614,0 0,-28.34614 28.34614,0 0,28.34614 z" /><path
         inkscape:connector-curvature="0"
         id="path18"
         style="fill:#292827;fill-opacity:1;fill-rule:nonzero;stroke:none"
         d="m 327.6159,552.97294 -28.34615,0 0,-28.34614 28.34615,0 0,28.34614 z" /><path
         inkscape:connector-curvature="0"
         id="path20"
         style="fill:#292827;fill-opacity:1;fill-rule:nonzero;stroke:none"
         d="m 384.30896,552.97294 -28.34615,0 0,-28.34614 28.34615,0 0,28.34614 z" /><path
         inkscape:connector-curvature="0"
         id="path22"
         style="fill:#292827;fill-opacity:1;fill-rule:nonzero;stroke:none"
         d="m 441.00204,552.97294 -28.34616,0 0,-28.34614 28.34616,0 0,28.34614 z" /><path
         inkscape:connector-curvature="0"
         id="path24"
         style="fill:#292827;fill-opacity:1;fill-rule:nonzero;stroke:none"
         d="m 185.88362,581.31987 -28.34615,0 0,-28.34615 28.34615,0 0,28.34615 z" /><path
         inkscape:connector-curvature="0"
         id="path26"
         style="fill:#292827;fill-opacity:1;fill-rule:nonzero;stroke:none"
         d="m 242.57668,581.31987 -28.34613,0 0,-28.34615 28.34613,0 0,28.34615 z" /><path
         inkscape:connector-curvature="0"
         id="path28"
         style="fill:#292827;fill-opacity:1;fill-rule:nonzero;stroke:none"
         d="m 299.26975,581.31987 -28.34616,0 0,-28.34615 28.34616,0 0,28.34615 z" /><path
         inkscape:connector-curvature="0"
         id="path30"
         style="fill:#292827;fill-opacity:1;fill-rule:nonzero;stroke:none"
         d="m 355.96204,581.31987 -28.34614,0 0,-28.34615 28.34614,0 0,28.34615 z" /><path
         inkscape:connector-curvature="0"
         id="path32"
         style="fill:#292827;fill-opacity:1;fill-rule:nonzero;stroke:none"
         d="m 412.6551,581.31987 -28.34614,0 0,-28.34615 28.34614,0 0,28.34615 z" /><path
         inkscape:connector-curvature="0"
         id="path38"
         style="fill:#292827;fill-opacity:1;fill-rule:nonzero;stroke:none"
         d="m 214.22977,609.666 -28.34615,0 0,-28.34613 28.34615,0 0,28.34613 z" /><path
         inkscape:connector-curvature="0"
         id="path40"
         style="fill:#292827;fill-opacity:1;fill-rule:nonzero;stroke:none"
         d="m 270.92282,609.666 -28.34614,0 0,-28.34613 28.34614,0 0,28.34613 z" /><path
         inkscape:connector-curvature="0"
         id="path42"
         style="fill:#292827;fill-opacity:1;fill-rule:nonzero;stroke:none"
         d="m 327.6159,609.666 -28.34615,0 0,-28.34613 28.34615,0 0,28.34613 z" /><path
         inkscape:connector-curvature="0"
         id="path44"
         style="fill:#292827;fill-opacity:1;fill-rule:nonzero;stroke:none"
         d="m 384.30896,609.666 -28.34615,0 0,-28.34613 28.34615,0 0,28.34613 z" /><path
         inkscape:connector-curvature="0"
         id="path46"
         style="fill:#292827;fill-opacity:1;fill-rule:nonzero;stroke:none"
         d="m 441.00204,609.666 -28.34616,0 0,-28.34613 28.34616,0 0,28.34613 z" /><path
         inkscape:connector-curvature="0"
         id="path48"
         style="fill:#292827;fill-opacity:1;fill-rule:nonzero;stroke:none"
         d="m 185.88362,638.01215 -28.34615,0 0,-28.34615 28.34615,0 0,28.34615 z" /><path
         inkscape:connector-curvature="0"
         id="path50"
         style="fill:#292827;fill-opacity:1;fill-rule:nonzero;stroke:none"
         d="m 242.57668,638.01215 -28.34613,0 0,-28.34615 28.34613,0 0,28.34615 z" /><path
         inkscape:connector-curvature="0"
         id="path52"
         style="fill:#292827;fill-opacity:1;fill-rule:nonzero;stroke:none"
         d="m 299.26975,638.01215 -28.34616,0 0,-28.34615 28.34616,0 0,28.34615 z" /><path
         inkscape:connector-curvature="0"
         id="path54"
         style="fill:#292827;fill-opacity:1;fill-rule:nonzero;stroke:none"
         d="m 355.96204,638.01215 -28.34614,0 0,-28.34615 28.34614,0 0,28.34615 z" /><path
         inkscape:connector-curvature="0"
         id="path56"
         style="fill:#292827;fill-opacity:1;fill-rule:nonzero;stroke:none"
         d="m 412.6551,638.01215 -28.34614,0 0,-28.34615 28.34614,0 0,28.34615 z" /><path
         inkscape:connector-curvature="0"
         id="path62"
         style="fill:#292827;fill-opacity:1;fill-rule:nonzero;stroke:none"
         d="m 214.22977,666.35907 -28.34615,0 0,-28.34614 28.34615,0 0,28.34614 z" /><path
         inkscape:connector-curvature="0"
         id="path64"
         style="fill:#292827;fill-opacity:1;fill-rule:nonzero;stroke:none"
         d="m 270.92282,666.35907 -28.34614,0 0,-28.34614 28.34614,0 0,28.34614 z" /><path
         inkscape:connector-curvature="0"
         id="path66"
         style="fill:#292827;fill-opacity:1;fill-rule:nonzero;stroke:none"
         d="m 327.6159,666.35907 -28.34615,0 0,-28.34614 28.34615,0 0,28.34614 z" /><path
         inkscape:connector-curvature="0"
         id="path68"
         style="fill:#292827;fill-opacity:1;fill-rule:nonzero;stroke:none"
         d="m 384.30896,666.35907 -28.34615,0 0,-28.34614 28.34615,0 0,28.34614 z" /><path
         inkscape:connector-curvature="0"
         id="path70"
         style="fill:#292827;fill-opacity:1;fill-rule:nonzero;stroke:none"
         d="m 441.00204,666.35907 -28.34616,0 0,-28.34614 28.34616,0 0,28.34614 z" /><path
         inkscape:connector-curvature="0"
         id="path72"
         style="fill:#292827;fill-opacity:1;fill-rule:nonzero;stroke:none"
         d="m 185.88362,694.70522 -28.34615,0 0,-28.34615 28.34615,0 0,28.34615 z" /><path
         inkscape:connector-curvature="0"
         id="path74"
         style="fill:#292827;fill-opacity:1;fill-rule:nonzero;stroke:none"
         d="m 242.57668,694.70522 -28.34613,0 0,-28.34615 28.34613,0 0,28.34615 z" /><path
         inkscape:connector-curvature="0"
         id="path76"
         style="fill:#292827;fill-opacity:1;fill-rule:nonzero;stroke:none"
         d="m 299.26975,694.70522 -28.34616,0 0,-28.34615 28.34616,0 0,28.34615 z" /><path
         inkscape:connector-curvature="0"
         id="path78"
         style="fill:#292827;fill-opacity:1;fill-rule:nonzero;stroke:none"
         d="m 355.96204,694.70522 -28.34614,0 0,-28.34615 28.34614,0 0,28.34615 z" /><path
         inkscape:connector-curvature="0"
         id="path80"
         style="fill:#292827;fill-opacity:1;fill-rule:nonzero;stroke:none"
         d="m 412.6551,694.70522 -28.34614,0 0,-28.34615 28.34614,0 0,28.34615 z" /><path
         inkscape:connector-curvature="0"
         id="path86"
         style="fill:#292827;fill-opacity:1;fill-rule:nonzero;stroke:none"
         d="m 214.22977,723.05136 -28.34615,0 0,-28.34614 28.34615,0 0,28.34614 z" /><path
         inkscape:connector-curvature="0"
         id="path88"
         style="fill:#292827;fill-opacity:1;fill-rule:nonzero;stroke:none"
         d="m 270.92282,723.05136 -28.34614,0 0,-28.34614 28.34614,0 0,28.34614 z" /><path
         inkscape:connector-curvature="0"
         id="path90"
         style="fill:#292827;fill-opacity:1;fill-rule:nonzero;stroke:none"
         d="m 327.6159,723.05136 -28.34615,0 0,-28.34614 28.34615,0 0,28.34614 z" /><path
         inkscape:connector-curvature="0"
         id="path92"
         style="fill:#292827;fill-opacity:1;fill-rule:nonzero;stroke:none"
         d="m 384.30896,723.05136 -28.34615,0 0,-28.34614 28.34615,0 0,28.34614 z" /><path
         inkscape:connector-curvature="0"
         id="path94"
         style="fill:#292827;fill-opacity:1;fill-rule:nonzero;stroke:none"
         d="m 441.00204,723.05136 -28.34616,0 0,-28.34614 28.34616,0 0,28.34614 z" /></g><rect
       style="fill:none;stroke:#000000;stroke-width:0.79184937;stroke-opacity:1"
       id="rect3381"
       width="381.88535"
       height="334.05066"
       x="118.4268"
       y="467.27704" /></g></svg>