  0
SECTION
  2
BLOCKS
  0
ENDSEC
  0
SECTION
  2
ENTITIES
  0
LINE
  8
0
 10
-3.6
 11
-3.591
 20
-15.6
 21
-15.462
  0
LINE
  8
0
 10
-3.591
 11
-3.565
 20
-15.462
 21
-15.326
  0
LINE
  8
0
 10
-3.565
 11
-3.523
 20
-15.326
 21
-15.195
  0
LINE
  8
0
 10
-3.523
 11
-3.464
 20
-15.195
 21
-15.07
  0
LINE
  8
0
 10
-3.464
 11
-3.39
 20
-15.07
 21
-14.953
  0
LINE
  8
0
 10
-3.39
 11
-3.302
 20
-14.953
 21
-14.847
  0
LINE
  8
0
 10
-3.302
 11
-3.201
 20
-14.847
 21
-14.752
  0
LINE
  8
0
 10
-3.201
 11
-3.089
 20
-14.752
 21
-14.671
  0
LINE
  8
0
 10
-3.089
 11
-2.968
 20
-14.671
 21
-14.605
  0
LINE
  8
0
 10
-2.968
 11
-2.84
 20
-14.605
 21
-14.554
  0
LINE
  8
0
 10
-2.84
 11
-2.706
 20
-14.554
 21
-14.519
  0
LINE
  8
0
 10
-2.706
 11
-2.569
 20
-14.519
 21
-14.502
  0
LINE
  8
0
 10
-2.569
 11
-2.431
 20
-14.502
 21
-14.502
  0
LINE
  8
0
 10
-2.431
 11
-2.294
 20
-14.502
 21
-14.519
  0
LINE
  8
0
 10
-2.294
 11
-2.16
 20
-14.519
 21
-14.554
  0
LINE
  8
0
 10
-2.16
 11
-2.032
 20
-14.554
 21
-14.605
  0
LINE
  8
0
 10
-2.032
 11
-1.911
 20
-14.605
 21
-14.671
  0
LINE
  8
0
 10
-1.911
 11
-1.799
 20
-14.671
 21
-14.752
  0
LINE
  8
0
 10
-1.799
 11
-1.698
 20
-14.752
 21
-14.847
  0
LINE
  8
0
 10
-1.698
 11
-1.61
 20
-14.847
 21
-14.953
  0
LINE
  8
0
 10
-1.61
 11
-1.536
 20
-14.953
 21
-15.07
  0
LINE
  8
0
 10
-1.536
 11
-1.477
 20
-15.07
 21
-15.195
  0
LINE
  8
0
 10
-1.477
 11
-1.435
 20
-15.195
 21
-15.326
  0
LINE
  8
0
 10
-1.435
 11
-1.409
 20
-15.326
 21
-15.462
  0
LINE
  8
0
 10
-1.409
 11
-1.4
 20
-15.462
 21
-15.6
  0
LINE
  8
0
 10
-1.4
 11
-1.409
 20
-15.6
 21
-15.738
  0
LINE
  8
0
 10
-1.409
 11
-1.435
 20
-15.738
 21
-15.874
  0
LINE
  8
0
 10
-1.435
 11
-1.477
 20
-15.874
 21
-16.005
  0
LINE
  8
0
 10
-1.477
 11
-1.536
 20
-16.005
 21
-16.13
  0
LINE
  8
0
 10
-1.536
 11
-1.61
 20
-16.13
 21
-16.247
  0
LINE
  8
0
 10
-1.61
 11
-1.698
 20
-16.247
 21
-16.353
  0
LINE
  8
0
 10
-1.698
 11
-1.799
 20
-16.353
 21
-16.448
  0
LINE
  8
0
 10
-1.799
 11
-1.911
 20
-16.448
 21
-16.529
  0
LINE
  8
0
 10
-1.911
 11
-2.032
 20
-16.529
 21
-16.595
  0
LINE
  8
0
 10
-2.032
 11
-2.16
 20
-16.595
 21
-16.646
  0
LINE
  8
0
 10
-2.16
 11
-2.294
 20
-16.646
 21
-16.681
  0
LINE
  8
0
 10
-2.294
 11
-2.431
 20
-16.681
 21
-16.698
  0
LINE
  8
0
 10
-2.431
 11
-2.569
 20
-16.698
 21
-16.698
  0
LINE
  8
0
 10
-2.569
 11
-2.706
 20
-16.698
 21
-16.681
  0
LINE
  8
0
 10
-2.706
 11
-2.84
 20
-16.681
 21
-16.646
  0
LINE
  8
0
 10
-2.84
 11
-2.968
 20
-16.646
 21
-16.595
  0
LINE
  8
0
 10
-2.968
 11
-3.089
 20
-16.595
 21
-16.529
  0
LINE
  8
0
 10
-3.089
 11
-3.201
 20
-16.529
 21
-16.448
  0
LINE
  8
0
 10
-3.201
 11
-3.302
 20
-16.448
 21
-16.353
  0
LINE
  8
0
 10
-3.302
 11
-3.39
 20
-16.353
 21
-16.247
  0
LINE
  8
0
 10
-3.39
 11
-3.464
 20
-16.247
 21
-16.13
  0
LINE
  8
0
 10
-3.464
 11
-3.523
 20
-16.13
 21
-16.005
  0
LINE
  8
0
 10
-3.523
 11
-3.565
 20
-16.005
 21
-15.874
  0
LINE
  8
0
 10
-3.565
 11
-3.591
 20
-15.874
 21
-15.738
  0
LINE
  8
0
 10
-3.591
 11
-3.6
 20
-15.738
 21
-15.6
  0
LINE
  8
0
 10
-3.6
 11
-3.591
 20
17.6
 21
17.738
  0
LINE
  8
0
 10
-3.591
 11
-3.565
 20
17.738
 21
17.874
  0
LINE
  8
0
 10
-3.565
 11
-3.523
 20
17.874
 21
18.005
  0
LINE
  8
0
 10
-3.523
 11
-3.464
 20
18.005
 21
18.13
  0
LINE
  8
0
 10
-3.464
 11
-3.39
 20
18.13
 21
18.247
  0
LINE
  8
0
 10
-3.39
 11
-3.302
 20
18.247
 21
18.353
  0
LINE
  8
0
 10
-3.302
 11
-3.201
 20
18.353
 21
18.448
  0
LINE
  8
0
 10
-3.201
 11
-3.089
 20
18.448
 21
18.529
  0
LINE
  8
0
 10
-3.089
 11
-2.968
 20
18.529
 21
18.595
  0
LINE
  8
0
 10
-2.968
 11
-2.84
 20
18.595
 21
18.646
  0
LINE
  8
0
 10
-2.84
 11
-2.706
 20
18.646
 21
18.681
  0
LINE
  8
0
 10
-2.706
 11
-2.569
 20
18.681
 21
18.698
  0
LINE
  8
0
 10
-2.569
 11
-2.431
 20
18.698
 21
18.698
  0
LINE
  8
0
 10
-2.431
 11
-2.294
 20
18.698
 21
18.681
  0
LINE
  8
0
 10
-2.294
 11
-2.16
 20
18.681
 21
18.646
  0
LINE
  8
0
 10
-2.16
 11
-2.032
 20
18.646
 21
18.595
  0
LINE
  8
0
 10
-2.032
 11
-1.911
 20
18.595
 21
18.529
  0
LINE
  8
0
 10
-1.911
 11
-1.799
 20
18.529
 21
18.448
  0
LINE
  8
0
 10
-1.799
 11
-1.698
 20
18.448
 21
18.353
  0
LINE
  8
0
 10
-1.698
 11
-1.61
 20
18.353
 21
18.247
  0
LINE
  8
0
 10
-1.61
 11
-1.536
 20
18.247
 21
18.13
  0
LINE
  8
0
 10
-1.536
 11
-1.477
 20
18.13
 21
18.005
  0
LINE
  8
0
 10
-1.477
 11
-1.435
 20
18.005
 21
17.874
  0
LINE
  8
0
 10
-1.435
 11
-1.409
 20
17.874
 21
17.738
  0
LINE
  8
0
 10
-1.409
 11
-1.4
 20
17.738
 21
17.6
  0
LINE
  8
0
 10
-1.4
 11
-1.409
 20
17.6
 21
17.462
  0
LINE
  8
0
 10
-1.409
 11
-1.435
 20
17.462
 21
17.326
  0
LINE
  8
0
 10
-1.435
 11
-1.477
 20
17.326
 21
17.195
  0
LINE
  8
0
 10
-1.477
 11
-1.536
 20
17.195
 21
17.07
  0
LINE
  8
0
 10
-1.536
 11
-1.61
 20
17.07
 21
16.953
  0
LINE
  8
0
 10
-1.61
 11
-1.698
 20
16.953
 21
16.847
  0
LINE
  8
0
 10
-1.698
 11
-1.799
 20
16.847
 21
16.752
  0
LINE
  8
0
 10
-1.799
 11
-1.911
 20
16.752
 21
16.671
  0
LINE
  8
0
 10
-1.911
 11
-2.032
 20
16.671
 21
16.605
  0
LINE
  8
0
 10
-2.032
 11
-2.16
 20
16.605
 21
16.554
  0
LINE
  8
0
 10
-2.16
 11
-2.294
 20
16.554
 21
16.519
  0
LINE
  8
0
 10
-2.294
 11
-2.431
 20
16.519
 21
16.502
  0
LINE
  8
0
 10
-2.431
 11
-2.569
 20
16.502
 21
16.502
  0
LINE
  8
0
 10
-2.569
 11
-2.706
 20
16.502
 21
16.519
  0
LINE
  8
0
 10
-2.706
 11
-2.84
 20
16.519
 21
16.554
  0
LINE
  8
0
 10
-2.84
 11
-2.968
 20
16.554
 21
16.605
  0
LINE
  8
0
 10
-2.968
 11
-3.089
 20
16.605
 21
16.671
  0
LINE
  8
0
 10
-3.089
 11
-3.201
 20
16.671
 21
16.752
  0
LINE
  8
0
 10
-3.201
 11
-3.302
 20
16.752
 21
16.847
  0
LINE
  8
0
 10
-3.302
 11
-3.39
 20
16.847
 21
16.953
  0
LINE
  8
0
 10
-3.39
 11
-3.464
 20
16.953
 21
17.07
  0
LINE
  8
0
 10
-3.464
 11
-3.523
 20
17.07
 21
17.195
  0
LINE
  8
0
 10
-3.523
 11
-3.565
 20
17.195
 21
17.326
  0
LINE
  8
0
 10
-3.565
 11
-3.591
 20
17.326
 21
17.462
  0
LINE
  8
0
 10
-3.591
 11
-3.6
 20
17.462
 21
17.6
  0
LINE
  8
0
 10
-5.5
 11
-5.5
 20
-15.6
 21
17.6
  0
LINE
  8
0
 10
-5.5
 11
-5.476
 20
17.6
 21
17.976
  0
LINE
  8
0
 10
-5.476
 11
-5.406
 20
17.976
 21
18.346
  0
LINE
  8
0
 10
-5.406
 11
-5.289
 20
18.346
 21
18.704
  0
LINE
  8
0
 10
-5.289
 11
-5.129
 20
18.704
 21
19.045
  0
LINE
  8
0
 10
-5.129
 11
-4.927
 20
19.045
 21
19.363
  0
LINE
  8
0
 10
-4.927
 11
-4.687
 20
19.363
 21
19.654
  0
LINE
  8
0
 10
-4.687
 11
-4.412
 20
19.654
 21
19.912
  0
LINE
  8
0
 10
-4.412
 11
-4.107
 20
19.912
 21
20.133
  0
LINE
  8
0
 10
-4.107
 11
-3.777
 20
20.133
 21
20.314
  0
LINE
  8
0
 10
-3.777
 11
-3.427
 20
20.314
 21
20.453
  0
LINE
  8
0
 10
-3.427
 11
-3.062
 20
20.453
 21
20.547
  0
LINE
  8
0
 10
-3.062
 11
-2.688
 20
20.547
 21
20.594
  0
LINE
  8
0
 10
-2.688
 11
30.688
 20
20.594
 21
20.594
  0
LINE
  8
0
 10
30.688
 11
31.062
 20
20.594
 21
20.547
  0
LINE
  8
0
 10
31.062
 11
31.427
 20
20.547
 21
20.453
  0
LINE
  8
0
 10
31.427
 11
31.777
 20
20.453
 21
20.314
  0
LINE
  8
0
 10
31.777
 11
32.107
 20
20.314
 21
20.133
  0
LINE
  8
0
 10
32.107
 11
32.412
 20
20.133
 21
19.912
  0
LINE
  8
0
 10
32.412
 11
32.687
 20
19.912
 21
19.654
  0
LINE
  8
0
 10
32.687
 11
32.927
 20
19.654
 21
19.363
  0
LINE
  8
0
 10
32.927
 11
33.129
 20
19.363
 21
19.045
  0
LINE
  8
0
 10
33.129
 11
33.289
 20
19.045
 21
18.704
  0
LINE
  8
0
 10
33.289
 11
33.406
 20
18.704
 21
18.346
  0
LINE
  8
0
 10
33.406
 11
33.476
 20
18.346
 21
17.976
  0
LINE
  8
0
 10
33.476
 11
33.5
 20
17.976
 21
17.6
  0
LINE
  8
0
 10
33.5
 11
33.5
 20
17.6
 21
-15.6
  0
LINE
  8
0
 10
33.5
 11
33.476
 20
-15.6
 21
-15.976
  0
LINE
  8
0
 10
33.476
 11
33.406
 20
-15.976
 21
-16.346
  0
LINE
  8
0
 10
33.406
 11
33.289
 20
-16.346
 21
-16.704
  0
LINE
  8
0
 10
33.289
 11
33.129
 20
-16.704
 21
-17.045
  0
LINE
  8
0
 10
33.129
 11
32.927
 20
-17.045
 21
-17.363
  0
LINE
  8
0
 10
32.927
 11
32.687
 20
-17.363
 21
-17.654
  0
LINE
  8
0
 10
32.687
 11
32.412
 20
-17.654
 21
-17.912
  0
LINE
  8
0
 10
32.412
 11
32.107
 20
-17.912
 21
-18.133
  0
LINE
  8
0
 10
32.107
 11
31.777
 20
-18.133
 21
-18.314
  0
LINE
  8
0
 10
31.777
 11
31.427
 20
-18.314
 21
-18.453
  0
LINE
  8
0
 10
31.427
 11
31.062
 20
-18.453
 21
-18.547
  0
LINE
  8
0
 10
31.062
 11
30.688
 20
-18.547
 21
-18.594
  0
LINE
  8
0
 10
30.688
 11
25
 20
-18.594
 21
-18.594
  0
LINE
  8
0
 10
25
 11
25
 20
-18.594
 21
-9.081
  0
LINE
  8
0
 10
25
 11
25.131
 20
-9.081
 21
-9.098
  0
LINE
  8
0
 10
25.131
 11
25.269
 20
-9.098
 21
-9.098
  0
LINE
  8
0
 10
25.269
 11
25.406
 20
-9.098
 21
-9.081
  0
LINE
  8
0
 10
25.406
 11
25.54
 20
-9.081
 21
-9.046
  0
LINE
  8
0
 10
25.54
 11
25.668
 20
-9.046
 21
-8.995
  0
LINE
  8
0
 10
25.668
 11
25.789
 20
-8.995
 21
-8.929
  0
LINE
  8
0
 10
25.789
 11
25.901
 20
-8.929
 21
-8.848
  0
LINE
  8
0
 10
25.901
 11
26.002
 20
-8.848
 21
-8.753
  0
LINE
  8
0
 10
26.002
 11
26.09
 20
-8.753
 21
-8.647
  0
LINE
  8
0
 10
26.09
 11
26.164
 20
-8.647
 21
-8.53
  0
LINE
  8
0
 10
26.164
 11
26.223
 20
-8.53
 21
-8.405
  0
LINE
  8
0
 10
26.223
 11
26.265
 20
-8.405
 21
-8.274
  0
LINE
  8
0
 10
26.265
 11
26.291
 20
-8.274
 21
-8.138
  0
LINE
  8
0
 10
26.291
 11
26.3
 20
-8.138
 21
-8
  0
LINE
  8
0
 10
26.3
 11
26.291
 20
-8
 21
-7.862
  0
LINE
  8
0
 10
26.291
 11
26.265
 20
-7.862
 21
-7.726
  0
LINE
  8
0
 10
26.265
 11
26.223
 20
-7.726
 21
-7.595
  0
LINE
  8
0
 10
26.223
 11
26.164
 20
-7.595
 21
-7.47
  0
LINE
  8
0
 10
26.164
 11
26.09
 20
-7.47
 21
-7.353
  0
LINE
  8
0
 10
26.09
 11
26.002
 20
-7.353
 21
-7.247
  0
LINE
  8
0
 10
26.002
 11
25.901
 20
-7.247
 21
-7.152
  0
LINE
  8
0
 10
25.901
 11
25.789
 20
-7.152
 21
-7.071
  0
LINE
  8
0
 10
25.789
 11
25.668
 20
-7.071
 21
-7.005
  0
LINE
  8
0
 10
25.668
 11
25.54
 20
-7.005
 21
-6.954
  0
LINE
  8
0
 10
25.54
 11
25.406
 20
-6.954
 21
-6.919
  0
LINE
  8
0
 10
25.406
 11
25.269
 20
-6.919
 21
-6.902
  0
LINE
  8
0
 10
25.269
 11
25.131
 20
-6.902
 21
-6.902
  0
LINE
  8
0
 10
25.131
 11
25
 20
-6.902
 21
-6.919
  0
LINE
  8
0
 10
25
 11
25
 20
-6.919
 21
-4
  0
LINE
  8
0
 10
25
 11
3
 20
-4
 21
-4
  0
LINE
  8
0
 10
3
 11
3
 20
-4
 21
-18.594
  0
LINE
  8
0
 10
3
 11
-2.688
 20
-18.594
 21
-18.594
  0
LINE
  8
0
 10
-2.688
 11
-3.062
 20
-18.594
 21
-18.547
  0
LINE
  8
0
 10
-3.062
 11
-3.427
 20
-18.547
 21
-18.453
  0
LINE
  8
0
 10
-3.427
 11
-3.777
 20
-18.453
 21
-18.314
  0
LINE
  8
0
 10
-3.777
 11
-4.107
 20
-18.314
 21
-18.133
  0
LINE
  8
0
 10
-4.107
 11
-4.412
 20
-18.133
 21
-17.912
  0
LINE
  8
0
 10
-4.412
 11
-4.687
 20
-17.912
 21
-17.654
  0
LINE
  8
0
 10
-4.687
 11
-4.927
 20
-17.654
 21
-17.363
  0
LINE
  8
0
 10
-4.927
 11
-5.129
 20
-17.363
 21
-17.045
  0
LINE
  8
0
 10
-5.129
 11
-5.289
 20
-17.045
 21
-16.704
  0
LINE
  8
0
 10
-5.289
 11
-5.406
 20
-16.704
 21
-16.346
  0
LINE
  8
0
 10
-5.406
 11
-5.476
 20
-16.346
 21
-15.976
  0
LINE
  8
0
 10
-5.476
 11
-5.5
 20
-15.976
 21
-15.6
  0
LINE
  8
0
 10
-2.8
 11
-2.787
 20
4
 21
4.201
  0
LINE
  8
0
 10
-2.787
 11
-2.75
 20
4.201
 21
4.398
  0
LINE
  8
0
 10
-2.75
 11
-2.688
 20
4.398
 21
4.589
  0
LINE
  8
0
 10
-2.688
 11
-2.602
 20
4.589
 21
4.771
  0
LINE
  8
0
 10
-2.602
 11
-2.494
 20
4.771
 21
4.94
  0
LINE
  8
0
 10
-2.494
 11
-2.366
 20
4.94
 21
5.095
  0
LINE
  8
0
 10
-2.366
 11
-2.22
 20
5.095
 21
5.233
  0
LINE
  8
0
 10
-2.22
 11
-2.057
 20
5.233
 21
5.351
  0
LINE
  8
0
 10
-2.057
 11
-1.881
 20
5.351
 21
5.448
  0
LINE
  8
0
 10
-1.881
 11
-1.694
 20
5.448
 21
5.522
  0
LINE
  8
0
 10
-1.694
 11
-1.5
 20
5.522
 21
5.572
  0
LINE
  8
0
 10
-1.5
 11
-1.3
 20
5.572
 21
5.597
  0
LINE
  8
0
 10
-1.3
 11
-1.1
 20
5.597
 21
5.597
  0
LINE
  8
0
 10
-1.1
 11
-0.9
 20
5.597
 21
5.572
  0
LINE
  8
0
 10
-0.9
 11
-0.706
 20
5.572
 21
5.522
  0
LINE
  8
0
 10
-0.706
 11
-0.519
 20
5.522
 21
5.448
  0
LINE
  8
0
 10
-0.519
 11
-0.343
 20
5.448
 21
5.351
  0
LINE
  8
0
 10
-0.343
 11
-0.18
 20
5.351
 21
5.233
  0
LINE
  8
0
 10
-0.18
 11
-0.034
 20
5.233
 21
5.095
  0
LINE
  8
0
 10
-0.034
 11
0.094
 20
5.095
 21
4.94
  0
LINE
  8
0
 10
0.094
 11
0.202
 20
4.94
 21
4.771
  0
LINE
  8
0
 10
0.202
 11
0.288
 20
4.771
 21
4.589
  0
LINE
  8
0
 10
0.288
 11
0.35
 20
4.589
 21
4.398
  0
LINE
  8
0
 10
0.35
 11
0.387
 20
4.398
 21
4.201
  0
LINE
  8
0
 10
0.387
 11
0.4
 20
4.201
 21
4
  0
LINE
  8
0
 10
0.4
 11
0.387
 20
4
 21
3.799
  0
LINE
  8
0
 10
0.387
 11
0.35
 20
3.799
 21
3.602
  0
LINE
  8
0
 10
0.35
 11
0.288
 20
3.602
 21
3.411
  0
LINE
  8
0
 10
0.288
 11
0.202
 20
3.411
 21
3.229
  0
LINE
  8
0
 10
0.202
 11
0.094
 20
3.229
 21
3.06
  0
LINE
  8
0
 10
0.094
 11
-0.034
 20
3.06
 21
2.905
  0
LINE
  8
0
 10
-0.034
 11
-0.18
 20
2.905
 21
2.767
  0
LINE
  8
0
 10
-0.18
 11
-0.343
 20
2.767
 21
2.649
  0
LINE
  8
0
 10
-0.343
 11
-0.519
 20
2.649
 21
2.552
  0
LINE
  8
0
 10
-0.519
 11
-0.706
 20
2.552
 21
2.478
  0
LINE
  8
0
 10
-0.706
 11
-0.9
 20
2.478
 21
2.428
  0
LINE
  8
0
 10
-0.9
 11
-1.1
 20
2.428
 21
2.403
  0
LINE
  8
0
 10
-1.1
 11
-1.3
 20
2.403
 21
2.403
  0
LINE
  8
0
 10
-1.3
 11
-1.5
 20
2.403
 21
2.428
  0
LINE
  8
0
 10
-1.5
 11
-1.694
 20
2.428
 21
2.478
  0
LINE
  8
0
 10
-1.694
 11
-1.881
 20
2.478
 21
2.552
  0
LINE
  8
0
 10
-1.881
 11
-2.057
 20
2.552
 21
2.649
  0
LINE
  8
0
 10
-2.057
 11
-2.22
 20
2.649
 21
2.767
  0
LINE
  8
0
 10
-2.22
 11
-2.366
 20
2.767
 21
2.905
  0
LINE
  8
0
 10
-2.366
 11
-2.494
 20
2.905
 21
3.06
  0
LINE
  8
0
 10
-2.494
 11
-2.602
 20
3.06
 21
3.229
  0
LINE
  8
0
 10
-2.602
 11
-2.688
 20
3.229
 21
3.411
  0
LINE
  8
0
 10
-2.688
 11
-2.75
 20
3.411
 21
3.602
  0
LINE
  8
0
 10
-2.75
 11
-2.787
 20
3.602
 21
3.799
  0
LINE
  8
0
 10
-2.787
 11
-2.8
 20
3.799
 21
4
  0
LINE
  8
0
 10
2.4
 11
2.409
 20
-2.1
 21
-1.962
  0
LINE
  8
0
 10
2.409
 11
2.435
 20
-1.962
 21
-1.826
  0
LINE
  8
0
 10
2.435
 11
2.477
 20
-1.826
 21
-1.695
  0
LINE
  8
0
 10
2.477
 11
2.536
 20
-1.695
 21
-1.57
  0
LINE
  8
0
 10
2.536
 11
2.61
 20
-1.57
 21
-1.453
  0
LINE
  8
0
 10
2.61
 11
2.698
 20
-1.453
 21
-1.347
  0
LINE
  8
0
 10
2.698
 11
2.799
 20
-1.347
 21
-1.252
  0
LINE
  8
0
 10
2.799
 11
2.911
 20
-1.252
 21
-1.171
  0
LINE
  8
0
 10
2.911
 11
3.032
 20
-1.171
 21
-1.105
  0
LINE
  8
0
 10
3.032
 11
3.16
 20
-1.105
 21
-1.054
  0
LINE
  8
0
 10
3.16
 11
3.294
 20
-1.054
 21
-1.019
  0
LINE
  8
0
 10
3.294
 11
3.431
 20
-1.019
 21
-1.002
  0
LINE
  8
0
 10
3.431
 11
3.569
 20
-1.002
 21
-1.002
  0
LINE
  8
0
 10
3.569
 11
3.706
 20
-1.002
 21
-1.019
  0
LINE
  8
0
 10
3.706
 11
3.84
 20
-1.019
 21
-1.054
  0
LINE
  8
0
 10
3.84
 11
3.968
 20
-1.054
 21
-1.105
  0
LINE
  8
0
 10
3.968
 11
4.089
 20
-1.105
 21
-1.171
  0
LINE
  8
0
 10
4.089
 11
4.201
 20
-1.171
 21
-1.252
  0
LINE
  8
0
 10
4.201
 11
4.302
 20
-1.252
 21
-1.347
  0
LINE
  8
0
 10
4.302
 11
4.39
 20
-1.347
 21
-1.453
  0
LINE
  8
0
 10
4.39
 11
4.464
 20
-1.453
 21
-1.57
  0
LINE
  8
0
 10
4.464
 11
4.523
 20
-1.57
 21
-1.695
  0
LINE
  8
0
 10
4.523
 11
4.565
 20
-1.695
 21
-1.826
  0
LINE
  8
0
 10
4.565
 11
4.591
 20
-1.826
 21
-1.962
  0
LINE
  8
0
 10
4.591
 11
4.6
 20
-1.962
 21
-2.1
  0
LINE
  8
0
 10
4.6
 11
4.591
 20
-2.1
 21
-2.238
  0
LINE
  8
0
 10
4.591
 11
4.565
 20
-2.238
 21
-2.374
  0
LINE
  8
0
 10
4.565
 11
4.523
 20
-2.374
 21
-2.505
  0
LINE
  8
0
 10
4.523
 11
4.464
 20
-2.505
 21
-2.63
  0
LINE
  8
0
 10
4.464
 11
4.39
 20
-2.63
 21
-2.747
  0
LINE
  8
0
 10
4.39
 11
4.302
 20
-2.747
 21
-2.853
  0
LINE
  8
0
 10
4.302
 11
4.201
 20
-2.853
 21
-2.948
  0
LINE
  8
0
 10
4.201
 11
4.089
 20
-2.948
 21
-3.029
  0
LINE
  8
0
 10
4.089
 11
3.968
 20
-3.029
 21
-3.095
  0
LINE
  8
0
 10
3.968
 11
3.84
 20
-3.095
 21
-3.146
  0
LINE
  8
0
 10
3.84
 11
3.706
 20
-3.146
 21
-3.181
  0
LINE
  8
0
 10
3.706
 11
3.569
 20
-3.181
 21
-3.198
  0
LINE
  8
0
 10
3.569
 11
3.431
 20
-3.198
 21
-3.198
  0
LINE
  8
0
 10
3.431
 11
3.294
 20
-3.198
 21
-3.181
  0
LINE
  8
0
 10
3.294
 11
3.16
 20
-3.181
 21
-3.146
  0
LINE
  8
0
 10
3.16
 11
3.032
 20
-3.146
 21
-3.095
  0
LINE
  8
0
 10
3.032
 11
2.911
 20
-3.095
 21
-3.029
  0
LINE
  8
0
 10
2.911
 11
2.799
 20
-3.029
 21
-2.948
  0
LINE
  8
0
 10
2.799
 11
2.698
 20
-2.948
 21
-2.853
  0
LINE
  8
0
 10
2.698
 11
2.61
 20
-2.853
 21
-2.747
  0
LINE
  8
0
 10
2.61
 11
2.536
 20
-2.747
 21
-2.63
  0
LINE
  8
0
 10
2.536
 11
2.477
 20
-2.63
 21
-2.505
  0
LINE
  8
0
 10
2.477
 11
2.435
 20
-2.505
 21
-2.374
  0
LINE
  8
0
 10
2.435
 11
2.409
 20
-2.374
 21
-2.238
  0
LINE
  8
0
 10
2.409
 11
2.4
 20
-2.238
 21
-2.1
  0
LINE
  8
0
 10
2.4
 11
2.409
 20
10.25
 21
10.388
  0
LINE
  8
0
 10
2.409
 11
2.435
 20
10.388
 21
10.524
  0
LINE
  8
0
 10
2.435
 11
2.477
 20
10.524
 21
10.655
  0
LINE
  8
0
 10
2.477
 11
2.536
 20
10.655
 21
10.78
  0
LINE
  8
0
 10
2.536
 11
2.61
 20
10.78
 21
10.897
  0
LINE
  8
0
 10
2.61
 11
2.698
 20
10.897
 21
11.003
  0
LINE
  8
0
 10
2.698
 11
2.799
 20
11.003
 21
11.098
  0
LINE
  8
0
 10
2.799
 11
2.911
 20
11.098
 21
11.179
  0
LINE
  8
0
 10
2.911
 11
3.032
 20
11.179
 21
11.245
  0
LINE
  8
0
 10
3.032
 11
3.16
 20
11.245
 21
11.296
  0
LINE
  8
0
 10
3.16
 11
3.294
 20
11.296
 21
11.331
  0
LINE
  8
0
 10
3.294
 11
3.431
 20
11.331
 21
11.348
  0
LINE
  8
0
 10
3.431
 11
3.569
 20
11.348
 21
11.348
  0
LINE
  8
0
 10
3.569
 11
3.706
 20
11.348
 21
11.331
  0
LINE
  8
0
 10
3.706
 11
3.84
 20
11.331
 21
11.296
  0
LINE
  8
0
 10
3.84
 11
3.968
 20
11.296
 21
11.245
  0
LINE
  8
0
 10
3.968
 11
4.089
 20
11.245
 21
11.179
  0
LINE
  8
0
 10
4.089
 11
4.201
 20
11.179
 21
11.098
  0
LINE
  8
0
 10
4.201
 11
4.302
 20
11.098
 21
11.003
  0
LINE
  8
0
 10
4.302
 11
4.39
 20
11.003
 21
10.897
  0
LINE
  8
0
 10
4.39
 11
4.464
 20
10.897
 21
10.78
  0
LINE
  8
0
 10
4.464
 11
4.523
 20
10.78
 21
10.655
  0
LINE
  8
0
 10
4.523
 11
4.565
 20
10.655
 21
10.524
  0
LINE
  8
0
 10
4.565
 11
4.591
 20
10.524
 21
10.388
  0
LINE
  8
0
 10
4.591
 11
4.6
 20
10.388
 21
10.25
  0
LINE
  8
0
 10
4.6
 11
4.591
 20
10.25
 21
10.112
  0
LINE
  8
0
 10
4.591
 11
4.565
 20
10.112
 21
9.976
  0
LINE
  8
0
 10
4.565
 11
4.523
 20
9.976
 21
9.845
  0
LINE
  8
0
 10
4.523
 11
4.464
 20
9.845
 21
9.72
  0
LINE
  8
0
 10
4.464
 11
4.39
 20
9.72
 21
9.603
  0
LINE
  8
0
 10
4.39
 11
4.302
 20
9.603
 21
9.497
  0
LINE
  8
0
 10
4.302
 11
4.201
 20
9.497
 21
9.402
  0
LINE
  8
0
 10
4.201
 11
4.089
 20
9.402
 21
9.321
  0
LINE
  8
0
 10
4.089
 11
3.968
 20
9.321
 21
9.255
  0
LINE
  8
0
 10
3.968
 11
3.84
 20
9.255
 21
9.204
  0
LINE
  8
0
 10
3.84
 11
3.706
 20
9.204
 21
9.169
  0
LINE
  8
0
 10
3.706
 11
3.569
 20
9.169
 21
9.152
  0
LINE
  8
0
 10
3.569
 11
3.431
 20
9.152
 21
9.152
  0
LINE
  8
0
 10
3.431
 11
3.294
 20
9.152
 21
9.169
  0
LINE
  8
0
 10
3.294
 11
3.16
 20
9.169
 21
9.204
  0
LINE
  8
0
 10
3.16
 11
3.032
 20
9.204
 21
9.255
  0
LINE
  8
0
 10
3.032
 11
2.911
 20
9.255
 21
9.321
  0
LINE
  8
0
 10
2.911
 11
2.799
 20
9.321
 21
9.402
  0
LINE
  8
0
 10
2.799
 11
2.698
 20
9.402
 21
9.497
  0
LINE
  8
0
 10
2.698
 11
2.61
 20
9.497
 21
9.603
  0
LINE
  8
0
 10
2.61
 11
2.536
 20
9.603
 21
9.72
  0
LINE
  8
0
 10
2.536
 11
2.477
 20
9.72
 21
9.845
  0
LINE
  8
0
 10
2.477
 11
2.435
 20
9.845
 21
9.976
  0
LINE
  8
0
 10
2.435
 11
2.409
 20
9.976
 21
10.112
  0
LINE
  8
0
 10
2.409
 11
2.4
 20
10.112
 21
10.25
  0
LINE
  8
0
 10
12.4
 11
12.413
 20
15
 21
15.201
  0
LINE
  8
0
 10
12.413
 11
12.45
 20
15.201
 21
15.398
  0
LINE
  8
0
 10
12.45
 11
12.512
 20
15.398
 21
15.589
  0
LINE
  8
0
 10
12.512
 11
12.598
 20
15.589
 21
15.771
  0
LINE
  8
0
 10
12.598
 11
12.706
 20
15.771
 21
15.94
  0
LINE
  8
0
 10
12.706
 11
12.834
 20
15.94
 21
16.095
  0
LINE
  8
0
 10
12.834
 11
12.98
 20
16.095
 21
16.233
  0
LINE
  8
0
 10
12.98
 11
13.143
 20
16.233
 21
16.351
  0
LINE
  8
0
 10
13.143
 11
13.319
 20
16.351
 21
16.448
  0
LINE
  8
0
 10
13.319
 11
13.506
 20
16.448
 21
16.522
  0
LINE
  8
0
 10
13.506
 11
13.7
 20
16.522
 21
16.572
  0
LINE
  8
0
 10
13.7
 11
13.9
 20
16.572
 21
16.597
  0
LINE
  8
0
 10
13.9
 11
14.1
 20
16.597
 21
16.597
  0
LINE
  8
0
 10
14.1
 11
14.3
 20
16.597
 21
16.572
  0
LINE
  8
0
 10
14.3
 11
14.494
 20
16.572
 21
16.522
  0
LINE
  8
0
 10
14.494
 11
14.681
 20
16.522
 21
16.448
  0
LINE
  8
0
 10
14.681
 11
14.857
 20
16.448
 21
16.351
  0
LINE
  8
0
 10
14.857
 11
15.02
 20
16.351
 21
16.233
  0
LINE
  8
0
 10
15.02
 11
15.166
 20
16.233
 21
16.095
  0
LINE
  8
0
 10
15.166
 11
15.294
 20
16.095
 21
15.94
  0
LINE
  8
0
 10
15.294
 11
15.402
 20
15.94
 21
15.771
  0
LINE
  8
0
 10
15.402
 11
15.488
 20
15.771
 21
15.589
  0
LINE
  8
0
 10
15.488
 11
15.55
 20
15.589
 21
15.398
  0
LINE
  8
0
 10
15.55
 11
15.587
 20
15.398
 21
15.201
  0
LINE
  8
0
 10
15.587
 11
15.6
 20
15.201
 21
15
  0
LINE
  8
0
 10
15.6
 11
15.587
 20
15
 21
14.799
  0
LINE
  8
0
 10
15.587
 11
15.55
 20
14.799
 21
14.602
  0
LINE
  8
0
 10
15.55
 11
15.488
 20
14.602
 21
14.411
  0
LINE
  8
0
 10
15.488
 11
15.402
 20
14.411
 21
14.229
  0
LINE
  8
0
 10
15.402
 11
15.294
 20
14.229
 21
14.06
  0
LINE
  8
0
 10
15.294
 11
15.166
 20
14.06
 21
13.905
  0
LINE
  8
0
 10
15.166
 11
15.02
 20
13.905
 21
13.767
  0
LINE
  8
0
 10
15.02
 11
14.857
 20
13.767
 21
13.649
  0
LINE
  8
0
 10
14.857
 11
14.681
 20
13.649
 21
13.552
  0
LINE
  8
0
 10
14.681
 11
14.494
 20
13.552
 21
13.478
  0
LINE
  8
0
 10
14.494
 11
14.3
 20
13.478
 21
13.428
  0
LINE
  8
0
 10
14.3
 11
14.1
 20
13.428
 21
13.403
  0
LINE
  8
0
 10
14.1
 11
13.9
 20
13.403
 21
13.403
  0
LINE
  8
0
 10
13.9
 11
13.7
 20
13.403
 21
13.428
  0
LINE
  8
0
 10
13.7
 11
13.506
 20
13.428
 21
13.478
  0
LINE
  8
0
 10
13.506
 11
13.319
 20
13.478
 21
13.552
  0
LINE
  8
0
 10
13.319
 11
13.143
 20
13.552
 21
13.649
  0
LINE
  8
0
 10
13.143
 11
12.98
 20
13.649
 21
13.767
  0
LINE
  8
0
 10
12.98
 11
12.834
 20
13.767
 21
13.905
  0
LINE
  8
0
 10
12.834
 11
12.706
 20
13.905
 21
14.06
  0
LINE
  8
0
 10
12.706
 11
12.598
 20
14.06
 21
14.229
  0
LINE
  8
0
 10
12.598
 11
12.512
 20
14.229
 21
14.411
  0
LINE
  8
0
 10
12.512
 11
12.45
 20
14.411
 21
14.602
  0
LINE
  8
0
 10
12.45
 11
12.413
 20
14.602
 21
14.799
  0
LINE
  8
0
 10
12.413
 11
12.4
 20
14.799
 21
15
  0
LINE
  8
0
 10
23.4
 11
23.409
 20
-2.1
 21
-1.962
  0
LINE
  8
0
 10
23.409
 11
23.435
 20
-1.962
 21
-1.826
  0
LINE
  8
0
 10
23.435
 11
23.477
 20
-1.826
 21
-1.695
  0
LINE
  8
0
 10
23.477
 11
23.536
 20
-1.695
 21
-1.57
  0
LINE
  8
0
 10
23.536
 11
23.61
 20
-1.57
 21
-1.453
  0
LINE
  8
0
 10
23.61
 11
23.698
 20
-1.453
 21
-1.347
  0
LINE
  8
0
 10
23.698
 11
23.799
 20
-1.347
 21
-1.252
  0
LINE
  8
0
 10
23.799
 11
23.911
 20
-1.252
 21
-1.171
  0
LINE
  8
0
 10
23.911
 11
24.032
 20
-1.171
 21
-1.105
  0
LINE
  8
0
 10
24.032
 11
24.16
 20
-1.105
 21
-1.054
  0
LINE
  8
0
 10
24.16
 11
24.294
 20
-1.054
 21
-1.019
  0
LINE
  8
0
 10
24.294
 11
24.431
 20
-1.019
 21
-1.002
  0
LINE
  8
0
 10
24.431
 11
24.569
 20
-1.002
 21
-1.002
  0
LINE
  8
0
 10
24.569
 11
24.706
 20
-1.002
 21
-1.019
  0
LINE
  8
0
 10
24.706
 11
24.84
 20
-1.019
 21
-1.054
  0
LINE
  8
0
 10
24.84
 11
24.968
 20
-1.054
 21
-1.105
  0
LINE
  8
0
 10
24.968
 11
25.089
 20
-1.105
 21
-1.171
  0
LINE
  8
0
 10
25.089
 11
25.201
 20
-1.171
 21
-1.252
  0
LINE
  8
0
 10
25.201
 11
25.302
 20
-1.252
 21
-1.347
  0
LINE
  8
0
 10
25.302
 11
25.39
 20
-1.347
 21
-1.453
  0
LINE
  8
0
 10
25.39
 11
25.464
 20
-1.453
 21
-1.57
  0
LINE
  8
0
 10
25.464
 11
25.523
 20
-1.57
 21
-1.695
  0
LINE
  8
0
 10
25.523
 11
25.565
 20
-1.695
 21
-1.826
  0
LINE
  8
0
 10
25.565
 11
25.591
 20
-1.826
 21
-1.962
  0
LINE
  8
0
 10
25.591
 11
25.6
 20
-1.962
 21
-2.1
  0
LINE
  8
0
 10
25.6
 11
25.591
 20
-2.1
 21
-2.238
  0
LINE
  8
0
 10
25.591
 11
25.565
 20
-2.238
 21
-2.374
  0
LINE
  8
0
 10
25.565
 11
25.523
 20
-2.374
 21
-2.505
  0
LINE
  8
0
 10
25.523
 11
25.464
 20
-2.505
 21
-2.63
  0
LINE
  8
0
 10
25.464
 11
25.39
 20
-2.63
 21
-2.747
  0
LINE
  8
0
 10
25.39
 11
25.302
 20
-2.747
 21
-2.853
  0
LINE
  8
0
 10
25.302
 11
25.201
 20
-2.853
 21
-2.948
  0
LINE
  8
0
 10
25.201
 11
25.089
 20
-2.948
 21
-3.029
  0
LINE
  8
0
 10
25.089
 11
24.968
 20
-3.029
 21
-3.095
  0
LINE
  8
0
 10
24.968
 11
24.84
 20
-3.095
 21
-3.146
  0
LINE
  8
0
 10
24.84
 11
24.706
 20
-3.146
 21
-3.181
  0
LINE
  8
0
 10
24.706
 11
24.569
 20
-3.181
 21
-3.198
  0
LINE
  8
0
 10
24.569
 11
24.431
 20
-3.198
 21
-3.198
  0
LINE
  8
0
 10
24.431
 11
24.294
 20
-3.198
 21
-3.181
  0
LINE
  8
0
 10
24.294
 11
24.16
 20
-3.181
 21
-3.146
  0
LINE
  8
0
 10
24.16
 11
24.032
 20
-3.146
 21
-3.095
  0
LINE
  8
0
 10
24.032
 11
23.911
 20
-3.095
 21
-3.029
  0
LINE
  8
0
 10
23.911
 11
23.799
 20
-3.029
 21
-2.948
  0
LINE
  8
0
 10
23.799
 11
23.698
 20
-2.948
 21
-2.853
  0
LINE
  8
0
 10
23.698
 11
23.61
 20
-2.853
 21
-2.747
  0
LINE
  8
0
 10
23.61
 11
23.536
 20
-2.747
 21
-2.63
  0
LINE
  8
0
 10
23.536
 11
23.477
 20
-2.63
 21
-2.505
  0
LINE
  8
0
 10
23.477
 11
23.435
 20
-2.505
 21
-2.374
  0
LINE
  8
0
 10
23.435
 11
23.409
 20
-2.374
 21
-2.238
  0
LINE
  8
0
 10
23.409
 11
23.4
 20
-2.238
 21
-2.1
  0
LINE
  8
0
 10
23.4
 11
23.409
 20
10.25
 21
10.388
  0
LINE
  8
0
 10
23.409
 11
23.435
 20
10.388
 21
10.524
  0
LINE
  8
0
 10
23.435
 11
23.477
 20
10.524
 21
10.655
  0
LINE
  8
0
 10
23.477
 11
23.536
 20
10.655
 21
10.78
  0
LINE
  8
0
 10
23.536
 11
23.61
 20
10.78
 21
10.897
  0
LINE
  8
0
 10
23.61
 11
23.698
 20
10.897
 21
11.003
  0
LINE
  8
0
 10
23.698
 11
23.799
 20
11.003
 21
11.098
  0
LINE
  8
0
 10
23.799
 11
23.911
 20
11.098
 21
11.179
  0
LINE
  8
0
 10
23.911
 11
24.032
 20
11.179
 21
11.245
  0
LINE
  8
0
 10
24.032
 11
24.16
 20
11.245
 21
11.296
  0
LINE
  8
0
 10
24.16
 11
24.294
 20
11.296
 21
11.331
  0
LINE
  8
0
 10
24.294
 11
24.431
 20
11.331
 21
11.348
  0
LINE
  8
0
 10
24.431
 11
24.569
 20
11.348
 21
11.348
  0
LINE
  8
0
 10
24.569
 11
24.706
 20
11.348
 21
11.331
  0
LINE
  8
0
 10
24.706
 11
24.84
 20
11.331
 21
11.296
  0
LINE
  8
0
 10
24.84
 11
24.968
 20
11.296
 21
11.245
  0
LINE
  8
0
 10
24.968
 11
25.089
 20
11.245
 21
11.179
  0
LINE
  8
0
 10
25.089
 11
25.201
 20
11.179
 21
11.098
  0
LINE
  8
0
 10
25.201
 11
25.302
 20
11.098
 21
11.003
  0
LINE
  8
0
 10
25.302
 11
25.39
 20
11.003
 21
10.897
  0
LINE
  8
0
 10
25.39
 11
25.464
 20
10.897
 21
10.78
  0
LINE
  8
0
 10
25.464
 11
25.523
 20
10.78
 21
10.655
  0
LINE
  8
0
 10
25.523
 11
25.565
 20
10.655
 21
10.524
  0
LINE
  8
0
 10
25.565
 11
25.591
 20
10.524
 21
10.388
  0
LINE
  8
0
 10
25.591
 11
25.6
 20
10.388
 21
10.25
  0
LINE
  8
0
 10
25.6
 11
25.591
 20
10.25
 21
10.112
  0
LINE
  8
0
 10
25.591
 11
25.565
 20
10.112
 21
9.976
  0
LINE
  8
0
 10
25.565
 11
25.523
 20
9.976
 21
9.845
  0
LINE
  8
0
 10
25.523
 11
25.464
 20
9.845
 21
9.72
  0
LINE
  8
0
 10
25.464
 11
25.39
 20
9.72
 21
9.603
  0
LINE
  8
0
 10
25.39
 11
25.302
 20
9.603
 21
9.497
  0
LINE
  8
0
 10
25.302
 11
25.201
 20
9.497
 21
9.402
  0
LINE
  8
0
 10
25.201
 11
25.089
 20
9.402
 21
9.321
  0
LINE
  8
0
 10
25.089
 11
24.968
 20
9.321
 21
9.255
  0
LINE
  8
0
 10
24.968
 11
24.84
 20
9.255
 21
9.204
  0
LINE
  8
0
 10
24.84
 11
24.706
 20
9.204
 21
9.169
  0
LINE
  8
0
 10
24.706
 11
24.569
 20
9.169
 21
9.152
  0
LINE
  8
0
 10
24.569
 11
24.431
 20
9.152
 21
9.152
  0
LINE
  8
0
 10
24.431
 11
24.294
 20
9.152
 21
9.169
  0
LINE
  8
0
 10
24.294
 11
24.16
 20
9.169
 21
9.204
  0
LINE
  8
0
 10
24.16
 11
24.032
 20
9.204
 21
9.255
  0
LINE
  8
0
 10
24.032
 11
23.911
 20
9.255
 21
9.321
  0
LINE
  8
0
 10
23.911
 11
23.799
 20
9.321
 21
9.402
  0
LINE
  8
0
 10
23.799
 11
23.698
 20
9.402
 21
9.497
  0
LINE
  8
0
 10
23.698
 11
23.61
 20
9.497
 21
9.603
  0
LINE
  8
0
 10
23.61
 11
23.536
 20
9.603
 21
9.72
  0
LINE
  8
0
 10
23.536
 11
23.477
 20
9.72
 21
9.845
  0
LINE
  8
0
 10
23.477
 11
23.435
 20
9.845
 21
9.976
  0
LINE
  8
0
 10
23.435
 11
23.409
 20
9.976
 21
10.112
  0
LINE
  8
0
 10
23.409
 11
23.4
 20
10.112
 21
10.25
  0
LINE
  8
0
 10
26.6
 11
26.613
 20
4
 21
4.201
  0
LINE
  8
0
 10
26.613
 11
26.65
 20
4.201
 21
4.398
  0
LINE
  8
0
 10
26.65
 11
26.712
 20
4.398
 21
4.589
  0
LINE
  8
0
 10
26.712
 11
26.798
 20
4.589
 21
4.771
  0
LINE
  8
0
 10
26.798
 11
26.906
 20
4.771
 21
4.94
  0
LINE
  8
0
 10
26.906
 11
27.034
 20
4.94
 21
5.095
  0
LINE
  8
0
 10
27.034
 11
27.18
 20
5.095
 21
5.233
  0
LINE
  8
0
 10
27.18
 11
27.343
 20
5.233
 21
5.351
  0
LINE
  8
0
 10
27.343
 11
27.519
 20
5.351
 21
5.448
  0
LINE
  8
0
 10
27.519
 11
27.706
 20
5.448
 21
5.522
  0
LINE
  8
0
 10
27.706
 11
27.9
 20
5.522
 21
5.572
  0
LINE
  8
0
 10
27.9
 11
28.1
 20
5.572
 21
5.597
  0
LINE
  8
0
 10
28.1
 11
28.3
 20
5.597
 21
5.597
  0
LINE
  8
0
 10
28.3
 11
28.5
 20
5.597
 21
5.572
  0
LINE
  8
0
 10
28.5
 11
28.694
 20
5.572
 21
5.522
  0
LINE
  8
0
 10
28.694
 11
28.881
 20
5.522
 21
5.448
  0
LINE
  8
0
 10
28.881
 11
29.057
 20
5.448
 21
5.351
  0
LINE
  8
0
 10
29.057
 11
29.22
 20
5.351
 21
5.233
  0
LINE
  8
0
 10
29.22
 11
29.366
 20
5.233
 21
5.095
  0
LINE
  8
0
 10
29.366
 11
29.494
 20
5.095
 21
4.94
  0
LINE
  8
0
 10
29.494
 11
29.602
 20
4.94
 21
4.771
  0
LINE
  8
0
 10
29.602
 11
29.688
 20
4.771
 21
4.589
  0
LINE
  8
0
 10
29.688
 11
29.75
 20
4.589
 21
4.398
  0
LINE
  8
0
 10
29.75
 11
29.787
 20
4.398
 21
4.201
  0
LINE
  8
0
 10
29.787
 11
29.8
 20
4.201
 21
4
  0
LINE
  8
0
 10
29.8
 11
29.787
 20
4
 21
3.799
  0
LINE
  8
0
 10
29.787
 11
29.75
 20
3.799
 21
3.602
  0
LINE
  8
0
 10
29.75
 11
29.688
 20
3.602
 21
3.411
  0
LINE
  8
0
 10
29.688
 11
29.602
 20
3.411
 21
3.229
  0
LINE
  8
0
 10
29.602
 11
29.494
 20
3.229
 21
3.06
  0
LINE
  8
0
 10
29.494
 11
29.366
 20
3.06
 21
2.905
  0
LINE
  8
0
 10
29.366
 11
29.22
 20
2.905
 21
2.767
  0
LINE
  8
0
 10
29.22
 11
29.057
 20
2.767
 21
2.649
  0
LINE
  8
0
 10
29.057
 11
28.881
 20
2.649
 21
2.552
  0
LINE
  8
0
 10
28.881
 11
28.694
 20
2.552
 21
2.478
  0
LINE
  8
0
 10
28.694
 11
28.5
 20
2.478
 21
2.428
  0
LINE
  8
0
 10
28.5
 11
28.3
 20
2.428
 21
2.403
  0
LINE
  8
0
 10
28.3
 11
28.1
 20
2.403
 21
2.403
  0
LINE
  8
0
 10
28.1
 11
27.9
 20
2.403
 21
2.428
  0
LINE
  8
0
 10
27.9
 11
27.706
 20
2.428
 21
2.478
  0
LINE
  8
0
 10
27.706
 11
27.519
 20
2.478
 21
2.552
  0
LINE
  8
0
 10
27.519
 11
27.343
 20
2.552
 21
2.649
  0
LINE
  8
0
 10
27.343
 11
27.18
 20
2.649
 21
2.767
  0
LINE
  8
0
 10
27.18
 11
27.034
 20
2.767
 21
2.905
  0
LINE
  8
0
 10
27.034
 11
26.906
 20
2.905
 21
3.06
  0
LINE
  8
0
 10
26.906
 11
26.798
 20
3.06
 21
3.229
  0
LINE
  8
0
 10
26.798
 11
26.712
 20
3.229
 21
3.411
  0
LINE
  8
0
 10
26.712
 11
26.65
 20
3.411
 21
3.602
  0
LINE
  8
0
 10
26.65
 11
26.613
 20
3.602
 21
3.799
  0
LINE
  8
0
 10
26.613
 11
26.6
 20
3.799
 21
4
  0
LINE
  8
0
 10
29.4
 11
29.409
 20
-15.6
 21
-15.462
  0
LINE
  8
0
 10
29.409
 11
29.435
 20
-15.462
 21
-15.326
  0
LINE
  8
0
 10
29.435
 11
29.477
 20
-15.326
 21
-15.195
  0
LINE
  8
0
 10
29.477
 11
29.536
 20
-15.195
 21
-15.07
  0
LINE
  8
0
 10
29.536
 11
29.61
 20
-15.07
 21
-14.953
  0
LINE
  8
0
 10
29.61
 11
29.698
 20
-14.953
 21
-14.847
  0
LINE
  8
0
 10
29.698
 11
29.799
 20
-14.847
 21
-14.752
  0
LINE
  8
0
 10
29.799
 11
29.911
 20
-14.752
 21
-14.671
  0
LINE
  8
0
 10
29.911
 11
30.032
 20
-14.671
 21
-14.605
  0
LINE
  8
0
 10
30.032
 11
30.16
 20
-14.605
 21
-14.554
  0
LINE
  8
0
 10
30.16
 11
30.294
 20
-14.554
 21
-14.519
  0
LINE
  8
0
 10
30.294
 11
30.431
 20
-14.519
 21
-14.502
  0
LINE
  8
0
 10
30.431
 11
30.569
 20
-14.502
 21
-14.502
  0
LINE
  8
0
 10
30.569
 11
30.706
 20
-14.502
 21
-14.519
  0
LINE
  8
0
 10
30.706
 11
30.84
 20
-14.519
 21
-14.554
  0
LINE
  8
0
 10
30.84
 11
30.968
 20
-14.554
 21
-14.605
  0
LINE
  8
0
 10
30.968
 11
31.089
 20
-14.605
 21
-14.671
  0
LINE
  8
0
 10
31.089
 11
31.201
 20
-14.671
 21
-14.752
  0
LINE
  8
0
 10
31.201
 11
31.302
 20
-14.752
 21
-14.847
  0
LINE
  8
0
 10
31.302
 11
31.39
 20
-14.847
 21
-14.953
  0
LINE
  8
0
 10
31.39
 11
31.464
 20
-14.953
 21
-15.07
  0
LINE
  8
0
 10
31.464
 11
31.523
 20
-15.07
 21
-15.195
  0
LINE
  8
0
 10
31.523
 11
31.565
 20
-15.195
 21
-15.326
  0
LINE
  8
0
 10
31.565
 11
31.591
 20
-15.326
 21
-15.462
  0
LINE
  8
0
 10
31.591
 11
31.6
 20
-15.462
 21
-15.6
  0
LINE
  8
0
 10
31.6
 11
31.591
 20
-15.6
 21
-15.738
  0
LINE
  8
0
 10
31.591
 11
31.565
 20
-15.738
 21
-15.874
  0
LINE
  8
0
 10
31.565
 11
31.523
 20
-15.874
 21
-16.005
  0
LINE
  8
0
 10
31.523
 11
31.464
 20
-16.005
 21
-16.13
  0
LINE
  8
0
 10
31.464
 11
31.39
 20
-16.13
 21
-16.247
  0
LINE
  8
0
 10
31.39
 11
31.302
 20
-16.247
 21
-16.353
  0
LINE
  8
0
 10
31.302
 11
31.201
 20
-16.353
 21
-16.448
  0
LINE
  8
0
 10
31.201
 11
31.089
 20
-16.448
 21
-16.529
  0
LINE
  8
0
 10
31.089
 11
30.968
 20
-16.529
 21
-16.595
  0
LINE
  8
0
 10
30.968
 11
30.84
 20
-16.595
 21
-16.646
  0
LINE
  8
0
 10
30.84
 11
30.706
 20
-16.646
 21
-16.681
  0
LINE
  8
0
 10
30.706
 11
30.569
 20
-16.681
 21
-16.698
  0
LINE
  8
0
 10
30.569
 11
30.431
 20
-16.698
 21
-16.698
  0
LINE
  8
0
 10
30.431
 11
30.294
 20
-16.698
 21
-16.681
  0
LINE
  8
0
 10
30.294
 11
30.16
 20
-16.681
 21
-16.646
  0
LINE
  8
0
 10
30.16
 11
30.032
 20
-16.646
 21
-16.595
  0
LINE
  8
0
 10
30.032
 11
29.911
 20
-16.595
 21
-16.529
  0
LINE
  8
0
 10
29.911
 11
29.799
 20
-16.529
 21
-16.448
  0
LINE
  8
0
 10
29.799
 11
29.698
 20
-16.448
 21
-16.353
  0
LINE
  8
0
 10
29.698
 11
29.61
 20
-16.353
 21
-16.247
  0
LINE
  8
0
 10
29.61
 11
29.536
 20
-16.247
 21
-16.13
  0
LINE
  8
0
 10
29.536
 11
29.477
 20
-16.13
 21
-16.005
  0
LINE
  8
0
 10
29.477
 11
29.435
 20
-16.005
 21
-15.874
  0
LINE
  8
0
 10
29.435
 11
29.409
 20
-15.874
 21
-15.738
  0
LINE
  8
0
 10
29.409
 11
29.4
 20
-15.738
 21
-15.6
  0
LINE
  8
0
 10
29.4
 11
29.409
 20
17.6
 21
17.738
  0
LINE
  8
0
 10
29.409
 11
29.435
 20
17.738
 21
17.874
  0
LINE
  8
0
 10
29.435
 11
29.477
 20
17.874
 21
18.005
  0
LINE
  8
0
 10
29.477
 11
29.536
 20
18.005
 21
18.13
  0
LINE
  8
0
 10
29.536
 11
29.61
 20
18.13
 21
18.247
  0
LINE
  8
0
 10
29.61
 11
29.698
 20
18.247
 21
18.353
  0
LINE
  8
0
 10
29.698
 11
29.799
 20
18.353
 21
18.448
  0
LINE
  8
0
 10
29.799
 11
29.911
 20
18.448
 21
18.529
  0
LINE
  8
0
 10
29.911
 11
30.032
 20
18.529
 21
18.595
  0
LINE
  8
0
 10
30.032
 11
30.16
 20
18.595
 21
18.646
  0
LINE
  8
0
 10
30.16
 11
30.294
 20
18.646
 21
18.681
  0
LINE
  8
0
 10
30.294
 11
30.431
 20
18.681
 21
18.698
  0
LINE
  8
0
 10
30.431
 11
30.569
 20
18.698
 21
18.698
  0
LINE
  8
0
 10
30.569
 11
30.706
 20
18.698
 21
18.681
  0
LINE
  8
0
 10
30.706
 11
30.84
 20
18.681
 21
18.646
  0
LINE
  8
0
 10
30.84
 11
30.968
 20
18.646
 21
18.595
  0
LINE
  8
0
 10
30.968
 11
31.089
 20
18.595
 21
18.529
  0
LINE
  8
0
 10
31.089
 11
31.201
 20
18.529
 21
18.448
  0
LINE
  8
0
 10
31.201
 11
31.302
 20
18.448
 21
18.353
  0
LINE
  8
0
 10
31.302
 11
31.39
 20
18.353
 21
18.247
  0
LINE
  8
0
 10
31.39
 11
31.464
 20
18.247
 21
18.13
  0
LINE
  8
0
 10
31.464
 11
31.523
 20
18.13
 21
18.005
  0
LINE
  8
0
 10
31.523
 11
31.565
 20
18.005
 21
17.874
  0
LINE
  8
0
 10
31.565
 11
31.591
 20
17.874
 21
17.738
  0
LINE
  8
0
 10
31.591
 11
31.6
 20
17.738
 21
17.6
  0
LINE
  8
0
 10
31.6
 11
31.591
 20
17.6
 21
17.462
  0
LINE
  8
0
 10
31.591
 11
31.565
 20
17.462
 21
17.326
  0
LINE
  8
0
 10
31.565
 11
31.523
 20
17.326
 21
17.195
  0
LINE
  8
0
 10
31.523
 11
31.464
 20
17.195
 21
17.07
  0
LINE
  8
0
 10
31.464
 11
31.39
 20
17.07
 21
16.953
  0
LINE
  8
0
 10
31.39
 11
31.302
 20
16.953
 21
16.847
  0
LINE
  8
0
 10
31.302
 11
31.201
 20
16.847
 21
16.752
  0
LINE
  8
0
 10
31.201
 11
31.089
 20
16.752
 21
16.671
  0
LINE
  8
0
 10
31.089
 11
30.968
 20
16.671
 21
16.605
  0
LINE
  8
0
 10
30.968
 11
30.84
 20
16.605
 21
16.554
  0
LINE
  8
0
 10
30.84
 11
30.706
 20
16.554
 21
16.519
  0
LINE
  8
0
 10
30.706
 11
30.569
 20
16.519
 21
16.502
  0
LINE
  8
0
 10
30.569
 11
30.431
 20
16.502
 21
16.502
  0
LINE
  8
0
 10
30.431
 11
30.294
 20
16.502
 21
16.519
  0
LINE
  8
0
 10
30.294
 11
30.16
 20
16.519
 21
16.554
  0
LINE
  8
0
 10
30.16
 11
30.032
 20
16.554
 21
16.605
  0
LINE
  8
0
 10
30.032
 11
29.911
 20
16.605
 21
16.671
  0
LINE
  8
0
 10
29.911
 11
29.799
 20
16.671
 21
16.752
  0
LINE
  8
0
 10
29.799
 11
29.698
 20
16.752
 21
16.847
  0
LINE
  8
0
 10
29.698
 11
29.61
 20
16.847
 21
16.953
  0
LINE
  8
0
 10
29.61
 11
29.536
 20
16.953
 21
17.07
  0
LINE
  8
0
 10
29.536
 11
29.477
 20
17.07
 21
17.195
  0
LINE
  8
0
 10
29.477
 11
29.435
 20
17.195
 21
17.326
  0
LINE
  8
0
 10
29.435
 11
29.409
 20
17.326
 21
17.462
  0
LINE
  8
0
 10
29.409
 11
29.4
 20
17.462
 21
17.6
  0
ENDSEC
  0
SECTION
  2
OBJECTS
  0
DICTIONARY
  0
ENDSEC
  0
EOF
