solid OpenSCAD_Model
  facet normal -0.959493 -0.281733 0
    outer loop
      vertex 3.25 0 0
      vertex 2.73407 1.75708 10
      vertex 2.73407 1.75708 0
    endloop
  endfacet
  facet normal -0.959493 -0.281733 0
    outer loop
      vertex 2.73407 1.75708 10
      vertex 3.25 0 0
      vertex 3.25 0 10
    endloop
  endfacet
  facet normal 1 -0 0
    outer loop
      vertex -3.11835 -0.915631 10
      vertex -3.11835 0.915631 0
      vertex -3.11835 0.915631 10
    endloop
  endfacet
  facet normal 1 0 0
    outer loop
      vertex -3.11835 0.915631 0
      vertex -3.11835 -0.915631 10
      vertex -3.11835 -0.915631 0
    endloop
  endfacet
  facet normal -0.142315 -0.989821 0
    outer loop
      vertex -0.462523 3.21692 0
      vertex 1.3501 2.9563 10
      vertex -0.462523 3.21692 10
    endloop
  endfacet
  facet normal -0.142315 -0.989821 -0
    outer loop
      vertex 1.3501 2.9563 10
      vertex -0.462523 3.21692 0
      vertex 1.3501 2.9563 0
    endloop
  endfacet
  facet normal -0.654861 -0.75575 0
    outer loop
      vertex 1.3501 2.9563 0
      vertex 2.73407 1.75708 10
      vertex 1.3501 2.9563 10
    endloop
  endfacet
  facet normal -0.654861 -0.75575 -0
    outer loop
      vertex 2.73407 1.75708 10
      vertex 1.3501 2.9563 0
      vertex 2.73407 1.75708 0
    endloop
  endfacet
  facet normal 0.415415 -0.909632 0
    outer loop
      vertex -2.1283 2.45619 0
      vertex -0.462523 3.21692 10
      vertex -2.1283 2.45619 10
    endloop
  endfacet
  facet normal 0.415415 -0.909632 0
    outer loop
      vertex -0.462523 3.21692 10
      vertex -2.1283 2.45619 0
      vertex -0.462523 3.21692 0
    endloop
  endfacet
  facet normal -0.654861 0.75575 0
    outer loop
      vertex 2.73407 -1.75708 0
      vertex 1.64589 -2.7 10
      vertex 2.73407 -1.75708 10
    endloop
  endfacet
  facet normal -0.654861 0.75575 0
    outer loop
      vertex 1.64589 -2.7 10
      vertex 2.73407 -1.75708 0
      vertex 1.64589 -2.7 0
    endloop
  endfacet
  facet normal 0.841254 0.540641 0
    outer loop
      vertex -2.1283 -2.45619 10
      vertex -3.11835 -0.915631 0
      vertex -3.11835 -0.915631 10
    endloop
  endfacet
  facet normal 0.841254 0.540641 0
    outer loop
      vertex -3.11835 -0.915631 0
      vertex -2.1283 -2.45619 10
      vertex -2.1283 -2.45619 0
    endloop
  endfacet
  facet normal 0.841254 -0.540641 0
    outer loop
      vertex -3.11835 0.915631 10
      vertex -2.1283 2.45619 0
      vertex -2.1283 2.45619 10
    endloop
  endfacet
  facet normal 0.841254 -0.540641 0
    outer loop
      vertex -2.1283 2.45619 0
      vertex -3.11835 0.915631 10
      vertex -3.11835 0.915631 0
    endloop
  endfacet
  facet normal -0.959493 0.281733 0
    outer loop
      vertex 2.73407 -1.75708 0
      vertex 3.25 0 10
      vertex 3.25 0 0
    endloop
  endfacet
  facet normal -0.959493 0.281733 0
    outer loop
      vertex 3.25 0 10
      vertex 2.73407 -1.75708 0
      vertex 2.73407 -1.75708 10
    endloop
  endfacet
  facet normal 0.415415 0.909632 -0
    outer loop
      vertex -1.59442 -2.7 0
      vertex -2.1283 -2.45619 10
      vertex -1.59442 -2.7 10
    endloop
  endfacet
  facet normal 0.415415 0.909632 0
    outer loop
      vertex -2.1283 -2.45619 10
      vertex -1.59442 -2.7 0
      vertex -2.1283 -2.45619 0
    endloop
  endfacet
  facet normal 0 1 -0
    outer loop
      vertex 1.64589 -2.7 0
      vertex -1.59442 -2.7 10
      vertex 1.64589 -2.7 10
    endloop
  endfacet
  facet normal 0 1 0
    outer loop
      vertex -1.59442 -2.7 10
      vertex 1.64589 -2.7 0
      vertex -1.59442 -2.7 0
    endloop
  endfacet
  facet normal 0.924087 0.0971255 0.369635
    outer loop
      vertex 11.7378 2.49494 0
      vertex 8 0 10
      vertex 12 0 0
    endloop
  endfacet
  facet normal 0 -0.929177 0.369635
    outer loop
      vertex -1.25434 -11.9343 0
      vertex 0.836228 -7.95618 10
      vertex -0.836228 -7.95618 10
    endloop
  endfacet
  facet normal 0 -0.929177 0.369635
    outer loop
      vertex 0.836228 -7.95618 10
      vertex -1.25434 -11.9343 0
      vertex 1.25434 -11.9343 0
    endloop
  endfacet
  facet normal 0.546156 0.75172 0.369635
    outer loop
      vertex 6 10.3923 0
      vertex 5.35304 5.94516 10
      vertex 8.02957 8.91774 0
    endloop
  endfacet
  facet normal 0.377931 0.848845 0.369635
    outer loop
      vertex 6 10.3923 0
      vertex 2.47214 7.60845 10
      vertex 4 6.9282 10
    endloop
  endfacet
  facet normal -0.804691 0.464588 0.369635
    outer loop
      vertex -9.7082 7.05342 0
      vertex -10.9625 4.88084 0
      vertex -6.47214 4.70228 10
    endloop
  endfacet
  facet normal -0.193187 0.908872 0.369635
    outer loop
      vertex -1.25434 11.9343 0
      vertex -3.7082 11.4127 0
      vertex -0.836228 7.95618 10
    endloop
  endfacet
  facet normal -0.37793 0.848846 0.369635
    outer loop
      vertex -3.7082 11.4127 0
      vertex -6 10.3923 0
      vertex -4 6.9282 10
    endloop
  endfacet
  facet normal -0.690513 0.621741 0.369635
    outer loop
      vertex -5.35304 5.94516 10
      vertex -8.02957 8.91774 0
      vertex -6.47214 4.70228 10
    endloop
  endfacet
  facet normal -0.924087 0.0971255 0.369635
    outer loop
      vertex -11.7378 2.49494 0
      vertex -12 1.46953e-015 0
      vertex -8 9.79685e-016 10
    endloop
  endfacet
  facet normal -0.8837 -0.287132 0.369635
    outer loop
      vertex -7.82518 -1.66329 10
      vertex -10.9625 -4.88084 0
      vertex -7.30836 -3.25389 10
    endloop
  endfacet
  facet normal 0.37793 0.848846 0.369635
    outer loop
      vertex 3.7082 11.4127 0
      vertex 2.47214 7.60845 10
      vertex 6 10.3923 0
    endloop
  endfacet
  facet normal 0.690513 0.621741 0.369635
    outer loop
      vertex 8.02957 8.91774 0
      vertex 6.47214 4.70228 10
      vertex 9.7082 7.05342 0
    endloop
  endfacet
  facet normal 0.8837 -0.287132 0.369635
    outer loop
      vertex 7.82518 -1.66329 10
      vertex 7.30836 -3.25389 10
      vertex 11.7378 -2.49494 0
    endloop
  endfacet
  facet normal -0.690513 0.621741 0.369635
    outer loop
      vertex -8.02957 8.91774 0
      vertex -9.7082 7.05342 0
      vertex -6.47214 4.70228 10
    endloop
  endfacet
  facet normal -0.377931 0.848845 0.369635
    outer loop
      vertex -3.7082 11.4127 0
      vertex -4 6.9282 10
      vertex -2.47214 7.60845 10
    endloop
  endfacet
  facet normal 0 0.929177 0.369635
    outer loop
      vertex 0.836228 7.95618 10
      vertex -1.25434 11.9343 0
      vertex -0.836228 7.95618 10
    endloop
  endfacet
  facet normal -0.8837 0.287131 0.369635
    outer loop
      vertex -10.9625 4.88084 0
      vertex -11.7378 2.49494 0
      vertex -7.82518 1.66329 10
    endloop
  endfacet
  facet normal -0.924087 0.0971253 0.369635
    outer loop
      vertex -7.82518 1.66329 10
      vertex -11.7378 2.49494 0
      vertex -8 9.79685e-016 10
    endloop
  endfacet
  facet normal -0.546157 -0.75172 0.369635
    outer loop
      vertex -5.35304 -5.94516 10
      vertex -8.02957 -8.91774 0
      vertex -4 -6.9282 10
    endloop
  endfacet
  facet normal 0 0 -1
    outer loop
      vertex 3.25 0 0
      vertex 12 0 0
      vertex 11.7378 -2.49494 0
    endloop
  endfacet
  facet normal 0 0 -1
    outer loop
      vertex 2.73407 -1.75708 0
      vertex 11.7378 -2.49494 0
      vertex 10.9625 -4.88084 0
    endloop
  endfacet
  facet normal 0 0 -1
    outer loop
      vertex 12 0 0
      vertex 3.25 0 0
      vertex 11.7378 2.49494 0
    endloop
  endfacet
  facet normal 0 0 -1
    outer loop
      vertex 2.73407 -1.75708 0
      vertex 10.9625 -4.88084 0
      vertex 9.7082 -7.05342 0
    endloop
  endfacet
  facet normal 0 0 -1
    outer loop
      vertex 2.73407 1.75708 0
      vertex 11.7378 2.49494 0
      vertex 3.25 0 0
    endloop
  endfacet
  facet normal 0 0 -1
    outer loop
      vertex 2.73407 -1.75708 0
      vertex 9.7082 -7.05342 0
      vertex 8.02957 -8.91774 0
    endloop
  endfacet
  facet normal -0 0 -1
    outer loop
      vertex 11.7378 2.49494 0
      vertex 2.73407 1.75708 0
      vertex 10.9625 4.88084 0
    endloop
  endfacet
  facet normal 0 0 -1
    outer loop
      vertex 1.64589 -2.7 0
      vertex 8.02957 -8.91774 0
      vertex 6 -10.3923 0
    endloop
  endfacet
  facet normal -0 0 -1
    outer loop
      vertex 10.9625 4.88084 0
      vertex 2.73407 1.75708 0
      vertex 9.7082 7.05342 0
    endloop
  endfacet
  facet normal 0 0 -1
    outer loop
      vertex 1.64589 -2.7 0
      vertex 6 -10.3923 0
      vertex 3.7082 -11.4127 0
    endloop
  endfacet
  facet normal -0 0 -1
    outer loop
      vertex 9.7082 7.05342 0
      vertex 2.73407 1.75708 0
      vertex 8.02957 8.91774 0
    endloop
  endfacet
  facet normal 0 0 -1
    outer loop
      vertex 1.3501 2.9563 0
      vertex 8.02957 8.91774 0
      vertex 2.73407 1.75708 0
    endloop
  endfacet
  facet normal 0 0 -1
    outer loop
      vertex 11.7378 -2.49494 0
      vertex 2.73407 -1.75708 0
      vertex 3.25 0 0
    endloop
  endfacet
  facet normal 0 0 -1
    outer loop
      vertex 8.02957 -8.91774 0
      vertex 1.64589 -2.7 0
      vertex 2.73407 -1.75708 0
    endloop
  endfacet
  facet normal 0 0 -1
    outer loop
      vertex 1.25434 -11.9343 0
      vertex 1.64589 -2.7 0
      vertex 3.7082 -11.4127 0
    endloop
  endfacet
  facet normal 0 0 -1
    outer loop
      vertex -1.25434 -11.9343 0
      vertex 1.64589 -2.7 0
      vertex 1.25434 -11.9343 0
    endloop
  endfacet
  facet normal 0 0 -1
    outer loop
      vertex -1.25434 -11.9343 0
      vertex -1.59442 -2.7 0
      vertex 1.64589 -2.7 0
    endloop
  endfacet
  facet normal 0 0 -1
    outer loop
      vertex -3.7082 -11.4127 0
      vertex -1.59442 -2.7 0
      vertex -1.25434 -11.9343 0
    endloop
  endfacet
  facet normal 0 0 -1
    outer loop
      vertex -6 -10.3923 0
      vertex -1.59442 -2.7 0
      vertex -3.7082 -11.4127 0
    endloop
  endfacet
  facet normal 0 0 -1
    outer loop
      vertex -8.02957 -8.91774 0
      vertex -2.1283 -2.45619 0
      vertex -6 -10.3923 0
    endloop
  endfacet
  facet normal -0 0 -1
    outer loop
      vertex -1.59442 -2.7 0
      vertex -6 -10.3923 0
      vertex -2.1283 -2.45619 0
    endloop
  endfacet
  facet normal -0 0 -1
    outer loop
      vertex 8.02957 8.91774 0
      vertex 1.3501 2.9563 0
      vertex 6 10.3923 0
    endloop
  endfacet
  facet normal -0 0 -1
    outer loop
      vertex 6 10.3923 0
      vertex 1.3501 2.9563 0
      vertex 3.7082 11.4127 0
    endloop
  endfacet
  facet normal 0 0 -1
    outer loop
      vertex 1.3501 2.9563 0
      vertex 1.25434 11.9343 0
      vertex 3.7082 11.4127 0
    endloop
  endfacet
  facet normal 0 0 -1
    outer loop
      vertex -0.462523 3.21692 0
      vertex 1.25434 11.9343 0
      vertex 1.3501 2.9563 0
    endloop
  endfacet
  facet normal 0 0 -1
    outer loop
      vertex -0.462523 3.21692 0
      vertex -1.25434 11.9343 0
      vertex 1.25434 11.9343 0
    endloop
  endfacet
  facet normal 0 0 -1
    outer loop
      vertex -6 10.3923 0
      vertex -0.462523 3.21692 0
      vertex -2.1283 2.45619 0
    endloop
  endfacet
  facet normal 0 0 -1
    outer loop
      vertex -9.7082 7.05342 0
      vertex -2.1283 2.45619 0
      vertex -3.11835 0.915631 0
    endloop
  endfacet
  facet normal 0 0 -1
    outer loop
      vertex -0.462523 3.21692 0
      vertex -3.7082 11.4127 0
      vertex -1.25434 11.9343 0
    endloop
  endfacet
  facet normal 0 0 -1
    outer loop
      vertex -9.7082 -7.05342 0
      vertex -2.1283 -2.45619 0
      vertex -8.02957 -8.91774 0
    endloop
  endfacet
  facet normal -0 0 -1
    outer loop
      vertex -2.1283 -2.45619 0
      vertex -9.7082 -7.05342 0
      vertex -3.11835 -0.915631 0
    endloop
  endfacet
  facet normal 0 0 -1
    outer loop
      vertex -0.462523 3.21692 0
      vertex -6 10.3923 0
      vertex -3.7082 11.4127 0
    endloop
  endfacet
  facet normal 0 0 -1
    outer loop
      vertex -10.9625 -4.88084 0
      vertex -3.11835 -0.915631 0
      vertex -9.7082 -7.05342 0
    endloop
  endfacet
  facet normal 0 0 -1
    outer loop
      vertex -2.1283 2.45619 0
      vertex -8.02957 8.91774 0
      vertex -6 10.3923 0
    endloop
  endfacet
  facet normal 0 0 -1
    outer loop
      vertex -11.7378 -2.49494 0
      vertex -3.11835 -0.915631 0
      vertex -10.9625 -4.88084 0
    endloop
  endfacet
  facet normal 0 0 -1
    outer loop
      vertex -2.1283 2.45619 0
      vertex -9.7082 7.05342 0
      vertex -8.02957 8.91774 0
    endloop
  endfacet
  facet normal 0 0 -1
    outer loop
      vertex -12 1.46953e-015 0
      vertex -3.11835 -0.915631 0
      vertex -11.7378 -2.49494 0
    endloop
  endfacet
  facet normal 0 0 -1
    outer loop
      vertex -3.11835 0.915631 0
      vertex -10.9625 4.88084 0
      vertex -9.7082 7.05342 0
    endloop
  endfacet
  facet normal 0 0 -1
    outer loop
      vertex -3.11835 -0.915631 0
      vertex -12 1.46953e-015 0
      vertex -3.11835 0.915631 0
    endloop
  endfacet
  facet normal 0 0 -1
    outer loop
      vertex -3.11835 0.915631 0
      vertex -11.7378 2.49494 0
      vertex -10.9625 4.88084 0
    endloop
  endfacet
  facet normal -0 0 -1
    outer loop
      vertex -3.11835 0.915631 0
      vertex -12 1.46953e-015 0
      vertex -11.7378 2.49494 0
    endloop
  endfacet
  facet normal 0.690513 -0.621741 0.369635
    outer loop
      vertex 6.47214 -4.70228 10
      vertex 5.35304 -5.94516 10
      vertex 8.02957 -8.91774 0
    endloop
  endfacet
  facet normal 0.804691 -0.464588 0.369635
    outer loop
      vertex 7.30836 -3.25389 10
      vertex 6.47214 -4.70228 10
      vertex 9.7082 -7.05342 0
    endloop
  endfacet
  facet normal 0.8837 0.287131 0.369635
    outer loop
      vertex 10.9625 4.88084 0
      vertex 7.82518 1.66329 10
      vertex 11.7378 2.49494 0
    endloop
  endfacet
  facet normal 0.546157 0.75172 0.369635
    outer loop
      vertex 6 10.3923 0
      vertex 4 6.9282 10
      vertex 5.35304 5.94516 10
    endloop
  endfacet
  facet normal -0.546156 0.75172 0.369635
    outer loop
      vertex -6 10.3923 0
      vertex -8.02957 8.91774 0
      vertex -4 6.9282 10
    endloop
  endfacet
  facet normal -0.546157 0.75172 0.369635
    outer loop
      vertex -4 6.9282 10
      vertex -8.02957 8.91774 0
      vertex -5.35304 5.94516 10
    endloop
  endfacet
  facet normal 0.193187 0.908872 0.369635
    outer loop
      vertex 3.7082 11.4127 0
      vertex 0.836228 7.95618 10
      vertex 2.47214 7.60845 10
    endloop
  endfacet
  facet normal -0.804691 0.464588 0.369635
    outer loop
      vertex -6.47214 4.70228 10
      vertex -10.9625 4.88084 0
      vertex -7.30836 3.25389 10
    endloop
  endfacet
  facet normal 0 0 1
    outer loop
      vertex 3.25 0 10
      vertex 8 0 10
      vertex 7.82518 1.66329 10
    endloop
  endfacet
  facet normal -0 0 1
    outer loop
      vertex 2.73407 1.75708 10
      vertex 7.82518 1.66329 10
      vertex 7.30836 3.25389 10
    endloop
  endfacet
  facet normal 0 0 1
    outer loop
      vertex 8 0 10
      vertex 3.25 0 10
      vertex 7.82518 -1.66329 10
    endloop
  endfacet
  facet normal 0 0 1
    outer loop
      vertex 2.73407 1.75708 10
      vertex 7.30836 3.25389 10
      vertex 6.47214 4.70228 10
    endloop
  endfacet
  facet normal 0 0 1
    outer loop
      vertex 2.73407 -1.75708 10
      vertex 7.82518 -1.66329 10
      vertex 3.25 0 10
    endloop
  endfacet
  facet normal 0 0 1
    outer loop
      vertex 2.73407 1.75708 10
      vertex 6.47214 4.70228 10
      vertex 5.35304 5.94516 10
    endloop
  endfacet
  facet normal 0 0 1
    outer loop
      vertex 7.82518 -1.66329 10
      vertex 2.73407 -1.75708 10
      vertex 7.30836 -3.25389 10
    endloop
  endfacet
  facet normal 0 0 1
    outer loop
      vertex 1.3501 2.9563 10
      vertex 5.35304 5.94516 10
      vertex 4 6.9282 10
    endloop
  endfacet
  facet normal 0 0 1
    outer loop
      vertex 7.30836 -3.25389 10
      vertex 2.73407 -1.75708 10
      vertex 6.47214 -4.70228 10
    endloop
  endfacet
  facet normal 0 0 1
    outer loop
      vertex 6.47214 -4.70228 10
      vertex 2.73407 -1.75708 10
      vertex 5.35304 -5.94516 10
    endloop
  endfacet
  facet normal 0 0 1
    outer loop
      vertex 7.82518 1.66329 10
      vertex 2.73407 1.75708 10
      vertex 3.25 0 10
    endloop
  endfacet
  facet normal 0 0 1
    outer loop
      vertex 1.3501 2.9563 10
      vertex 4 6.9282 10
      vertex 2.47214 7.60845 10
    endloop
  endfacet
  facet normal 0 0 1
    outer loop
      vertex 5.35304 5.94516 10
      vertex 1.3501 2.9563 10
      vertex 2.73407 1.75708 10
    endloop
  endfacet
  facet normal 0 0 1
    outer loop
      vertex 0.836228 7.95618 10
      vertex 1.3501 2.9563 10
      vertex 2.47214 7.60845 10
    endloop
  endfacet
  facet normal 0 0 1
    outer loop
      vertex 0.836228 7.95618 10
      vertex -0.462523 3.21692 10
      vertex 1.3501 2.9563 10
    endloop
  endfacet
  facet normal -0 0 1
    outer loop
      vertex -0.836228 7.95618 10
      vertex -0.462523 3.21692 10
      vertex 0.836228 7.95618 10
    endloop
  endfacet
  facet normal -0 0 1
    outer loop
      vertex -2.47214 7.60845 10
      vertex -0.462523 3.21692 10
      vertex -0.836228 7.95618 10
    endloop
  endfacet
  facet normal -0 0 1
    outer loop
      vertex -4 6.9282 10
      vertex -0.462523 3.21692 10
      vertex -2.47214 7.60845 10
    endloop
  endfacet
  facet normal 0 0 1
    outer loop
      vertex -0.462523 3.21692 10
      vertex -4 6.9282 10
      vertex -2.1283 2.45619 10
    endloop
  endfacet
  facet normal -0 0 1
    outer loop
      vertex -6.47214 4.70228 10
      vertex -2.1283 2.45619 10
      vertex -5.35304 5.94516 10
    endloop
  endfacet
  facet normal -0 0 1
    outer loop
      vertex -5.35304 5.94516 10
      vertex -2.1283 2.45619 10
      vertex -4 6.9282 10
    endloop
  endfacet
  facet normal -0 0 1
    outer loop
      vertex 1.64589 -2.7 10
      vertex 5.35304 -5.94516 10
      vertex 2.73407 -1.75708 10
    endloop
  endfacet
  facet normal 0 0 1
    outer loop
      vertex 5.35304 -5.94516 10
      vertex 1.64589 -2.7 10
      vertex 4 -6.9282 10
    endloop
  endfacet
  facet normal 0 0 1
    outer loop
      vertex 4 -6.9282 10
      vertex 1.64589 -2.7 10
      vertex 2.47214 -7.60845 10
    endloop
  endfacet
  facet normal 0 0 1
    outer loop
      vertex 1.64589 -2.7 10
      vertex 0.836228 -7.95618 10
      vertex 2.47214 -7.60845 10
    endloop
  endfacet
  facet normal 0 0 1
    outer loop
      vertex 1.64589 -2.7 10
      vertex -0.836228 -7.95618 10
      vertex 0.836228 -7.95618 10
    endloop
  endfacet
  facet normal -0 0 1
    outer loop
      vertex -1.59442 -2.7 10
      vertex -0.836228 -7.95618 10
      vertex 1.64589 -2.7 10
    endloop
  endfacet
  facet normal 0 0 1
    outer loop
      vertex -4 -6.9282 10
      vertex -1.59442 -2.7 10
      vertex -2.1283 -2.45619 10
    endloop
  endfacet
  facet normal 0 0 1
    outer loop
      vertex -1.59442 -2.7 10
      vertex -2.47214 -7.60845 10
      vertex -0.836228 -7.95618 10
    endloop
  endfacet
  facet normal 0 0 1
    outer loop
      vertex -6.47214 -4.70228 10
      vertex -2.1283 -2.45619 10
      vertex -3.11835 -0.915631 10
    endloop
  endfacet
  facet normal 0 0 1
    outer loop
      vertex -2.1283 2.45619 10
      vertex -6.47214 4.70228 10
      vertex -3.11835 0.915631 10
    endloop
  endfacet
  facet normal 0 0 1
    outer loop
      vertex -1.59442 -2.7 10
      vertex -4 -6.9282 10
      vertex -2.47214 -7.60845 10
    endloop
  endfacet
  facet normal -0 0 1
    outer loop
      vertex -7.30836 3.25389 10
      vertex -3.11835 0.915631 10
      vertex -6.47214 4.70228 10
    endloop
  endfacet
  facet normal 0 0 1
    outer loop
      vertex -2.1283 -2.45619 10
      vertex -5.35304 -5.94516 10
      vertex -4 -6.9282 10
    endloop
  endfacet
  facet normal -0 0 1
    outer loop
      vertex -7.82518 1.66329 10
      vertex -3.11835 0.915631 10
      vertex -7.30836 3.25389 10
    endloop
  endfacet
  facet normal 0 0 1
    outer loop
      vertex -2.1283 -2.45619 10
      vertex -6.47214 -4.70228 10
      vertex -5.35304 -5.94516 10
    endloop
  endfacet
  facet normal 0 0 1
    outer loop
      vertex -8 9.79685e-016 10
      vertex -3.11835 0.915631 10
      vertex -7.82518 1.66329 10
    endloop
  endfacet
  facet normal 0 0 1
    outer loop
      vertex -3.11835 -0.915631 10
      vertex -7.30836 -3.25389 10
      vertex -6.47214 -4.70228 10
    endloop
  endfacet
  facet normal 0 0 1
    outer loop
      vertex -3.11835 0.915631 10
      vertex -8 9.79685e-016 10
      vertex -3.11835 -0.915631 10
    endloop
  endfacet
  facet normal 0 0 1
    outer loop
      vertex -3.11835 -0.915631 10
      vertex -7.82518 -1.66329 10
      vertex -7.30836 -3.25389 10
    endloop
  endfacet
  facet normal 0 0 1
    outer loop
      vertex -3.11835 -0.915631 10
      vertex -8 9.79685e-016 10
      vertex -7.82518 -1.66329 10
    endloop
  endfacet
  facet normal -0.8837 0.287132 0.369635
    outer loop
      vertex -7.30836 3.25389 10
      vertex -10.9625 4.88084 0
      vertex -7.82518 1.66329 10
    endloop
  endfacet
  facet normal -0.193187 -0.908872 0.369635
    outer loop
      vertex -1.25434 -11.9343 0
      vertex -2.47214 -7.60845 10
      vertex -3.7082 -11.4127 0
    endloop
  endfacet
  facet normal -0.193187 -0.908872 0.369635
    outer loop
      vertex -2.47214 -7.60845 10
      vertex -1.25434 -11.9343 0
      vertex -0.836228 -7.95618 10
    endloop
  endfacet
  facet normal -0.804691 -0.464588 0.369635
    outer loop
      vertex -7.30836 -3.25389 10
      vertex -9.7082 -7.05342 0
      vertex -6.47214 -4.70228 10
    endloop
  endfacet
  facet normal 0.37793 -0.848846 0.369635
    outer loop
      vertex 6 -10.3923 0
      vertex 2.47214 -7.60845 10
      vertex 3.7082 -11.4127 0
    endloop
  endfacet
  facet normal 0.193187 -0.908872 0.369635
    outer loop
      vertex 3.7082 -11.4127 0
      vertex 0.836228 -7.95618 10
      vertex 1.25434 -11.9343 0
    endloop
  endfacet
  facet normal 0.804691 -0.464588 0.369635
    outer loop
      vertex 10.9625 -4.88084 0
      vertex 7.30836 -3.25389 10
      vertex 9.7082 -7.05342 0
    endloop
  endfacet
  facet normal 0.690513 -0.621741 0.369635
    outer loop
      vertex 9.7082 -7.05342 0
      vertex 6.47214 -4.70228 10
      vertex 8.02957 -8.91774 0
    endloop
  endfacet
  facet normal 0.8837 -0.287131 0.369635
    outer loop
      vertex 11.7378 -2.49494 0
      vertex 7.30836 -3.25389 10
      vertex 10.9625 -4.88084 0
    endloop
  endfacet
  facet normal 0.690513 0.621741 0.369635
    outer loop
      vertex 8.02957 8.91774 0
      vertex 5.35304 5.94516 10
      vertex 6.47214 4.70228 10
    endloop
  endfacet
  facet normal 0.8837 0.287132 0.369635
    outer loop
      vertex 10.9625 4.88084 0
      vertex 7.30836 3.25389 10
      vertex 7.82518 1.66329 10
    endloop
  endfacet
  facet normal 0.804691 0.464588 0.369635
    outer loop
      vertex 10.9625 4.88084 0
      vertex 6.47214 4.70228 10
      vertex 7.30836 3.25389 10
    endloop
  endfacet
  facet normal 0.804691 0.464588 0.369635
    outer loop
      vertex 9.7082 7.05342 0
      vertex 6.47214 4.70228 10
      vertex 10.9625 4.88084 0
    endloop
  endfacet
  facet normal 0.924087 0.0971253 0.369635
    outer loop
      vertex 11.7378 2.49494 0
      vertex 7.82518 1.66329 10
      vertex 8 0 10
    endloop
  endfacet
  facet normal -0.193187 0.908872 0.369635
    outer loop
      vertex -0.836228 7.95618 10
      vertex -3.7082 11.4127 0
      vertex -2.47214 7.60845 10
    endloop
  endfacet
  facet normal 0.193187 0.908872 0.369635
    outer loop
      vertex 1.25434 11.9343 0
      vertex 0.836228 7.95618 10
      vertex 3.7082 11.4127 0
    endloop
  endfacet
  facet normal 0 0.929177 0.369635
    outer loop
      vertex 1.25434 11.9343 0
      vertex -1.25434 11.9343 0
      vertex 0.836228 7.95618 10
    endloop
  endfacet
  facet normal -0.37793 -0.848846 0.369635
    outer loop
      vertex -2.47214 -7.60845 10
      vertex -6 -10.3923 0
      vertex -3.7082 -11.4127 0
    endloop
  endfacet
  facet normal -0.546156 -0.75172 0.369635
    outer loop
      vertex -4 -6.9282 10
      vertex -8.02957 -8.91774 0
      vertex -6 -10.3923 0
    endloop
  endfacet
  facet normal -0.8837 -0.287131 0.369635
    outer loop
      vertex -7.82518 -1.66329 10
      vertex -11.7378 -2.49494 0
      vertex -10.9625 -4.88084 0
    endloop
  endfacet
  facet normal -0.924087 -0.0971253 0.369635
    outer loop
      vertex -12 1.46953e-015 0
      vertex -7.82518 -1.66329 10
      vertex -8 9.79685e-016 10
    endloop
  endfacet
  facet normal -0.924087 -0.0971255 0.369635
    outer loop
      vertex -7.82518 -1.66329 10
      vertex -12 1.46953e-015 0
      vertex -11.7378 -2.49494 0
    endloop
  endfacet
  facet normal -0.804691 -0.464588 0.369635
    outer loop
      vertex -7.30836 -3.25389 10
      vertex -10.9625 -4.88084 0
      vertex -9.7082 -7.05342 0
    endloop
  endfacet
  facet normal 0.546156 -0.75172 0.369635
    outer loop
      vertex 8.02957 -8.91774 0
      vertex 5.35304 -5.94516 10
      vertex 6 -10.3923 0
    endloop
  endfacet
  facet normal 0.924087 -0.0971255 0.369635
    outer loop
      vertex 12 0 0
      vertex 7.82518 -1.66329 10
      vertex 11.7378 -2.49494 0
    endloop
  endfacet
  facet normal 0.924087 -0.0971253 0.369635
    outer loop
      vertex 8 0 10
      vertex 7.82518 -1.66329 10
      vertex 12 0 0
    endloop
  endfacet
  facet normal 0.193187 -0.908872 0.369635
    outer loop
      vertex 2.47214 -7.60845 10
      vertex 0.836228 -7.95618 10
      vertex 3.7082 -11.4127 0
    endloop
  endfacet
  facet normal -0.377931 -0.848845 0.369635
    outer loop
      vertex -4 -6.9282 10
      vertex -6 -10.3923 0
      vertex -2.47214 -7.60845 10
    endloop
  endfacet
  facet normal -0.690513 -0.621741 0.369635
    outer loop
      vertex -6.47214 -4.70228 10
      vertex -9.7082 -7.05342 0
      vertex -8.02957 -8.91774 0
    endloop
  endfacet
  facet normal -0.690513 -0.621741 0.369635
    outer loop
      vertex -6.47214 -4.70228 10
      vertex -8.02957 -8.91774 0
      vertex -5.35304 -5.94516 10
    endloop
  endfacet
  facet normal 0.377931 -0.848845 0.369635
    outer loop
      vertex 4 -6.9282 10
      vertex 2.47214 -7.60845 10
      vertex 6 -10.3923 0
    endloop
  endfacet
  facet normal 0.546157 -0.75172 0.369635
    outer loop
      vertex 5.35304 -5.94516 10
      vertex 4 -6.9282 10
      vertex 6 -10.3923 0
    endloop
  endfacet
endsolid OpenSCAD_Model
