  0
SECTION
  2
HEADER
  9
$ACADVER
  1
AC1018
  9
$ACADMAINTVER
 70
     0
  9
$DWGCODEPAGE
  3
ANSI_932
  9
$INSBASE
 10
0.0
 20
0.0
 30
0.0
  9
$EXTMIN
 10
1.000000000000000E+20
 20
1.000000000000000E+20
 30
1.000000000000000E+20
  9
$EXTMAX
 10
-1.000000000000000E+20
 20
-1.000000000000000E+20
 30
-1.000000000000000E+20
  9
$LIMMIN
 10
0.0
 20
0.0
  9
$LIMMAX
 10
12.0
 20
9.0
  9
$ORTHOMODE
 70
     0
  9
$REGENMODE
 70
     1
  9
$FILLMODE
 70
     1
  9
$QTEXTMODE
 70
     0
  9
$MIRRTEXT
 70
     1
  9
$LTSCALE
 40
1.0
  9
$ATTMODE
 70
     1
  9
$TEXTSIZE
 40
0.2
  9
$TRACEWID
 40
0.05
  9
$TEXTSTYLE
  7
Standard
  9
$CLAYER
  8
0
  9
$CELTYPE
  6
ByLayer
  9
$CECOLOR
 62
   256
  9
$CELTSCALE
 40
1.0
  9
$DISPSILH
 70
     0
  9
$DIMSCALE
 40
1.0
  9
$DIMASZ
 40
0.18
  9
$DIMEXO
 40
0.0625
  9
$DIMDLI
 40
0.38
  9
$DIMRND
 40
0.0
  9
$DIMDLE
 40
0.0
  9
$DIMEXE
 40
0.18
  9
$DIMTP
 40
0.0
  9
$DIMTM
 40
0.0
  9
$DIMTXT
 40
0.18
  9
$DIMCEN
 40
0.09
  9
$DIMTSZ
 40
0.0
  9
$DIMTOL
 70
     0
  9
$DIMLIM
 70
     0
  9
$DIMTIH
 70
     1
  9
$DIMTOH
 70
     1
  9
$DIMSE1
 70
     0
  9
$DIMSE2
 70
     0
  9
$DIMTAD
 70
     0
  9
$DIMZIN
 70
     0
  9
$DIMBLK
  1

  9
$DIMASO
 70
     1
  9
$DIMSHO
 70
     1
  9
$DIMPOST
  1

  9
$DIMAPOST
  1

  9
$DIMALT
 70
     0
  9
$DIMALTD
 70
     2
  9
$DIMALTF
 40
25.4
  9
$DIMLFAC
 40
1.0
  9
$DIMTOFL
 70
     0
  9
$DIMTVP
 40
0.0
  9
$DIMTIX
 70
     0
  9
$DIMSOXD
 70
     0
  9
$DIMSAH
 70
     0
  9
$DIMBLK1
  1

  9
$DIMBLK2
  1

  9
$DIMSTYLE
  2
Standard
  9
$DIMCLRD
 70
     0
  9
$DIMCLRE
 70
     0
  9
$DIMCLRT
 70
     0
  9
$DIMTFAC
 40
1.0
  9
$DIMGAP
 40
0.09
  9
$DIMJUST
 70
     0
  9
$DIMSD1
 70
     0
  9
$DIMSD2
 70
     0
  9
$DIMTOLJ
 70
     1
  9
$DIMTZIN
 70
     0
  9
$DIMALTZ
 70
     0
  9
$DIMALTTZ
 70
     0
  9
$DIMUPT
 70
     0
  9
$DIMDEC
 70
     4
  9
$DIMTDEC
 70
     4
  9
$DIMALTU
 70
     2
  9
$DIMALTTD
 70
     2
  9
$DIMTXSTY
  7
Standard
  9
$DIMAUNIT
 70
     0
  9
$DIMADEC
 70
     0
  9
$DIMALTRND
 40
0.0
  9
$DIMAZIN
 70
     0
  9
$DIMDSEP
 70
    46
  9
$DIMATFIT
 70
     3
  9
$DIMFRAC
 70
     0
  9
$DIMLDRBLK
  1

  9
$DIMLUNIT
 70
     2
  9
$DIMLWD
 70
    -2
  9
$DIMLWE
 70
    -2
  9
$DIMTMOVE
 70
     0
  9
$LUNITS
 70
     2
  9
$LUPREC
 70
     4
  9
$SKETCHINC
 40
0.1
  9
$FILLETRAD
 40
0.5
  9
$AUNITS
 70
     0
  9
$AUPREC
 70
     0
  9
$MENU
  1
.
  9
$ELEVATION
 40
0.0
  9
$PELEVATION
 40
0.0
  9
$THICKNESS
 40
0.0
  9
$LIMCHECK
 70
     0
  9
$CHAMFERA
 40
0.5
  9
$CHAMFERB
 40
0.5
  9
$CHAMFERC
 40
1.0
  9
$CHAMFERD
 40
0.0
  9
$SKPOLY
 70
     0
  9
$TDCREATE
 40
2456405.9425
  9
$TDUCREATE
 40
2456405.900833333
  9
$TDUPDATE
 40
2456405.942500012
  9
$TDUUPDATE
 40
2456405.900833345
  9
$TDINDWG
 40
0.0000000116
  9
$TDUSRTIMER
 40
0.0000000116
  9
$USRTIMER
 70
     1
  9
$ANGBASE
 50
0.0
  9
$ANGDIR
 70
     0
  9
$PDMODE
 70
     0
  9
$PDSIZE
 40
0.0
  9
$PLINEWID
 40
0.0
  9
$SPLFRAME
 70
     0
  9
$SPLINETYPE
 70
     6
  9
$SPLINESEGS
 70
     8
  9
$HANDSEED
  5
65
  9
$SURFTAB1
 70
     6
  9
$SURFTAB2
 70
     6
  9
$SURFTYPE
 70
     6
  9
$SURFU
 70
     6
  9
$SURFV
 70
     6
  9
$UCSBASE
  2

  9
$UCSNAME
  2

  9
$UCSORG
 10
0.0
 20
0.0
 30
0.0
  9
$UCSXDIR
 10
1.0
 20
0.0
 30
0.0
  9
$UCSYDIR
 10
0.0
 20
1.0
 30
0.0
  9
$UCSORTHOREF
  2

  9
$UCSORTHOVIEW
 70
     0
  9
$UCSORGTOP
 10
0.0
 20
0.0
 30
0.0
  9
$UCSORGBOTTOM
 10
0.0
 20
0.0
 30
0.0
  9
$UCSORGLEFT
 10
0.0
 20
0.0
 30
0.0
  9
$UCSORGRIGHT
 10
0.0
 20
0.0
 30
0.0
  9
$UCSORGFRONT
 10
0.0
 20
0.0
 30
0.0
  9
$UCSORGBACK
 10
0.0
 20
0.0
 30
0.0
  9
$PUCSBASE
  2

  9
$PUCSNAME
  2

  9
$PUCSORG
 10
0.0
 20
0.0
 30
0.0
  9
$PUCSXDIR
 10
1.0
 20
0.0
 30
0.0
  9
$PUCSYDIR
 10
0.0
 20
1.0
 30
0.0
  9
$PUCSORTHOREF
  2

  9
$PUCSORTHOVIEW
 70
     0
  9
$PUCSORGTOP
 10
0.0
 20
0.0
 30
0.0
  9
$PUCSORGBOTTOM
 10
0.0
 20
0.0
 30
0.0
  9
$PUCSORGLEFT
 10
0.0
 20
0.0
 30
0.0
  9
$PUCSORGRIGHT
 10
0.0
 20
0.0
 30
0.0
  9
$PUCSORGFRONT
 10
0.0
 20
0.0
 30
0.0
  9
$PUCSORGBACK
 10
0.0
 20
0.0
 30
0.0
  9
$USERI1
 70
     0
  9
$USERI2
 70
     0
  9
$USERI3
 70
     0
  9
$USERI4
 70
     0
  9
$USERI5
 70
     0
  9
$USERR1
 40
0.0
  9
$USERR2
 40
0.0
  9
$USERR3
 40
0.0
  9
$USERR4
 40
0.0
  9
$USERR5
 40
0.0
  9
$WORLDVIEW
 70
     1
  9
$SHADEDGE
 70
     3
  9
$SHADEDIF
 70
    70
  9
$TILEMODE
 70
     1
  9
$MAXACTVP
 70
    64
  9
$PINSBASE
 10
0.0
 20
0.0
 30
0.0
  9
$PLIMCHECK
 70
     0
  9
$PEXTMIN
 10
1.000000000000000E+20
 20
1.000000000000000E+20
 30
1.000000000000000E+20
  9
$PEXTMAX
 10
-1.000000000000000E+20
 20
-1.000000000000000E+20
 30
-1.000000000000000E+20
  9
$PLIMMIN
 10
0.0
 20
0.0
  9
$PLIMMAX
 10
12.0
 20
9.0
  9
$UNITMODE
 70
     0
  9
$VISRETAIN
 70
     1
  9
$PLINEGEN
 70
     0
  9
$PSLTSCALE
 70
     1
  9
$TREEDEPTH
 70
  3020
  9
$CMLSTYLE
  2
Standard
  9
$CMLJUST
 70
     0
  9
$CMLSCALE
 40
1.0
  9
$PROXYGRAPHICS
 70
     1
  9
$MEASUREMENT
 70
     0
  9
$CELWEIGHT
370
    -1
  9
$ENDCAPS
280
     0
  9
$JOINSTYLE
280
     0
  9
$LWDISPLAY
290
     1
  9
$INSUNITS
 70
     1
  9
$HYPERLINKBASE
  1

  9
$STYLESHEET
  1

  9
$XEDIT
290
     1
  9
$CEPSNTYPE
380
     0
  9
$PSTYLEMODE
290
     1
  9
$FINGERPRINTGUID
  2
{B40072DB-1C98-FF73-A07A-AA77EB56C7E1}
  9
$VERSIONGUID
  2
{FAEB1C32-E019-11D5-929B-00C0DF256EC4}
  9
$EXTNAMES
290
     1
  9
$PSVPSCALE
 40
0.0
  9
$OLESTARTUP
290
     0
  9
$SORTENTS
280
   127
  9
$INDEXCTL
280
     0
  9
$HIDETEXT
280
     1
  9
$XCLIPFRAME
290
     0
  9
$HALOGAP
280
     0
  9
$OBSCOLOR
 70
   257
  9
$OBSLTYPE
280
     0
  9
$INTERSECTIONDISPLAY
280
     0
  9
$INTERSECTIONCOLOR
 70
   257
  9
$DIMASSOC
280
     2
  9
$PROJECTNAME
  1

  0
ENDSEC
  0
SECTION
  2
CLASSES
  0
CLASS
  1
ACDBDICTIONARYWDFLT
  2
AcDbDictionaryWithDefault
  3
ObjectDBX Classes
 90
        0
 91
        3
280
     0
281
     0
  0
CLASS
  1
VISUALSTYLE
  2
AcDbVisualStyle
  3
ObjectDBX Classes
 90
     4095
 91
        3
280
     0
281
     0
  0
ENDSEC
  0
SECTION
  2
TABLES
  0
TABLE
  2
VPORT
  5
8
330
0
100
AcDbSymbolTable
 70
     1
  0
VPORT
  5
29
330
8
100
AcDbSymbolTableRecord
100
AcDbViewportTableRecord
  2
*Active
 70
     0
 10
0.0
 20
0.0
 11
1.0
 21
1.0
 12
0.0
 22
0.0
 13
0.0
 23
0.0
 14
0.5
 24
0.5
 15
0.5
 25
0.5
 16
0.0
 26
0.0
 36
1.0
 17
300.0374999249906
 27
150.1068582795306
 37
0.0
 40
300.0001206389757
 41
1.9999988516353
 42
50.0
 43
0.0
 44
0.0
 50
0.0
 51
0.0
 71
     0
 72
   100
 73
     1
 74
     3
 75
     0
 76
     0
 77
     0
 78
     0
281
     0
 65
     1
110
0.0
120
0.0
130
0.0
111
1.0
121
0.0
131
0.0
112
0.0
122
1.0
132
0.0
 79
     0
146
0.0
  0
ENDTAB
  0
TABLE
  2
LTYPE
  5
5
330
0
100
AcDbSymbolTable
 70
     1
  0
LTYPE
  5
14
330
5
100
AcDbSymbolTableRecord
100
AcDbLinetypeTableRecord
  2
ByBlock
 70
     0
  3

 72
    65
 73
     0
 40
0.0
  0
LTYPE
  5
15
330
5
100
AcDbSymbolTableRecord
100
AcDbLinetypeTableRecord
  2
ByLayer
 70
     0
  3

 72
    65
 73
     0
 40
0.0
  0
LTYPE
  5
16
330
5
100
AcDbSymbolTableRecord
100
AcDbLinetypeTableRecord
  2
Continuous
 70
     0
  3
Solid line
 72
    65
 73
     0
 40
0.0
  0
ENDTAB
  0
TABLE
  2
LAYER
  5
2
330
0
100
AcDbSymbolTable
 70
     2
  0
LAYER
  5
10
330
2
100
AcDbSymbolTableRecord
100
AcDbLayerTableRecord
  2
0
 70
     0
 62
     7
  6
Continuous
370
    -3
390
F
  0
LAYER
  5
3B
330
2
100
AcDbSymbolTableRecord
100
AcDbLayerTableRecord
  2
svg2
 70
     0
 62
     7
  6
Continuous
370
    -3
390
F
  0
ENDTAB
  0
TABLE
  2
STYLE
  5
3
330
0
100
AcDbSymbolTable
 70
     1
  0
STYLE
  5
11
330
3
100
AcDbSymbolTableRecord
100
AcDbTextStyleTableRecord
  2
Standard
 70
     0
 40
0.0
 41
1.0
 50
0.0
 71
     0
 42
0.2
  3
txt
  4

  0
ENDTAB
  0
TABLE
  2
VIEW
  5
6
330
0
100
AcDbSymbolTable
 70
     0
  0
ENDTAB
  0
TABLE
  2
UCS
  5
7
330
0
100
AcDbSymbolTable
 70
     0
  0
ENDTAB
  0
TABLE
  2
APPID
  5
9
330
0
100
AcDbSymbolTable
 70
     1
  0
APPID
  5
12
330
9
100
AcDbSymbolTableRecord
100
AcDbRegAppTableRecord
  2
ACAD
 70
     0
  0
ENDTAB
  0
TABLE
  2
DIMSTYLE
  5
A
330
0
100
AcDbSymbolTable
 70
     1
100
AcDbDimStyleTable
  0
DIMSTYLE
105
27
330
A
100
AcDbSymbolTableRecord
100
AcDbDimStyleTableRecord
  2
Standard
 70
     0
340
11
  0
ENDTAB
  0
TABLE
  2
BLOCK_RECORD
  5
1
330
0
100
AcDbSymbolTable
 70
     3
  0
BLOCK_RECORD
  5
1F
330
1
100
AcDbSymbolTableRecord
100
AcDbBlockTableRecord
  2
*Model_Space
340
22
  0
BLOCK_RECORD
  5
1B
330
1
100
AcDbSymbolTableRecord
100
AcDbBlockTableRecord
  2
*Paper_Space
340
1E
  0
BLOCK_RECORD
  5
23
330
1
100
AcDbSymbolTableRecord
100
AcDbBlockTableRecord
  2
*Paper_Space0
340
26
  0
BLOCK_RECORD
  5
3C
330
1
100
AcDbSymbolTableRecord
100
AcDbBlockTableRecord
  2
block 2
340
0
102
{BLKREFS
331
3D
102
}
  0
BLOCK_RECORD
  5
40
330
1
100
AcDbSymbolTableRecord
100
AcDbBlockTableRecord
  2
block 3
340
0
102
{BLKREFS
331
41
102
}
  0
ENDTAB
  0
ENDSEC
  0
SECTION
  2
BLOCKS
  0
BLOCK
  5
20
330
1F
100
AcDbEntity
  8
0
100
AcDbBlockBegin
  2
*Model_Space
 70
     0
 71
     0
 10
0.0
 20
0.0
 30
0.0
  3
*Model_Space
  1

  0
ENDBLK
  5
21
330
1F
100
AcDbEntity
  8
0
100
AcDbBlockEnd
  0
BLOCK
  5
1C
330
1B
100
AcDbEntity
 67
     1
  8
0
100
AcDbBlockBegin
  2
*Paper_Space
 70
     0
 71
     0
 10
0.0
 20
0.0
 30
0.0
  3
*Paper_Space
  1

  0
ENDBLK
  5
1D
330
1B
100
AcDbEntity
 67
     1
  8
0
100
AcDbBlockEnd
  0
BLOCK
  5
24
330
23
100
AcDbEntity
  8
0
100
AcDbBlockBegin
  2
*Paper_Space0
 70
     0
 71
     0
 10
0.0
 20
0.0
 30
0.0
  3
*Paper_Space0
  1

  0
ENDBLK
  5
25
330
23
100
AcDbEntity
  8
0
100
AcDbBlockEnd
  0
BLOCK
  5
3E
330
3C
100
AcDbEntity
  8
0
100
AcDbBlockBegin
  2
block 2
 70
     0
 71
     0
 10
0.0
 20
0.0
 30
0.0
  3
block 2
  1

  0
ENDBLK
  5
3F
330
3C
100
AcDbEntity
  8
0
100
AcDbBlockEnd
  0
BLOCK
  5
42
330
40
100
AcDbEntity
  8
0
100
AcDbBlockBegin
  2
block 3
 70
     0
 71
     0
 10
0.0
 20
0.0
 30
0.0
  3
block 3
  1

  0
SPLINE
  5
44
330
40
100
AcDbEntity
  8
svg2
 62
   179
420
  2038295
370
     5
100
AcDbSpline
210
0.0
220
0.0
230
1.0
 70
    11
 71
     3
 72
    17
 73
    13
 74
     0
 42
0.0000000001
 43
0.0000000001
 40
0.0
 40
0.0
 40
0.0
 40
0.0
 40
1.0
 40
1.0
 40
1.0
 40
2.0
 40
2.0
 40
2.0
 40
3.0
 40
3.0
 40
3.0
 40
4.0
 40
4.0
 40
4.0
 40
4.0
 10
297.0375107764351
 20
44.13994139521502
 30
0.0
 10
297.0375107764351
 20
43.31174044056095
 30
0.0
 10
296.3657171568113
 20
42.63994682093724
 30
0.0
 10
295.5375162021573
 20
42.63994682093724
 30
0.0
 10
294.7089707379547
 20
42.63994682093724
 30
0.0
 10
294.0375216278795
 20
43.31174044056095
 30
0.0
 10
294.0375216278795
 20
44.13994139521502
 30
0.0
 10
294.0375216278795
 20
44.96814234986908
 30
0.0
 10
294.7089707379547
 20
45.6399359694928
 30
0.0
 10
295.5375162021573
 20
45.6399359694928
 30
0.0
 10
296.3657171568113
 20
45.6399359694928
 30
0.0
 10
297.0375107764351
 20
44.96814234986908
 30
0.0
 10
297.0375107764351
 20
44.13994139521502
 30
0.0
  0
SPLINE
  5
45
330
40
100
AcDbEntity
  8
svg2
 62
   179
420
  2038295
370
     5
100
AcDbSpline
210
0.0
220
0.0
230
1.0
 70
    11
 71
     3
 72
    53
 73
    49
 74
     0
 42
0.0000000001
 43
0.0000000001
 40
0.0
 40
0.0
 40
0.0
 40
0.0
 40
1.0
 40
1.0
 40
1.0
 40
2.0
 40
2.0
 40
2.0
 40
3.0
 40
3.0
 40
3.0
 40
4.0
 40
4.0
 40
4.0
 40
5.0
 40
5.0
 40
5.0
 40
6.0
 40
6.0
 40
6.0
 40
7.0
 40
7.0
 40
7.0
 40
8.0
 40
8.0
 40
8.0
 40
9.0
 40
9.0
 40
9.0
 40
10.0
 40
10.0
 40
10.0
 40
11.0
 40
11.0
 40
11.0
 40
12.0
 40
12.0
 40
12.0
 40
13.0
 40
13.0
 40
13.0
 40
14.0
 40
14.0
 40
14.0
 40
15.0
 40
15.0
 40
15.0
 40
16.0
 40
16.0
 40
16.0
 40
16.0
 10
292.5375270536018
 20
59.13988713799281
 30
0.0
 10
292.5375270536018
 20
59.41618379590984
 30
0.0
 10
292.761458260143
 20
59.64011500245108
 30
0.0
 10
293.0374104085115
 20
59.64011500245108
 30
0.0
 10
293.31336255688
 20
59.64011500245108
 30
0.0
 10
293.5372937634212
 20
59.41618379590984
 30
0.0
 10
293.5372937634212
 20
59.13988713799281
 30
0.0
 10
293.5372937634212
 20
59.13988713799281
 30
0.0
 10
297.5373941313449
 20
59.13988713799281
 30
0.0
 10
297.5373941313449
 20
59.13988713799281
 30
0.0
 10
297.5373941313449
 20
59.41618379590984
 30
0.0
 10
297.7613253378861
 20
59.64011500245108
 30
0.0
 10
298.0372774862546
 20
59.64011500245108
 30
0.0
 10
298.3135741441716
 20
59.64011500245108
 30
0.0
 10
298.5375053507129
 20
59.41618379590984
 30
0.0
 10
298.5375053507129
 20
59.13988713799281
 30
0.0
 10
298.5375053507129
 20
58.86359048007577
 30
0.0
 10
298.3135741441716
 20
58.63965927353453
 30
0.0
 10
298.0372774862546
 20
58.63965927353453
 30
0.0
 10
298.0372774862546
 20
58.63965927353453
 30
0.0
 10
298.0372774862546
 20
49.63969182786786
 30
0.0
 10
298.0372774862546
 20
49.63969182786786
 30
0.0
 10
298.3135741441716
 20
49.63969182786786
 30
0.0
 10
298.5375053507129
 20
49.41576062132662
 30
0.0
 10
298.5375053507129
 20
49.14015298250663
 30
0.0
 10
298.5375053507129
 20
48.86385632458959
 30
0.0
 10
298.3135741441716
 20
48.63992511804835
 30
0.0
 10
298.0372774862546
 20
48.63992511804835
 30
0.0
 10
297.7613253378861
 20
48.63992511804835
 30
0.0
 10
297.5373941313449
 20
48.86385632458959
 30
0.0
 10
297.5373941313449
 20
49.14015298250663
 30
0.0
 10
297.5373941313449
 20
49.14015298250663
 30
0.0
 10
293.5372937634212
 20
49.14015298250663
 30
0.0
 10
293.5372937634212
 20
49.14015298250663
 30
0.0
 10
293.5372937634212
 20
48.86385632458959
 30
0.0
 10
293.31336255688
 20
48.63992511804835
 30
0.0
 10
293.0374104085115
 20
48.63992511804835
 30
0.0
 10
292.761458260143
 20
48.63992511804835
 30
0.0
 10
292.5375270536018
 20
48.86385632458959
 30
0.0
 10
292.5375270536018
 20
49.14015298250663
 30
0.0
 10
292.5375270536018
 20
49.41576062132662
 30
0.0
 10
292.761458260143
 20
49.63969182786786
 30
0.0
 10
293.0374104085115
 20
49.63969182786786
 30
0.0
 10
293.0374104085115
 20
49.63969182786786
 30
0.0
 10
293.0374104085115
 20
58.63965927353453
 30
0.0
 10
293.0374104085115
 20
58.63965927353453
 30
0.0
 10
292.761458260143
 20
58.63965927353453
 30
0.0
 10
292.5375270536018
 20
58.86359048007577
 30
0.0
 10
292.5375270536018
 20
59.13988713799281
 30
0.0
  0
SPLINE
  5
46
330
40
100
AcDbEntity
  8
svg2
 62
   179
420
  2038295
370
     5
100
AcDbSpline
210
0.0
220
0.0
230
1.0
 70
    11
 71
     3
 72
    53
 73
    49
 74
     0
 42
0.0000000001
 43
0.0000000001
 40
0.0
 40
0.0
 40
0.0
 40
0.0
 40
1.0
 40
1.0
 40
1.0
 40
2.0
 40
2.0
 40
2.0
 40
3.0
 40
3.0
 40
3.0
 40
4.0
 40
4.0
 40
4.0
 40
5.0
 40
5.0
 40
5.0
 40
6.0
 40
6.0
 40
6.0
 40
7.0
 40
7.0
 40
7.0
 40
8.0
 40
8.0
 40
8.0
 40
9.0
 40
9.0
 40
9.0
 40
10.0
 40
10.0
 40
10.0
 40
11.0
 40
11.0
 40
11.0
 40
12.0
 40
12.0
 40
12.0
 40
13.0
 40
13.0
 40
13.0
 40
14.0
 40
14.0
 40
14.0
 40
15.0
 40
15.0
 40
15.0
 40
16.0
 40
16.0
 40
16.0
 40
16.0
 10
292.5375270536018
 20
39.1397298079234
 30
0.0
 10
292.5375270536018
 20
39.41602646584044
 30
0.0
 10
292.761458260143
 20
39.63995767238168
 30
0.0
 10
293.0374104085115
 20
39.63995767238168
 30
0.0
 10
293.31336255688
 20
39.63995767238168
 30
0.0
 10
293.5372937634212
 20
39.41602646584044
 30
0.0
 10
293.5372937634212
 20
39.1397298079234
 30
0.0
 10
293.5372937634212
 20
39.1397298079234
 30
0.0
 10
297.5373941313449
 20
39.1397298079234
 30
0.0
 10
297.5373941313449
 20
39.1397298079234
 30
0.0
 10
297.5373941313449
 20
39.41602646584044
 30
0.0
 10
297.7613253378861
 20
39.63995767238168
 30
0.0
 10
298.0372774862546
 20
39.63995767238168
 30
0.0
 10
298.3135741441716
 20
39.63995767238168
 30
0.0
 10
298.5375053507129
 20
39.41602646584044
 30
0.0
 10
298.5375053507129
 20
39.1397298079234
 30
0.0
 10
298.5375053507129
 20
38.86412216910342
 30
0.0
 10
298.3135741441716
 20
38.64019096256218
 30
0.0
 10
298.0372774862546
 20
38.64019096256218
 30
0.0
 10
298.0372774862546
 20
38.64019096256218
 30
0.0
 10
298.0372774862546
 20
29.6402235168955
 30
0.0
 10
298.0372774862546
 20
29.6402235168955
 30
0.0
 10
298.3135741441716
 20
29.6402235168955
 30
0.0
 10
298.5375053507129
 20
29.41629231035426
 30
0.0
 10
298.5375053507129
 20
29.13999565243723
 30
0.0
 10
298.5375053507129
 20
28.86369899452019
 30
0.0
 10
298.3135741441716
 20
28.63976778797895
 30
0.0
 10
298.0372774862546
 20
28.63976778797895
 30
0.0
 10
297.7613253378861
 20
28.63976778797895
 30
0.0
 10
297.5373941313449
 20
28.86369899452019
 30
0.0
 10
297.5373941313449
 20
29.13999565243723
 30
0.0
 10
297.5373941313449
 20
29.13999565243723
 30
0.0
 10
293.5372937634212
 20
29.13999565243723
 30
0.0
 10
293.5372937634212
 20
29.13999565243723
 30
0.0
 10
293.5372937634212
 20
28.86369899452019
 30
0.0
 10
293.31336255688
 20
28.63976778797895
 30
0.0
 10
293.0374104085115
 20
28.63976778797895
 30
0.0
 10
292.761458260143
 20
28.63976778797895
 30
0.0
 10
292.5375270536018
 20
28.86369899452019
 30
0.0
 10
292.5375270536018
 20
29.13999565243723
 30
0.0
 10
292.5375270536018
 20
29.41629231035426
 30
0.0
 10
292.761458260143
 20
29.6402235168955
 30
0.0
 10
293.0374104085115
 20
29.6402235168955
 30
0.0
 10
293.0374104085115
 20
29.6402235168955
 30
0.0
 10
293.0374104085115
 20
38.64019096256218
 30
0.0
 10
293.0374104085115
 20
38.64019096256218
 30
0.0
 10
292.761458260143
 20
38.64019096256218
 30
0.0
 10
292.5375270536018
 20
38.86412216910342
 30
0.0
 10
292.5375270536018
 20
39.1397298079234
 30
0.0
  0
SPLINE
  5
47
330
40
100
AcDbEntity
  8
svg2
 62
   179
420
  2038295
370
     5
100
AcDbSpline
210
0.0
220
0.0
230
1.0
 70
    11
 71
     3
 72
    17
 73
    13
 74
     0
 42
0.0000000001
 43
0.0000000001
 40
0.0
 40
0.0
 40
0.0
 40
0.0
 40
1.0
 40
1.0
 40
1.0
 40
2.0
 40
2.0
 40
2.0
 40
3.0
 40
3.0
 40
3.0
 40
4.0
 40
4.0
 40
4.0
 40
4.0
 10
297.0375107764351
 20
157.7038967162164
 30
0.0
 10
297.0375107764351
 20
156.8753512520138
 30
0.0
 10
296.3657171568113
 20
156.2039021419386
 30
0.0
 10
295.5375162021573
 20
156.2039021419386
 30
0.0
 10
294.7089707379547
 20
156.2039021419386
 30
0.0
 10
294.0375216278795
 20
156.8753512520138
 30
0.0
 10
294.0375216278795
 20
157.7038967162164
 30
0.0
 10
294.0375216278795
 20
158.532442180419
 30
0.0
 10
294.7089707379547
 20
159.2038912904942
 30
0.0
 10
295.5375162021573
 20
159.2038912904942
 30
0.0
 10
296.3657171568113
 20
159.2038912904942
 30
0.0
 10
297.0375107764351
 20
158.532442180419
 30
0.0
 10
297.0375107764351
 20
157.7038967162164
 30
0.0
  0
SPLINE
  5
48
330
40
100
AcDbEntity
  8
svg2
 62
   179
420
  2038295
370
     5
100
AcDbSpline
210
0.0
220
0.0
230
1.0
 70
    11
 71
     3
 72
    53
 73
    49
 74
     0
 42
0.0000000001
 43
0.0000000001
 40
0.0
 40
0.0
 40
0.0
 40
0.0
 40
1.0
 40
1.0
 40
1.0
 40
2.0
 40
2.0
 40
2.0
 40
3.0
 40
3.0
 40
3.0
 40
4.0
 40
4.0
 40
4.0
 40
5.0
 40
5.0
 40
5.0
 40
6.0
 40
6.0
 40
6.0
 40
7.0
 40
7.0
 40
7.0
 40
8.0
 40
8.0
 40
8.0
 40
9.0
 40
9.0
 40
9.0
 40
10.0
 40
10.0
 40
10.0
 40
11.0
 40
11.0
 40
11.0
 40
12.0
 40
12.0
 40
12.0
 40
13.0
 40
13.0
 40
13.0
 40
14.0
 40
14.0
 40
14.0
 40
15.0
 40
15.0
 40
15.0
 40
16.0
 40
16.0
 40
16.0
 40
16.0
 10
292.5375270536018
 20
172.7038424589942
 30
0.0
 10
292.5375270536018
 20
172.9801391169112
 30
0.0
 10
292.761458260143
 20
173.2040703234525
 30
0.0
 10
293.0374104085115
 20
173.2040703234525
 30
0.0
 10
293.31336255688
 20
173.2040703234525
 30
0.0
 10
293.5372937634212
 20
172.9801391169112
 30
0.0
 10
293.5372937634212
 20
172.7038424589942
 30
0.0
 10
293.5372937634212
 20
172.7038424589942
 30
0.0
 10
297.5373941313449
 20
172.7038424589942
 30
0.0
 10
297.5373941313449
 20
172.7038424589942
 30
0.0
 10
297.5373941313449
 20
172.9801391169112
 30
0.0
 10
297.7613253378861
 20
173.2040703234525
 30
0.0
 10
298.0372774862546
 20
173.2040703234525
 30
0.0
 10
298.3135741441716
 20
173.2040703234525
 30
0.0
 10
298.5375053507129
 20
172.9801391169112
 30
0.0
 10
298.5375053507129
 20
172.7038424589942
 30
0.0
 10
298.5375053507129
 20
172.4278903106257
 30
0.0
 10
298.3135741441716
 20
172.2039591040844
 30
0.0
 10
298.0372774862546
 20
172.2039591040844
 30
0.0
 10
298.0372774862546
 20
172.2039591040844
 30
0.0
 10
298.0372774862546
 20
163.2039916584177
 30
0.0
 10
298.0372774862546
 20
163.2039916584177
 30
0.0
 10
298.3135741441716
 20
163.2039916584177
 30
0.0
 10
298.5375053507129
 20
162.9800604518765
 30
0.0
 10
298.5375053507129
 20
162.7037637939595
 30
0.0
 10
298.5375053507129
 20
162.427811645591
 30
0.0
 10
298.3135741441716
 20
162.2038804390497
 30
0.0
 10
298.0372774862546
 20
162.2038804390497
 30
0.0
 10
297.7613253378861
 20
162.2038804390497
 30
0.0
 10
297.5373941313449
 20
162.427811645591
 30
0.0
 10
297.5373941313449
 20
162.7037637939595
 30
0.0
 10
297.5373941313449
 20
162.7037637939595
 30
0.0
 10
293.5372937634212
 20
162.7037637939595
 30
0.0
 10
293.5372937634212
 20
162.7037637939595
 30
0.0
 10
293.5372937634212
 20
162.427811645591
 30
0.0
 10
293.31336255688
 20
162.2038804390497
 30
0.0
 10
293.0374104085115
 20
162.2038804390497
 30
0.0
 10
292.761458260143
 20
162.2038804390497
 30
0.0
 10
292.5375270536018
 20
162.427811645591
 30
0.0
 10
292.5375270536018
 20
162.7037637939595
 30
0.0
 10
292.5375270536018
 20
162.9800604518765
 30
0.0
 10
292.761458260143
 20
163.2039916584177
 30
0.0
 10
293.0374104085115
 20
163.2039916584177
 30
0.0
 10
293.0374104085115
 20
163.2039916584177
 30
0.0
 10
293.0374104085115
 20
172.2039591040844
 30
0.0
 10
293.0374104085115
 20
172.2039591040844
 30
0.0
 10
292.761458260143
 20
172.2039591040844
 30
0.0
 10
292.5375270536018
 20
172.4278903106257
 30
0.0
 10
292.5375270536018
 20
172.7038424589942
 30
0.0
  0
SPLINE
  5
49
330
40
100
AcDbEntity
  8
svg2
 62
   179
420
  2038295
370
     5
100
AcDbSpline
210
0.0
220
0.0
230
1.0
 70
    11
 71
     3
 72
    53
 73
    49
 74
     0
 42
0.0000000001
 43
0.0000000001
 40
0.0
 40
0.0
 40
0.0
 40
0.0
 40
1.0
 40
1.0
 40
1.0
 40
2.0
 40
2.0
 40
2.0
 40
3.0
 40
3.0
 40
3.0
 40
4.0
 40
4.0
 40
4.0
 40
5.0
 40
5.0
 40
5.0
 40
6.0
 40
6.0
 40
6.0
 40
7.0
 40
7.0
 40
7.0
 40
8.0
 40
8.0
 40
8.0
 40
9.0
 40
9.0
 40
9.0
 40
10.0
 40
10.0
 40
10.0
 40
11.0
 40
11.0
 40
11.0
 40
12.0
 40
12.0
 40
12.0
 40
13.0
 40
13.0
 40
13.0
 40
14.0
 40
14.0
 40
14.0
 40
15.0
 40
15.0
 40
15.0
 40
16.0
 40
16.0
 40
16.0
 40
16.0
 10
292.5375270536018
 20
152.7040296384733
 30
0.0
 10
292.5375270536018
 20
152.9799817868418
 30
0.0
 10
292.761458260143
 20
153.2039129933831
 30
0.0
 10
293.0374104085115
 20
153.2039129933831
 30
0.0
 10
293.31336255688
 20
153.2039129933831
 30
0.0
 10
293.5372937634212
 20
152.9799817868418
 30
0.0
 10
293.5372937634212
 20
152.7040296384733
 30
0.0
 10
293.5372937634212
 20
152.7040296384733
 30
0.0
 10
297.5373941313449
 20
152.7040296384733
 30
0.0
 10
297.5373941313449
 20
152.7040296384733
 30
0.0
 10
297.5373941313449
 20
152.9799817868418
 30
0.0
 10
297.7613253378861
 20
153.2039129933831
 30
0.0
 10
298.0372774862546
 20
153.2039129933831
 30
0.0
 10
298.3135741441716
 20
153.2039129933831
 30
0.0
 10
298.5375053507129
 20
152.9799817868418
 30
0.0
 10
298.5375053507129
 20
152.7040296384733
 30
0.0
 10
298.5375053507129
 20
152.4277329805563
 30
0.0
 10
298.3135741441716
 20
152.203801774015
 30
0.0
 10
298.0372774862546
 20
152.203801774015
 30
0.0
 10
298.0372774862546
 20
152.203801774015
 30
0.0
 10
298.0372774862546
 20
143.2036620735741
 30
0.0
 10
298.0372774862546
 20
143.2036620735741
 30
0.0
 10
298.3135741441716
 20
143.2036620735741
 30
0.0
 10
298.5375053507129
 20
142.9797308670329
 30
0.0
 10
298.5375053507129
 20
142.7041232282129
 30
0.0
 10
298.5375053507129
 20
142.4278265702958
 30
0.0
 10
298.3135741441716
 20
142.2038953637546
 30
0.0
 10
298.0372774862546
 20
142.2038953637546
 30
0.0
 10
297.7613253378861
 20
142.2038953637546
 30
0.0
 10
297.5373941313449
 20
142.4278265702958
 30
0.0
 10
297.5373941313449
 20
142.7041232282129
 30
0.0
 10
297.5373941313449
 20
142.7041232282129
 30
0.0
 10
293.5372937634212
 20
142.7041232282129
 30
0.0
 10
293.5372937634212
 20
142.7041232282129
 30
0.0
 10
293.5372937634212
 20
142.4278265702958
 30
0.0
 10
293.31336255688
 20
142.2038953637546
 30
0.0
 10
293.0374104085115
 20
142.2038953637546
 30
0.0
 10
292.761458260143
 20
142.2038953637546
 30
0.0
 10
292.5375270536018
 20
142.4278265702958
 30
0.0
 10
292.5375270536018
 20
142.7041232282129
 30
0.0
 10
292.5375270536018
 20
142.9797308670329
 30
0.0
 10
292.761458260143
 20
143.2036620735741
 30
0.0
 10
293.0374104085115
 20
143.2036620735741
 30
0.0
 10
293.0374104085115
 20
143.2036620735741
 30
0.0
 10
293.0374104085115
 20
152.203801774015
 30
0.0
 10
293.0374104085115
 20
152.203801774015
 30
0.0
 10
292.761458260143
 20
152.203801774015
 30
0.0
 10
292.5375270536018
 20
152.4277329805563
 30
0.0
 10
292.5375270536018
 20
152.7040296384733
 30
0.0
  0
SPLINE
  5
4A
330
40
100
AcDbEntity
  8
svg2
 62
   179
420
  2038295
370
     5
100
AcDbSpline
210
0.0
220
0.0
230
1.0
 70
    11
 71
     3
 72
    17
 73
    13
 74
     0
 42
0.0000000001
 43
0.0000000001
 40
0.0
 40
0.0
 40
0.0
 40
0.0
 40
1.0
 40
1.0
 40
1.0
 40
2.0
 40
2.0
 40
2.0
 40
3.0
 40
3.0
 40
3.0
 40
4.0
 40
4.0
 40
4.0
 40
4.0
 10
297.0375107764351
 20
271.1402112494893
 30
0.0
 10
297.0375107764351
 20
270.3118380400609
 30
0.0
 10
296.3657171568113
 20
269.6402166752115
 30
0.0
 10
295.5375162021573
 20
269.6402166752115
 30
0.0
 10
294.7089707379547
 20
269.6402166752115
 30
0.0
 10
294.0375216278795
 20
270.3118380400609
 30
0.0
 10
294.0375216278795
 20
271.1402112494893
 30
0.0
 10
294.0375216278795
 20
271.9685844589176
 30
0.0
 10
294.7089707379547
 20
272.640205823767
 30
0.0
 10
295.5375162021573
 20
272.640205823767
 30
0.0
 10
296.3657171568113
 20
272.640205823767
 30
0.0
 10
297.0375107764351
 20
271.9685844589176
 30
0.0
 10
297.0375107764351
 20
271.1402112494893
 30
0.0
  0
SPLINE
  5
4B
330
40
100
AcDbEntity
  8
svg2
 62
   179
420
  2038295
370
     5
100
AcDbSpline
210
0.0
220
0.0
230
1.0
 70
    11
 71
     3
 72
    53
 73
    49
 74
     0
 42
0.0000000001
 43
0.0000000001
 40
0.0
 40
0.0
 40
0.0
 40
0.0
 40
1.0
 40
1.0
 40
1.0
 40
2.0
 40
2.0
 40
2.0
 40
3.0
 40
3.0
 40
3.0
 40
4.0
 40
4.0
 40
4.0
 40
5.0
 40
5.0
 40
5.0
 40
6.0
 40
6.0
 40
6.0
 40
7.0
 40
7.0
 40
7.0
 40
8.0
 40
8.0
 40
8.0
 40
9.0
 40
9.0
 40
9.0
 40
10.0
 40
10.0
 40
10.0
 40
11.0
 40
11.0
 40
11.0
 40
12.0
 40
12.0
 40
12.0
 40
13.0
 40
13.0
 40
13.0
 40
14.0
 40
14.0
 40
14.0
 40
15.0
 40
15.0
 40
15.0
 40
16.0
 40
16.0
 40
16.0
 40
16.0
 10
292.5375270536018
 20
286.1401569922671
 30
0.0
 10
292.5375270536018
 20
286.4162813954098
 30
0.0
 10
292.761458260143
 20
286.6402126019511
 30
0.0
 10
293.0374104085115
 20
286.6402126019511
 30
0.0
 10
293.31336255688
 20
286.6402126019511
 30
0.0
 10
293.5372937634212
 20
286.4162813954098
 30
0.0
 10
293.5372937634212
 20
286.1401569922671
 30
0.0
 10
293.5372937634212
 20
286.1401569922671
 30
0.0
 10
297.5373941313449
 20
286.1401569922671
 30
0.0
 10
297.5373941313449
 20
286.1401569922671
 30
0.0
 10
297.5373941313449
 20
286.4162813954098
 30
0.0
 10
297.7613253378861
 20
286.6402126019511
 30
0.0
 10
298.0372774862546
 20
286.6402126019511
 30
0.0
 10
298.3135741441716
 20
286.6402126019511
 30
0.0
 10
298.5375053507129
 20
286.4162813954098
 30
0.0
 10
298.5375053507129
 20
286.1401569922671
 30
0.0
 10
298.5375053507129
 20
285.8642048438986
 30
0.0
 10
298.3135741441716
 20
285.6402736373573
 30
0.0
 10
298.0372774862546
 20
285.6402736373573
 30
0.0
 10
298.0372774862546
 20
285.6402736373573
 30
0.0
 10
298.0372774862546
 20
276.6403061916906
 30
0.0
 10
298.0372774862546
 20
276.6403061916906
 30
0.0
 10
298.3135741441716
 20
276.6403061916906
 30
0.0
 10
298.5375053507129
 20
276.4163749851494
 30
0.0
 10
298.5375053507129
 20
276.1402505820066
 30
0.0
 10
298.5375053507129
 20
275.8641261788638
 30
0.0
 10
298.3135741441716
 20
275.6401949723226
 30
0.0
 10
298.0372774862546
 20
275.6401949723226
 30
0.0
 10
297.7613253378861
 20
275.6401949723226
 30
0.0
 10
297.5373941313449
 20
275.8641261788638
 30
0.0
 10
297.5373941313449
 20
276.1402505820066
 30
0.0
 10
297.5373941313449
 20
276.1402505820066
 30
0.0
 10
293.5372937634212
 20
276.1402505820066
 30
0.0
 10
293.5372937634212
 20
276.1402505820066
 30
0.0
 10
293.5372937634212
 20
275.8641261788638
 30
0.0
 10
293.31336255688
 20
275.6401949723226
 30
0.0
 10
293.0374104085115
 20
275.6401949723226
 30
0.0
 10
292.761458260143
 20
275.6401949723226
 30
0.0
 10
292.5375270536018
 20
275.8641261788638
 30
0.0
 10
292.5375270536018
 20
276.1402505820066
 30
0.0
 10
292.5375270536018
 20
276.4163749851494
 30
0.0
 10
292.761458260143
 20
276.6403061916906
 30
0.0
 10
293.0374104085115
 20
276.6403061916906
 30
0.0
 10
293.0374104085115
 20
276.6403061916906
 30
0.0
 10
293.0374104085115
 20
285.6402736373573
 30
0.0
 10
293.0374104085115
 20
285.6402736373573
 30
0.0
 10
292.761458260143
 20
285.6402736373573
 30
0.0
 10
292.5375270536018
 20
285.8642048438986
 30
0.0
 10
292.5375270536018
 20
286.1401569922671
 30
0.0
  0
SPLINE
  5
4C
330
40
100
AcDbEntity
  8
svg2
 62
   179
420
  2038295
370
     5
100
AcDbSpline
210
0.0
220
0.0
230
1.0
 70
    11
 71
     3
 72
    53
 73
    49
 74
     0
 42
0.0000000001
 43
0.0000000001
 40
0.0
 40
0.0
 40
0.0
 40
0.0
 40
1.0
 40
1.0
 40
1.0
 40
2.0
 40
2.0
 40
2.0
 40
3.0
 40
3.0
 40
3.0
 40
4.0
 40
4.0
 40
4.0
 40
5.0
 40
5.0
 40
5.0
 40
6.0
 40
6.0
 40
6.0
 40
7.0
 40
7.0
 40
7.0
 40
8.0
 40
8.0
 40
8.0
 40
9.0
 40
9.0
 40
9.0
 40
10.0
 40
10.0
 40
10.0
 40
11.0
 40
11.0
 40
11.0
 40
12.0
 40
12.0
 40
12.0
 40
13.0
 40
13.0
 40
13.0
 40
14.0
 40
14.0
 40
14.0
 40
15.0
 40
15.0
 40
15.0
 40
16.0
 40
16.0
 40
16.0
 40
16.0
 10
292.5375270536018
 20
266.1401719169719
 30
0.0
 10
292.5375270536018
 20
266.4162963201147
 30
0.0
 10
292.761458260143
 20
266.6402275266559
 30
0.0
 10
293.0374104085115
 20
266.6402275266559
 30
0.0
 10
293.31336255688
 20
266.6402275266559
 30
0.0
 10
293.5372937634212
 20
266.4162963201147
 30
0.0
 10
293.5372937634212
 20
266.1401719169719
 30
0.0
 10
293.5372937634212
 20
266.1401719169719
 30
0.0
 10
297.5373941313449
 20
266.1401719169719
 30
0.0
 10
297.5373941313449
 20
266.1401719169719
 30
0.0
 10
297.5373941313449
 20
266.4162963201147
 30
0.0
 10
297.7613253378861
 20
266.6402275266559
 30
0.0
 10
298.0372774862546
 20
266.6402275266559
 30
0.0
 10
298.3135741441716
 20
266.6402275266559
 30
0.0
 10
298.5375053507129
 20
266.4162963201147
 30
0.0
 10
298.5375053507129
 20
266.1401719169719
 30
0.0
 10
298.5375053507129
 20
265.8640475138291
 30
0.0
 10
298.3135741441716
 20
265.6402885620622
 30
0.0
 10
298.0372774862546
 20
265.6402885620622
 30
0.0
 10
298.0372774862546
 20
265.6402885620622
 30
0.0
 10
298.0372774862546
 20
256.6401488616212
 30
0.0
 10
298.0372774862546
 20
256.6401488616212
 30
0.0
 10
298.3135741441716
 20
256.6401488616212
 30
0.0
 10
298.5375053507129
 20
256.4163899098543
 30
0.0
 10
298.5375053507129
 20
256.1402655067115
 30
0.0
 10
298.5375053507129
 20
255.8641411035687
 30
0.0
 10
298.3135741441716
 20
255.6402098970275
 30
0.0
 10
298.0372774862546
 20
255.6402098970275
 30
0.0
 10
297.7613253378861
 20
255.6402098970275
 30
0.0
 10
297.5373941313449
 20
255.8641411035687
 30
0.0
 10
297.5373941313449
 20
256.1402655067115
 30
0.0
 10
297.5373941313449
 20
256.1402655067115
 30
0.0
 10
293.5372937634212
 20
256.1402655067115
 30
0.0
 10
293.5372937634212
 20
256.1402655067115
 30
0.0
 10
293.5372937634212
 20
255.8641411035687
 30
0.0
 10
293.31336255688
 20
255.6402098970275
 30
0.0
 10
293.0374104085115
 20
255.6402098970275
 30
0.0
 10
292.761458260143
 20
255.6402098970275
 30
0.0
 10
292.5375270536018
 20
255.8641411035687
 30
0.0
 10
292.5375270536018
 20
256.1402655067115
 30
0.0
 10
292.5375270536018
 20
256.4163899098543
 30
0.0
 10
292.761458260143
 20
256.6401488616212
 30
0.0
 10
293.0374104085115
 20
256.6401488616212
 30
0.0
 10
293.0374104085115
 20
256.6401488616212
 30
0.0
 10
293.0374104085115
 20
265.6402885620622
 30
0.0
 10
293.0374104085115
 20
265.6402885620622
 30
0.0
 10
292.761458260143
 20
265.6402885620622
 30
0.0
 10
292.5375270536018
 20
265.8640475138291
 30
0.0
 10
292.5375270536018
 20
266.1401719169719
 30
0.0
  0
SPLINE
  5
4D
330
40
100
AcDbEntity
  8
svg2
 62
   179
420
  2038295
370
     5
100
AcDbSpline
210
0.0
220
0.0
230
1.0
 70
    11
 71
     3
 72
    17
 73
    13
 74
     0
 42
0.0000000001
 43
0.0000000001
 40
0.0
 40
0.0
 40
0.0
 40
0.0
 40
1.0
 40
1.0
 40
1.0
 40
2.0
 40
2.0
 40
2.0
 40
3.0
 40
3.0
 40
3.0
 40
4.0
 40
4.0
 40
4.0
 40
4.0
 10
8.03740776708787
 20
44.13994139521502
 30
0.0
 10
8.03740776708787
 20
43.31174044056095
 30
0.0
 10
7.365958657012677
 20
42.63994682093724
 30
0.0
 10
6.537413192810091
 20
42.63994682093724
 30
0.0
 10
5.708867728607506
 20
42.63994682093724
 30
0.0
 10
5.037418618532312
 20
43.31174044056095
 30
0.0
 10
5.037418618532312
 20
44.13994139521502
 30
0.0
 10
5.037418618532312
 20
44.96814234986908
 30
0.0
 10
5.708867728607506
 20
45.6399359694928
 30
0.0
 10
6.537413192810091
 20
45.6399359694928
 30
0.0
 10
7.365958657012677
 20
45.6399359694928
 30
0.0
 10
8.03740776708787
 20
44.96814234986908
 30
0.0
 10
8.03740776708787
 20
44.13994139521502
 30
0.0
  0
SPLINE
  5
4E
330
40
100
AcDbEntity
  8
svg2
 62
   179
420
  2038295
370
     5
100
AcDbSpline
210
0.0
220
0.0
230
1.0
 70
    11
 71
     3
 72
    53
 73
    49
 74
     0
 42
0.0000000001
 43
0.0000000001
 40
0.0
 40
0.0
 40
0.0
 40
0.0
 40
1.0
 40
1.0
 40
1.0
 40
2.0
 40
2.0
 40
2.0
 40
3.0
 40
3.0
 40
3.0
 40
4.0
 40
4.0
 40
4.0
 40
5.0
 40
5.0
 40
5.0
 40
6.0
 40
6.0
 40
6.0
 40
7.0
 40
7.0
 40
7.0
 40
8.0
 40
8.0
 40
8.0
 40
9.0
 40
9.0
 40
9.0
 40
10.0
 40
10.0
 40
10.0
 40
11.0
 40
11.0
 40
11.0
 40
12.0
 40
12.0
 40
12.0
 40
13.0
 40
13.0
 40
13.0
 40
14.0
 40
14.0
 40
14.0
 40
15.0
 40
15.0
 40
15.0
 40
16.0
 40
16.0
 40
16.0
 40
16.0
 10
3.537424044254533
 20
59.13988713799281
 30
0.0
 10
3.537424044254533
 20
59.41618379590984
 30
0.0
 10
3.761355250795773
 20
59.64011500245108
 30
0.0
 10
4.037307399164284
 20
59.64011500245108
 30
0.0
 10
4.313604057081322
 20
59.64011500245108
 30
0.0
 10
4.537535263622561
 20
59.41618379590984
 30
0.0
 10
4.537535263622561
 20
59.13988713799281
 30
0.0
 10
4.537535263622561
 20
59.13988713799281
 30
0.0
 10
8.537291121997622
 20
59.13988713799281
 30
0.0
 10
8.537291121997622
 20
59.13988713799281
 30
0.0
 10
8.537291121997622
 20
59.41618379590984
 30
0.0
 10
8.761222328538862
 20
59.64011500245108
 30
0.0
 10
9.037518986455899
 20
59.64011500245108
 30
0.0
 10
9.313471134824411
 20
59.64011500245108
 30
0.0
 10
9.53740234136565
 20
59.41618379590984
 30
0.0
 10
9.53740234136565
 20
59.13988713799281
 30
0.0
 10
9.53740234136565
 20
58.86359048007577
 30
0.0
 10
9.313471134824411
 20
58.63965927353453
 30
0.0
 10
9.037518986455899
 20
58.63965927353453
 30
0.0
 10
9.037518986455899
 20
58.63965927353453
 30
0.0
 10
9.037518986455899
 20
49.63969182786786
 30
0.0
 10
9.037518986455899
 20
49.63969182786786
 30
0.0
 10
9.313471134824411
 20
49.63969182786786
 30
0.0
 10
9.53740234136565
 20
49.41576062132662
 30
0.0
 10
9.53740234136565
 20
49.14015298250663
 30
0.0
 10
9.53740234136565
 20
48.86385632458959
 30
0.0
 10
9.313471134824411
 20
48.63992511804835
 30
0.0
 10
9.037518986455899
 20
48.63992511804835
 30
0.0
 10
8.761222328538862
 20
48.63992511804835
 30
0.0
 10
8.537291121997622
 20
48.86385632458959
 30
0.0
 10
8.537291121997622
 20
49.14015298250663
 30
0.0
 10
8.537291121997622
 20
49.14015298250663
 30
0.0
 10
4.537535263622561
 20
49.14015298250663
 30
0.0
 10
4.537535263622561
 20
49.14015298250663
 30
0.0
 10
4.537535263622561
 20
48.86385632458959
 30
0.0
 10
4.313604057081322
 20
48.63992511804835
 30
0.0
 10
4.037307399164284
 20
48.63992511804835
 30
0.0
 10
3.761355250795773
 20
48.63992511804835
 30
0.0
 10
3.537424044254533
 20
48.86385632458959
 30
0.0
 10
3.537424044254533
 20
49.14015298250663
 30
0.0
 10
3.537424044254533
 20
49.41576062132662
 30
0.0
 10
3.761355250795773
 20
49.63969182786786
 30
0.0
 10
4.037307399164284
 20
49.63969182786786
 30
0.0
 10
4.037307399164284
 20
49.63969182786786
 30
0.0
 10
4.037307399164284
 20
58.63965927353453
 30
0.0
 10
4.037307399164284
 20
58.63965927353453
 30
0.0
 10
3.761355250795773
 20
58.63965927353453
 30
0.0
 10
3.537424044254533
 20
58.86359048007577
 30
0.0
 10
3.537424044254533
 20
59.13988713799281
 30
0.0
  0
SPLINE
  5
4F
330
40
100
AcDbEntity
  8
svg2
 62
   179
420
  2038295
370
     5
100
AcDbSpline
210
0.0
220
0.0
230
1.0
 70
    11
 71
     3
 72
    53
 73
    49
 74
     0
 42
0.0000000001
 43
0.0000000001
 40
0.0
 40
0.0
 40
0.0
 40
0.0
 40
1.0
 40
1.0
 40
1.0
 40
2.0
 40
2.0
 40
2.0
 40
3.0
 40
3.0
 40
3.0
 40
4.0
 40
4.0
 40
4.0
 40
5.0
 40
5.0
 40
5.0
 40
6.0
 40
6.0
 40
6.0
 40
7.0
 40
7.0
 40
7.0
 40
8.0
 40
8.0
 40
8.0
 40
9.0
 40
9.0
 40
9.0
 40
10.0
 40
10.0
 40
10.0
 40
11.0
 40
11.0
 40
11.0
 40
12.0
 40
12.0
 40
12.0
 40
13.0
 40
13.0
 40
13.0
 40
14.0
 40
14.0
 40
14.0
 40
15.0
 40
15.0
 40
15.0
 40
16.0
 40
16.0
 40
16.0
 40
16.0
 10
3.537424044254533
 20
39.1397298079234
 30
0.0
 10
3.537424044254533
 20
39.41602646584044
 30
0.0
 10
3.761355250795773
 20
39.63995767238168
 30
0.0
 10
4.037307399164284
 20
39.63995767238168
 30
0.0
 10
4.313604057081322
 20
39.63995767238168
 30
0.0
 10
4.537535263622561
 20
39.41602646584044
 30
0.0
 10
4.537535263622561
 20
39.1397298079234
 30
0.0
 10
4.537535263622561
 20
39.1397298079234
 30
0.0
 10
8.537291121997622
 20
39.1397298079234
 30
0.0
 10
8.537291121997622
 20
39.1397298079234
 30
0.0
 10
8.537291121997622
 20
39.41602646584044
 30
0.0
 10
8.761222328538862
 20
39.63995767238168
 30
0.0
 10
9.037518986455899
 20
39.63995767238168
 30
0.0
 10
9.313471134824411
 20
39.63995767238168
 30
0.0
 10
9.53740234136565
 20
39.41602646584044
 30
0.0
 10
9.53740234136565
 20
39.1397298079234
 30
0.0
 10
9.53740234136565
 20
38.86412216910342
 30
0.0
 10
9.313471134824411
 20
38.64019096256218
 30
0.0
 10
9.037518986455899
 20
38.64019096256218
 30
0.0
 10
9.037518986455899
 20
38.64019096256218
 30
0.0
 10
9.037518986455899
 20
29.6402235168955
 30
0.0
 10
9.037518986455899
 20
29.6402235168955
 30
0.0
 10
9.313471134824411
 20
29.6402235168955
 30
0.0
 10
9.53740234136565
 20
29.41629231035426
 30
0.0
 10
9.53740234136565
 20
29.13999565243723
 30
0.0
 10
9.53740234136565
 20
28.86369899452019
 30
0.0
 10
9.313471134824411
 20
28.63976778797895
 30
0.0
 10
9.037518986455899
 20
28.63976778797895
 30
0.0
 10
8.761222328538862
 20
28.63976778797895
 30
0.0
 10
8.537291121997622
 20
28.86369899452019
 30
0.0
 10
8.537291121997622
 20
29.13999565243723
 30
0.0
 10
8.537291121997622
 20
29.13999565243723
 30
0.0
 10
4.537535263622561
 20
29.13999565243723
 30
0.0
 10
4.537535263622561
 20
29.13999565243723
 30
0.0
 10
4.537535263622561
 20
28.86369899452019
 30
0.0
 10
4.313604057081322
 20
28.63976778797895
 30
0.0
 10
4.037307399164284
 20
28.63976778797895
 30
0.0
 10
3.761355250795773
 20
28.63976778797895
 30
0.0
 10
3.537424044254533
 20
28.86369899452019
 30
0.0
 10
3.537424044254533
 20
29.13999565243723
 30
0.0
 10
3.537424044254533
 20
29.41629231035426
 30
0.0
 10
3.761355250795773
 20
29.6402235168955
 30
0.0
 10
4.037307399164284
 20
29.6402235168955
 30
0.0
 10
4.037307399164284
 20
29.6402235168955
 30
0.0
 10
4.037307399164284
 20
38.64019096256218
 30
0.0
 10
4.037307399164284
 20
38.64019096256218
 30
0.0
 10
3.761355250795773
 20
38.64019096256218
 30
0.0
 10
3.537424044254533
 20
38.86412216910342
 30
0.0
 10
3.537424044254533
 20
39.1397298079234
 30
0.0
  0
SPLINE
  5
50
330
40
100
AcDbEntity
  8
svg2
 62
   179
420
  2038295
370
     5
100
AcDbSpline
210
0.0
220
0.0
230
1.0
 70
    11
 71
     3
 72
    17
 73
    13
 74
     0
 42
0.0000000001
 43
0.0000000001
 40
0.0
 40
0.0
 40
0.0
 40
0.0
 40
1.0
 40
1.0
 40
1.0
 40
2.0
 40
2.0
 40
2.0
 40
3.0
 40
3.0
 40
3.0
 40
4.0
 40
4.0
 40
4.0
 40
4.0
 10
8.03740776708787
 20
157.7038967162164
 30
0.0
 10
8.03740776708787
 20
156.8753512520138
 30
0.0
 10
7.365958657012677
 20
156.2039021419386
 30
0.0
 10
6.537413192810091
 20
156.2039021419386
 30
0.0
 10
5.708867728607506
 20
156.2039021419386
 30
0.0
 10
5.037418618532312
 20
156.8753512520138
 30
0.0
 10
5.037418618532312
 20
157.7038967162164
 30
0.0
 10
5.037418618532312
 20
158.532442180419
 30
0.0
 10
5.708867728607506
 20
159.2038912904942
 30
0.0
 10
6.537413192810091
 20
159.2038912904942
 30
0.0
 10
7.365958657012677
 20
159.2038912904942
 30
0.0
 10
8.03740776708787
 20
158.532442180419
 30
0.0
 10
8.03740776708787
 20
157.7038967162164
 30
0.0
  0
SPLINE
  5
51
330
40
100
AcDbEntity
  8
svg2
 62
   179
420
  2038295
370
     5
100
AcDbSpline
210
0.0
220
0.0
230
1.0
 70
    11
 71
     3
 72
    53
 73
    49
 74
     0
 42
0.0000000001
 43
0.0000000001
 40
0.0
 40
0.0
 40
0.0
 40
0.0
 40
1.0
 40
1.0
 40
1.0
 40
2.0
 40
2.0
 40
2.0
 40
3.0
 40
3.0
 40
3.0
 40
4.0
 40
4.0
 40
4.0
 40
5.0
 40
5.0
 40
5.0
 40
6.0
 40
6.0
 40
6.0
 40
7.0
 40
7.0
 40
7.0
 40
8.0
 40
8.0
 40
8.0
 40
9.0
 40
9.0
 40
9.0
 40
10.0
 40
10.0
 40
10.0
 40
11.0
 40
11.0
 40
11.0
 40
12.0
 40
12.0
 40
12.0
 40
13.0
 40
13.0
 40
13.0
 40
14.0
 40
14.0
 40
14.0
 40
15.0
 40
15.0
 40
15.0
 40
16.0
 40
16.0
 40
16.0
 40
16.0
 10
3.537424044254533
 20
172.7038424589942
 30
0.0
 10
3.537424044254533
 20
172.9801391169112
 30
0.0
 10
3.761355250795773
 20
173.2040703234525
 30
0.0
 10
4.037307399164284
 20
173.2040703234525
 30
0.0
 10
4.313604057081322
 20
173.2040703234525
 30
0.0
 10
4.537535263622561
 20
172.9801391169112
 30
0.0
 10
4.537535263622561
 20
172.7038424589942
 30
0.0
 10
4.537535263622561
 20
172.7038424589942
 30
0.0
 10
8.537291121997622
 20
172.7038424589942
 30
0.0
 10
8.537291121997622
 20
172.7038424589942
 30
0.0
 10
8.537291121997622
 20
172.9801391169112
 30
0.0
 10
8.761222328538862
 20
173.2040703234525
 30
0.0
 10
9.037518986455899
 20
173.2040703234525
 30
0.0
 10
9.313471134824411
 20
173.2040703234525
 30
0.0
 10
9.53740234136565
 20
172.9801391169112
 30
0.0
 10
9.53740234136565
 20
172.7038424589942
 30
0.0
 10
9.53740234136565
 20
172.4278903106257
 30
0.0
 10
9.313471134824411
 20
172.2039591040844
 30
0.0
 10
9.037518986455899
 20
172.2039591040844
 30
0.0
 10
9.037518986455899
 20
172.2039591040844
 30
0.0
 10
9.037518986455899
 20
163.2039916584177
 30
0.0
 10
9.037518986455899
 20
163.2039916584177
 30
0.0
 10
9.313471134824411
 20
163.2039916584177
 30
0.0
 10
9.53740234136565
 20
162.9800604518765
 30
0.0
 10
9.53740234136565
 20
162.7037637939595
 30
0.0
 10
9.53740234136565
 20
162.427811645591
 30
0.0
 10
9.313471134824411
 20
162.2038804390497
 30
0.0
 10
9.037518986455899
 20
162.2038804390497
 30
0.0
 10
8.761222328538862
 20
162.2038804390497
 30
0.0
 10
8.537291121997622
 20
162.427811645591
 30
0.0
 10
8.537291121997622
 20
162.7037637939595
 30
0.0
 10
8.537291121997622
 20
162.7037637939595
 30
0.0
 10
4.537535263622561
 20
162.7037637939595
 30
0.0
 10
4.537535263622561
 20
162.7037637939595
 30
0.0
 10
4.537535263622561
 20
162.427811645591
 30
0.0
 10
4.313604057081322
 20
162.2038804390497
 30
0.0
 10
4.037307399164284
 20
162.2038804390497
 30
0.0
 10
3.761355250795773
 20
162.2038804390497
 30
0.0
 10
3.537424044254533
 20
162.427811645591
 30
0.0
 10
3.537424044254533
 20
162.7037637939595
 30
0.0
 10
3.537424044254533
 20
162.9800604518765
 30
0.0
 10
3.761355250795773
 20
163.2039916584177
 30
0.0
 10
4.037307399164284
 20
163.2039916584177
 30
0.0
 10
4.037307399164284
 20
163.2039916584177
 30
0.0
 10
4.037307399164284
 20
172.2039591040844
 30
0.0
 10
4.037307399164284
 20
172.2039591040844
 30
0.0
 10
3.761355250795773
 20
172.2039591040844
 30
0.0
 10
3.537424044254533
 20
172.4278903106257
 30
0.0
 10
3.537424044254533
 20
172.7038424589942
 30
0.0
  0
SPLINE
  5
52
330
40
100
AcDbEntity
  8
svg2
 62
   179
420
  2038295
370
     5
100
AcDbSpline
210
0.0
220
0.0
230
1.0
 70
    11
 71
     3
 72
    53
 73
    49
 74
     0
 42
0.0000000001
 43
0.0000000001
 40
0.0
 40
0.0
 40
0.0
 40
0.0
 40
1.0
 40
1.0
 40
1.0
 40
2.0
 40
2.0
 40
2.0
 40
3.0
 40
3.0
 40
3.0
 40
4.0
 40
4.0
 40
4.0
 40
5.0
 40
5.0
 40
5.0
 40
6.0
 40
6.0
 40
6.0
 40
7.0
 40
7.0
 40
7.0
 40
8.0
 40
8.0
 40
8.0
 40
9.0
 40
9.0
 40
9.0
 40
10.0
 40
10.0
 40
10.0
 40
11.0
 40
11.0
 40
11.0
 40
12.0
 40
12.0
 40
12.0
 40
13.0
 40
13.0
 40
13.0
 40
14.0
 40
14.0
 40
14.0
 40
15.0
 40
15.0
 40
15.0
 40
16.0
 40
16.0
 40
16.0
 40
16.0
 10
3.537424044254533
 20
152.7040296384733
 30
0.0
 10
3.537424044254533
 20
152.9799817868418
 30
0.0
 10
3.761355250795773
 20
153.2039129933831
 30
0.0
 10
4.037307399164284
 20
153.2039129933831
 30
0.0
 10
4.313604057081322
 20
153.2039129933831
 30
0.0
 10
4.537535263622561
 20
152.9799817868418
 30
0.0
 10
4.537535263622561
 20
152.7040296384733
 30
0.0
 10
4.537535263622561
 20
152.7040296384733
 30
0.0
 10
8.537291121997622
 20
152.7040296384733
 30
0.0
 10
8.537291121997622
 20
152.7040296384733
 30
0.0
 10
8.537291121997622
 20
152.9799817868418
 30
0.0
 10
8.761222328538862
 20
153.2039129933831
 30
0.0
 10
9.037518986455899
 20
153.2039129933831
 30
0.0
 10
9.313471134824411
 20
153.2039129933831
 30
0.0
 10
9.53740234136565
 20
152.9799817868418
 30
0.0
 10
9.53740234136565
 20
152.7040296384733
 30
0.0
 10
9.53740234136565
 20
152.4277329805563
 30
0.0
 10
9.313471134824411
 20
152.203801774015
 30
0.0
 10
9.037518986455899
 20
152.203801774015
 30
0.0
 10
9.037518986455899
 20
152.203801774015
 30
0.0
 10
9.037518986455899
 20
143.2036620735741
 30
0.0
 10
9.037518986455899
 20
143.2036620735741
 30
0.0
 10
9.313471134824411
 20
143.2036620735741
 30
0.0
 10
9.53740234136565
 20
142.9797308670329
 30
0.0
 10
9.53740234136565
 20
142.7041232282129
 30
0.0
 10
9.53740234136565
 20
142.4278265702958
 30
0.0
 10
9.313471134824411
 20
142.2038953637546
 30
0.0
 10
9.037518986455899
 20
142.2038953637546
 30
0.0
 10
8.761222328538862
 20
142.2038953637546
 30
0.0
 10
8.537291121997622
 20
142.4278265702958
 30
0.0
 10
8.537291121997622
 20
142.7041232282129
 30
0.0
 10
8.537291121997622
 20
142.7041232282129
 30
0.0
 10
4.537535263622561
 20
142.7041232282129
 30
0.0
 10
4.537535263622561
 20
142.7041232282129
 30
0.0
 10
4.537535263622561
 20
142.4278265702958
 30
0.0
 10
4.313604057081322
 20
142.2038953637546
 30
0.0
 10
4.037307399164284
 20
142.2038953637546
 30
0.0
 10
3.761355250795773
 20
142.2038953637546
 30
0.0
 10
3.537424044254533
 20
142.4278265702958
 30
0.0
 10
3.537424044254533
 20
142.7041232282129
 30
0.0
 10
3.537424044254533
 20
142.9797308670329
 30
0.0
 10
3.761355250795773
 20
143.2036620735741
 30
0.0
 10
4.037307399164284
 20
143.2036620735741
 30
0.0
 10
4.037307399164284
 20
143.2036620735741
 30
0.0
 10
4.037307399164284
 20
152.203801774015
 30
0.0
 10
4.037307399164284
 20
152.203801774015
 30
0.0
 10
3.761355250795773
 20
152.203801774015
 30
0.0
 10
3.537424044254533
 20
152.4277329805563
 30
0.0
 10
3.537424044254533
 20
152.7040296384733
 30
0.0
  0
SPLINE
  5
53
330
40
100
AcDbEntity
  8
svg2
 62
   179
420
  2038295
370
     5
100
AcDbSpline
210
0.0
220
0.0
230
1.0
 70
    11
 71
     3
 72
    17
 73
    13
 74
     0
 42
0.0000000001
 43
0.0000000001
 40
0.0
 40
0.0
 40
0.0
 40
0.0
 40
1.0
 40
1.0
 40
1.0
 40
2.0
 40
2.0
 40
2.0
 40
3.0
 40
3.0
 40
3.0
 40
4.0
 40
4.0
 40
4.0
 40
4.0
 10
8.03740776708787
 20
271.1402112494893
 30
0.0
 10
8.03740776708787
 20
270.3118380400609
 30
0.0
 10
7.365958657012677
 20
269.6402166752115
 30
0.0
 10
6.537413192810091
 20
269.6402166752115
 30
0.0
 10
5.708867728607506
 20
269.6402166752115
 30
0.0
 10
5.037418618532312
 20
270.3118380400609
 30
0.0
 10
5.037418618532312
 20
271.1402112494893
 30
0.0
 10
5.037418618532312
 20
271.9685844589176
 30
0.0
 10
5.708867728607506
 20
272.640205823767
 30
0.0
 10
6.537413192810091
 20
272.640205823767
 30
0.0
 10
7.365958657012677
 20
272.640205823767
 30
0.0
 10
8.03740776708787
 20
271.9685844589176
 30
0.0
 10
8.03740776708787
 20
271.1402112494893
 30
0.0
  0
SPLINE
  5
54
330
40
100
AcDbEntity
  8
svg2
 62
   179
420
  2038295
370
     5
100
AcDbSpline
210
0.0
220
0.0
230
1.0
 70
    11
 71
     3
 72
    53
 73
    49
 74
     0
 42
0.0000000001
 43
0.0000000001
 40
0.0
 40
0.0
 40
0.0
 40
0.0
 40
1.0
 40
1.0
 40
1.0
 40
2.0
 40
2.0
 40
2.0
 40
3.0
 40
3.0
 40
3.0
 40
4.0
 40
4.0
 40
4.0
 40
5.0
 40
5.0
 40
5.0
 40
6.0
 40
6.0
 40
6.0
 40
7.0
 40
7.0
 40
7.0
 40
8.0
 40
8.0
 40
8.0
 40
9.0
 40
9.0
 40
9.0
 40
10.0
 40
10.0
 40
10.0
 40
11.0
 40
11.0
 40
11.0
 40
12.0
 40
12.0
 40
12.0
 40
13.0
 40
13.0
 40
13.0
 40
14.0
 40
14.0
 40
14.0
 40
15.0
 40
15.0
 40
15.0
 40
16.0
 40
16.0
 40
16.0
 40
16.0
 10
3.537424044254533
 20
286.1401569922671
 30
0.0
 10
3.537424044254533
 20
286.4162813954098
 30
0.0
 10
3.761355250795773
 20
286.6402126019511
 30
0.0
 10
4.037307399164284
 20
286.6402126019511
 30
0.0
 10
4.313604057081322
 20
286.6402126019511
 30
0.0
 10
4.537535263622561
 20
286.4162813954098
 30
0.0
 10
4.537535263622561
 20
286.1401569922671
 30
0.0
 10
4.537535263622561
 20
286.1401569922671
 30
0.0
 10
8.537291121997622
 20
286.1401569922671
 30
0.0
 10
8.537291121997622
 20
286.1401569922671
 30
0.0
 10
8.537291121997622
 20
286.4162813954098
 30
0.0
 10
8.761222328538862
 20
286.6402126019511
 30
0.0
 10
9.037518986455899
 20
286.6402126019511
 30
0.0
 10
9.313471134824411
 20
286.6402126019511
 30
0.0
 10
9.53740234136565
 20
286.4162813954098
 30
0.0
 10
9.53740234136565
 20
286.1401569922671
 30
0.0
 10
9.53740234136565
 20
285.8642048438986
 30
0.0
 10
9.313471134824411
 20
285.6402736373573
 30
0.0
 10
9.037518986455899
 20
285.6402736373573
 30
0.0
 10
9.037518986455899
 20
285.6402736373573
 30
0.0
 10
9.037518986455899
 20
276.6403061916906
 30
0.0
 10
9.037518986455899
 20
276.6403061916906
 30
0.0
 10
9.313471134824411
 20
276.6403061916906
 30
0.0
 10
9.53740234136565
 20
276.4163749851494
 30
0.0
 10
9.53740234136565
 20
276.1402505820066
 30
0.0
 10
9.53740234136565
 20
275.8641261788638
 30
0.0
 10
9.313471134824411
 20
275.6401949723226
 30
0.0
 10
9.037518986455899
 20
275.6401949723226
 30
0.0
 10
8.761222328538862
 20
275.6401949723226
 30
0.0
 10
8.537291121997622
 20
275.8641261788638
 30
0.0
 10
8.537291121997622
 20
276.1402505820066
 30
0.0
 10
8.537291121997622
 20
276.1402505820066
 30
0.0
 10
4.537535263622561
 20
276.1402505820066
 30
0.0
 10
4.537535263622561
 20
276.1402505820066
 30
0.0
 10
4.537535263622561
 20
275.8641261788638
 30
0.0
 10
4.313604057081322
 20
275.6401949723226
 30
0.0
 10
4.037307399164284
 20
275.6401949723226
 30
0.0
 10
3.761355250795773
 20
275.6401949723226
 30
0.0
 10
3.537424044254533
 20
275.8641261788638
 30
0.0
 10
3.537424044254533
 20
276.1402505820066
 30
0.0
 10
3.537424044254533
 20
276.4163749851494
 30
0.0
 10
3.761355250795773
 20
276.6403061916906
 30
0.0
 10
4.037307399164284
 20
276.6403061916906
 30
0.0
 10
4.037307399164284
 20
276.6403061916906
 30
0.0
 10
4.037307399164284
 20
285.6402736373573
 30
0.0
 10
4.037307399164284
 20
285.6402736373573
 30
0.0
 10
3.761355250795773
 20
285.6402736373573
 30
0.0
 10
3.537424044254533
 20
285.8642048438986
 30
0.0
 10
3.537424044254533
 20
286.1401569922671
 30
0.0
  0
SPLINE
  5
55
330
40
100
AcDbEntity
  8
svg2
 62
   179
420
  2038295
370
     5
100
AcDbSpline
210
0.0
220
0.0
230
1.0
 70
    11
 71
     3
 72
    53
 73
    49
 74
     0
 42
0.0000000001
 43
0.0000000001
 40
0.0
 40
0.0
 40
0.0
 40
0.0
 40
1.0
 40
1.0
 40
1.0
 40
2.0
 40
2.0
 40
2.0
 40
3.0
 40
3.0
 40
3.0
 40
4.0
 40
4.0
 40
4.0
 40
5.0
 40
5.0
 40
5.0
 40
6.0
 40
6.0
 40
6.0
 40
7.0
 40
7.0
 40
7.0
 40
8.0
 40
8.0
 40
8.0
 40
9.0
 40
9.0
 40
9.0
 40
10.0
 40
10.0
 40
10.0
 40
11.0
 40
11.0
 40
11.0
 40
12.0
 40
12.0
 40
12.0
 40
13.0
 40
13.0
 40
13.0
 40
14.0
 40
14.0
 40
14.0
 40
15.0
 40
15.0
 40
15.0
 40
16.0
 40
16.0
 40
16.0
 40
16.0
 10
3.537424044254533
 20
266.1401719169719
 30
0.0
 10
3.537424044254533
 20
266.4162963201147
 30
0.0
 10
3.761355250795773
 20
266.6402275266559
 30
0.0
 10
4.037307399164284
 20
266.6402275266559
 30
0.0
 10
4.313604057081322
 20
266.6402275266559
 30
0.0
 10
4.537535263622561
 20
266.4162963201147
 30
0.0
 10
4.537535263622561
 20
266.1401719169719
 30
0.0
 10
4.537535263622561
 20
266.1401719169719
 30
0.0
 10
8.537291121997622
 20
266.1401719169719
 30
0.0
 10
8.537291121997622
 20
266.1401719169719
 30
0.0
 10
8.537291121997622
 20
266.4162963201147
 30
0.0
 10
8.761222328538862
 20
266.6402275266559
 30
0.0
 10
9.037518986455899
 20
266.6402275266559
 30
0.0
 10
9.313471134824411
 20
266.6402275266559
 30
0.0
 10
9.53740234136565
 20
266.4162963201147
 30
0.0
 10
9.53740234136565
 20
266.1401719169719
 30
0.0
 10
9.53740234136565
 20
265.8640475138291
 30
0.0
 10
9.313471134824411
 20
265.6402885620622
 30
0.0
 10
9.037518986455899
 20
265.6402885620622
 30
0.0
 10
9.037518986455899
 20
265.6402885620622
 30
0.0
 10
9.037518986455899
 20
256.6401488616212
 30
0.0
 10
9.037518986455899
 20
256.6401488616212
 30
0.0
 10
9.313471134824411
 20
256.6401488616212
 30
0.0
 10
9.53740234136565
 20
256.4163899098543
 30
0.0
 10
9.53740234136565
 20
256.1402655067115
 30
0.0
 10
9.53740234136565
 20
255.8641411035687
 30
0.0
 10
9.313471134824411
 20
255.6402098970275
 30
0.0
 10
9.037518986455899
 20
255.6402098970275
 30
0.0
 10
8.761222328538862
 20
255.6402098970275
 30
0.0
 10
8.537291121997622
 20
255.8641411035687
 30
0.0
 10
8.537291121997622
 20
256.1402655067115
 30
0.0
 10
8.537291121997622
 20
256.1402655067115
 30
0.0
 10
4.537535263622561
 20
256.1402655067115
 30
0.0
 10
4.537535263622561
 20
256.1402655067115
 30
0.0
 10
4.537535263622561
 20
255.8641411035687
 30
0.0
 10
4.313604057081322
 20
255.6402098970275
 30
0.0
 10
4.037307399164284
 20
255.6402098970275
 30
0.0
 10
3.761355250795773
 20
255.6402098970275
 30
0.0
 10
3.537424044254533
 20
255.8641411035687
 30
0.0
 10
3.537424044254533
 20
256.1402655067115
 30
0.0
 10
3.537424044254533
 20
256.4163899098543
 30
0.0
 10
3.761355250795773
 20
256.6401488616212
 30
0.0
 10
4.037307399164284
 20
256.6401488616212
 30
0.0
 10
4.037307399164284
 20
256.6401488616212
 30
0.0
 10
4.037307399164284
 20
265.6402885620622
 30
0.0
 10
4.037307399164284
 20
265.6402885620622
 30
0.0
 10
3.761355250795773
 20
265.6402885620622
 30
0.0
 10
3.537424044254533
 20
265.8640475138291
 30
0.0
 10
3.537424044254533
 20
266.1401719169719
 30
0.0
  0
SPLINE
  5
56
330
40
100
AcDbEntity
  8
svg2
 62
   179
420
  2038295
370
     5
100
AcDbSpline
210
0.0
220
0.0
230
1.0
 70
    11
 71
     3
 72
   533
 73
   529
 74
     0
 42
0.0000000001
 43
0.0000000001
 40
0.0
 40
0.0
 40
0.0
 40
0.0
 40
1.0
 40
1.0
 40
1.0
 40
2.0
 40
2.0
 40
2.0
 40
3.0
 40
3.0
 40
3.0
 40
4.0
 40
4.0
 40
4.0
 40
5.0
 40
5.0
 40
5.0
 40
6.0
 40
6.0
 40
6.0
 40
7.0
 40
7.0
 40
7.0
 40
8.0
 40
8.0
 40
8.0
 40
9.0
 40
9.0
 40
9.0
 40
10.0
 40
10.0
 40
10.0
 40
11.0
 40
11.0
 40
11.0
 40
12.0
 40
12.0
 40
12.0
 40
13.0
 40
13.0
 40
13.0
 40
14.0
 40
14.0
 40
14.0
 40
15.0
 40
15.0
 40
15.0
 40
16.0
 40
16.0
 40
16.0
 40
17.0
 40
17.0
 40
17.0
 40
18.0
 40
18.0
 40
18.0
 40
19.0
 40
19.0
 40
19.0
 40
20.0
 40
20.0
 40
20.0
 40
21.0
 40
21.0
 40
21.0
 40
22.0
 40
22.0
 40
22.0
 40
23.0
 40
23.0
 40
23.0
 40
24.0
 40
24.0
 40
24.0
 40
25.0
 40
25.0
 40
25.0
 40
26.0
 40
26.0
 40
26.0
 40
27.0
 40
27.0
 40
27.0
 40
28.0
 40
28.0
 40
28.0
 40
29.0
 40
29.0
 40
29.0
 40
30.0
 40
30.0
 40
30.0
 40
31.0
 40
31.0
 40
31.0
 40
32.0
 40
32.0
 40
32.0
 40
33.0
 40
33.0
 40
33.0
 40
34.0
 40
34.0
 40
34.0
 40
35.0
 40
35.0
 40
35.0
 40
36.0
 40
36.0
 40
36.0
 40
37.0
 40
37.0
 40
37.0
 40
38.0
 40
38.0
 40
38.0
 40
39.0
 40
39.0
 40
39.0
 40
40.0
 40
40.0
 40
40.0
 40
41.0
 40
41.0
 40
41.0
 40
42.0
 40
42.0
 40
42.0
 40
43.0
 40
43.0
 40
43.0
 40
44.0
 40
44.0
 40
44.0
 40
45.0
 40
45.0
 40
45.0
 40
46.0
 40
46.0
 40
46.0
 40
47.0
 40
47.0
 40
47.0
 40
48.0
 40
48.0
 40
48.0
 40
49.0
 40
49.0
 40
49.0
 40
50.0
 40
50.0
 40
50.0
 40
51.0
 40
51.0
 40
51.0
 40
52.0
 40
52.0
 40
52.0
 40
53.0
 40
53.0
 40
53.0
 40
54.0
 40
54.0
 40
54.0
 40
55.0
 40
55.0
 40
55.0
 40
56.0
 40
56.0
 40
56.0
 40
57.0
 40
57.0
 40
57.0
 40
58.0
 40
58.0
 40
58.0
 40
59.0
 40
59.0
 40
59.0
 40
60.0
 40
60.0
 40
60.0
 40
61.0
 40
61.0
 40
61.0
 40
62.0
 40
62.0
 40
62.0
 40
63.0
 40
63.0
 40
63.0
 40
64.0
 40
64.0
 40
64.0
 40
65.0
 40
65.0
 40
65.0
 40
66.0
 40
66.0
 40
66.0
 40
67.0
 40
67.0
 40
67.0
 40
68.0
 40
68.0
 40
68.0
 40
69.0
 40
69.0
 40
69.0
 40
70.0
 40
70.0
 40
70.0
 40
71.0
 40
71.0
 40
71.0
 40
72.0
 40
72.0
 40
72.0
 40
73.0
 40
73.0
 40
73.0
 40
74.0
 40
74.0
 40
74.0
 40
75.0
 40
75.0
 40
75.0
 40
76.0
 40
76.0
 40
76.0
 40
77.0
 40
77.0
 40
77.0
 40
78.0
 40
78.0
 40
78.0
 40
79.0
 40
79.0
 40
79.0
 40
80.0
 40
80.0
 40
80.0
 40
81.0
 40
81.0
 40
81.0
 40
82.0
 40
82.0
 40
82.0
 40
83.0
 40
83.0
 40
83.0
 40
84.0
 40
84.0
 40
84.0
 40
85.0
 40
85.0
 40
85.0
 40
86.0
 40
86.0
 40
86.0
 40
87.0
 40
87.0
 40
87.0
 40
88.0
 40
88.0
 40
88.0
 40
89.0
 40
89.0
 40
89.0
 40
90.0
 40
90.0
 40
90.0
 40
91.0
 40
91.0
 40
91.0
 40
92.0
 40
92.0
 40
92.0
 40
93.0
 40
93.0
 40
93.0
 40
94.0
 40
94.0
 40
94.0
 40
95.0
 40
95.0
 40
95.0
 40
96.0
 40
96.0
 40
96.0
 40
97.0
 40
97.0
 40
97.0
 40
98.0
 40
98.0
 40
98.0
 40
99.0
 40
99.0
 40
99.0
 40
100.0
 40
100.0
 40
100.0
 40
101.0
 40
101.0
 40
101.0
 40
102.0
 40
102.0
 40
102.0
 40
103.0
 40
103.0
 40
103.0
 40
104.0
 40
104.0
 40
104.0
 40
105.0
 40
105.0
 40
105.0
 40
106.0
 40
106.0
 40
106.0
 40
107.0
 40
107.0
 40
107.0
 40
108.0
 40
108.0
 40
108.0
 40
109.0
 40
109.0
 40
109.0
 40
110.0
 40
110.0
 40
110.0
 40
111.0
 40
111.0
 40
111.0
 40
112.0
 40
112.0
 40
112.0
 40
113.0
 40
113.0
 40
113.0
 40
114.0
 40
114.0
 40
114.0
 40
115.0
 40
115.0
 40
115.0
 40
116.0
 40
116.0
 40
116.0
 40
117.0
 40
117.0
 40
117.0
 40
118.0
 40
118.0
 40
118.0
 40
119.0
 40
119.0
 40
119.0
 40
120.0
 40
120.0
 40
120.0
 40
121.0
 40
121.0
 40
121.0
 40
122.0
 40
122.0
 40
122.0
 40
123.0
 40
123.0
 40
123.0
 40
124.0
 40
124.0
 40
124.0
 40
125.0
 40
125.0
 40
125.0
 40
126.0
 40
126.0
 40
126.0
 40
127.0
 40
127.0
 40
127.0
 40
128.0
 40
128.0
 40
128.0
 40
129.0
 40
129.0
 40
129.0
 40
130.0
 40
130.0
 40
130.0
 40
131.0
 40
131.0
 40
131.0
 40
132.0
 40
132.0
 40
132.0
 40
133.0
 40
133.0
 40
133.0
 40
134.0
 40
134.0
 40
134.0
 40
135.0
 40
135.0
 40
135.0
 40
136.0
 40
136.0
 40
136.0
 40
137.0
 40
137.0
 40
137.0
 40
138.0
 40
138.0
 40
138.0
 40
139.0
 40
139.0
 40
139.0
 40
140.0
 40
140.0
 40
140.0
 40
141.0
 40
141.0
 40
141.0
 40
142.0
 40
142.0
 40
142.0
 40
143.0
 40
143.0
 40
143.0
 40
144.0
 40
144.0
 40
144.0
 40
145.0
 40
145.0
 40
145.0
 40
146.0
 40
146.0
 40
146.0
 40
147.0
 40
147.0
 40
147.0
 40
148.0
 40
148.0
 40
148.0
 40
149.0
 40
149.0
 40
149.0
 40
150.0
 40
150.0
 40
150.0
 40
151.0
 40
151.0
 40
151.0
 40
152.0
 40
152.0
 40
152.0
 40
153.0
 40
153.0
 40
153.0
 40
154.0
 40
154.0
 40
154.0
 40
155.0
 40
155.0
 40
155.0
 40
156.0
 40
156.0
 40
156.0
 40
157.0
 40
157.0
 40
157.0
 40
158.0
 40
158.0
 40
158.0
 40
159.0
 40
159.0
 40
159.0
 40
160.0
 40
160.0
 40
160.0
 40
161.0
 40
161.0
 40
161.0
 40
162.0
 40
162.0
 40
162.0
 40
163.0
 40
163.0
 40
163.0
 40
164.0
 40
164.0
 40
164.0
 40
165.0
 40
165.0
 40
165.0
 40
166.0
 40
166.0
 40
166.0
 40
167.0
 40
167.0
 40
167.0
 40
168.0
 40
168.0
 40
168.0
 40
169.0
 40
169.0
 40
169.0
 40
170.0
 40
170.0
 40
170.0
 40
171.0
 40
171.0
 40
171.0
 40
172.0
 40
172.0
 40
172.0
 40
173.0
 40
173.0
 40
173.0
 40
174.0
 40
174.0
 40
174.0
 40
175.0
 40
175.0
 40
175.0
 40
176.0
 40
176.0
 40
176.0
 40
176.0
 10
1.037318250608726
 20
299.1402248058573
 30
0.0
 10
1.037318250608726
 20
299.1402248058573
 30
0.0
 10
301.0372666348101
 20
299.1402248058573
 30
0.0
 10
301.0372666348101
 20
299.1402248058573
 30
0.0
 10
301.0372666348101
 20
299.1402248058573
 30
0.0
 10
301.0372666348101
 20
16.10719943173709
 30
0.0
 10
301.0372666348101
 20
16.10719943173709
 30
0.0
 10
301.0372666348101
 20
16.10719943173709
 30
0.0
 10
301.0372666348101
 20
13.10721028318153
 30
0.0
 10
301.0372666348101
 20
13.10721028318153
 30
0.0
 10
301.0372666348101
 20
13.10721028318153
 30
0.0
 10
291.0375324793239
 20
13.10721028318153
 30
0.0
 10
291.0375324793239
 20
13.10721028318153
 30
0.0
 10
291.0375324793239
 20
13.10721028318153
 30
0.0
 10
290.7171385991957
 20
13.10721028318153
 30
0.0
 10
290.7171385991957
 20
13.10721028318153
 30
0.0
 10
290.7171385991957
 20
13.10721028318153
 30
0.0
 10
286.5375487564907
 20
13.10721028318153
 30
0.0
 10
286.5375487564907
 20
13.10721028318153
 30
0.0
 10
286.5375487564907
 20
13.38350694109857
 30
0.0
 10
286.3136175499494
 20
13.60743814763981
 30
0.0
 10
286.0373208920324
 20
13.60743814763981
 30
0.0
 10
285.7613687436639
 20
13.60743814763981
 30
0.0
 10
285.5374375371226
 20
13.38350694109857
 30
0.0
 10
285.5374375371226
 20
13.10721028318153
 30
0.0
 10
285.5374375371226
 20
12.8309136252645
 30
0.0
 10
285.7613687436639
 20
12.60698241872326
 30
0.0
 10
286.0373208920324
 20
12.60698241872326
 30
0.0
 10
286.0373208920324
 20
12.60698241872326
 30
0.0
 10
286.0373208920324
 20
9.10745442480647
 30
0.0
 10
286.0373208920324
 20
9.10745442480647
 30
0.0
 10
286.0373208920324
 20
9.10745442480647
 30
0.0
 10
276.0372422269976
 20
9.10745442480647
 30
0.0
 10
276.0372422269976
 20
9.10745442480647
 30
0.0
 10
276.0372422269976
 20
9.10745442480647
 30
0.0
 10
276.0372422269976
 20
12.60698241872326
 30
0.0
 10
276.0372422269976
 20
12.60698241872326
 30
0.0
 10
276.3135388849147
 20
12.60698241872326
 30
0.0
 10
276.5374700914559
 20
12.8309136252645
 30
0.0
 10
276.5374700914559
 20
13.10721028318153
 30
0.0
 10
276.5374700914559
 20
13.38350694109857
 30
0.0
 10
276.3135388849147
 20
13.60743814763981
 30
0.0
 10
276.0372422269976
 20
13.60743814763981
 30
0.0
 10
275.7612900786291
 20
13.60743814763981
 30
0.0
 10
275.5373588720879
 20
13.38350694109857
 30
0.0
 10
275.5373588720879
 20
13.10721028318153
 30
0.0
 10
275.5373588720879
 20
13.10721028318153
 30
0.0
 10
271.0373751492546
 20
13.10721028318153
 30
0.0
 10
271.0373751492546
 20
13.10721028318153
 30
0.0
 10
271.0373751492546
 20
13.10721028318153
 30
0.0
 10
270.7169812691263
 20
13.10721028318153
 30
0.0
 10
270.7169812691263
 20
13.10721028318153
 30
0.0
 10
270.7169812691263
 20
13.10721028318153
 30
0.0
 10
266.5373914264212
 20
13.10721028318153
 30
0.0
 10
266.5373914264212
 20
13.10721028318153
 30
0.0
 10
266.5373914264212
 20
13.38350694109857
 30
0.0
 10
266.31346021988
 20
13.60743814763981
 30
0.0
 10
266.0371635619629
 20
13.60743814763981
 30
0.0
 10
265.7612114135944
 20
13.60743814763981
 30
0.0
 10
265.5372802070532
 20
13.38350694109857
 30
0.0
 10
265.5372802070532
 20
13.10721028318153
 30
0.0
 10
265.5372802070532
 20
12.8309136252645
 30
0.0
 10
265.7612114135944
 20
12.60698241872326
 30
0.0
 10
266.0371635619629
 20
12.60698241872326
 30
0.0
 10
266.0371635619629
 20
12.60698241872326
 30
0.0
 10
266.0371635619629
 20
9.10745442480647
 30
0.0
 10
266.0371635619629
 20
9.10745442480647
 30
0.0
 10
266.0371635619629
 20
9.10745442480647
 30
0.0
 10
256.0374294064767
 20
9.10745442480647
 30
0.0
 10
256.0374294064767
 20
9.10745442480647
 30
0.0
 10
256.0374294064767
 20
9.10745442480647
 30
0.0
 10
256.0374294064767
 20
12.60698241872326
 30
0.0
 10
256.0374294064767
 20
12.60698241872326
 30
0.0
 10
256.3133815548453
 20
12.60698241872326
 30
0.0
 10
256.5373127613865
 20
12.8309136252645
 30
0.0
 10
256.5373127613865
 20
13.10721028318153
 30
0.0
 10
256.5373127613865
 20
13.38350694109857
 30
0.0
 10
256.3133815548453
 20
13.60743814763981
 30
0.0
 10
256.0374294064767
 20
13.60743814763981
 30
0.0
 10
255.7611327485597
 20
13.60743814763981
 30
0.0
 10
255.5372015420185
 20
13.38350694109857
 30
0.0
 10
255.5372015420185
 20
13.10721028318153
 30
0.0
 10
255.5372015420185
 20
13.10721028318153
 30
0.0
 10
251.0372178191851
 20
13.10721028318153
 30
0.0
 10
251.0372178191851
 20
13.10721028318153
 30
0.0
 10
251.0372178191851
 20
13.10721028318153
 30
0.0
 10
250.7168239390569
 20
13.10721028318153
 30
0.0
 10
250.7168239390569
 20
13.10721028318153
 30
0.0
 10
250.7168239390569
 20
13.10721028318153
 30
0.0
 10
246.5372340963518
 20
13.10721028318153
 30
0.0
 10
246.5372340963518
 20
13.10721028318153
 30
0.0
 10
246.5372340963518
 20
13.38350694109857
 30
0.0
 10
246.3133028898106
 20
13.60743814763981
 30
0.0
 10
246.0373507414421
 20
13.60743814763981
 30
0.0
 10
245.7613985930736
 20
13.60743814763981
 30
0.0
 10
245.5374673865323
 20
13.38350694109857
 30
0.0
 10
245.5374673865323
 20
13.10721028318153
 30
0.0
 10
245.5374673865323
 20
12.8309136252645
 30
0.0
 10
245.7613985930736
 20
12.60698241872326
 30
0.0
 10
246.0373507414421
 20
12.60698241872326
 30
0.0
 10
246.0373507414421
 20
12.60698241872326
 30
0.0
 10
246.0373507414421
 20
9.10745442480647
 30
0.0
 10
246.0373507414421
 20
9.10745442480647
 30
0.0
 10
246.0373507414421
 20
9.10745442480647
 30
0.0
 10
236.0372720764074
 20
9.10745442480647
 30
0.0
 10
236.0372720764074
 20
9.10745442480647
 30
0.0
 10
236.0372720764074
 20
9.10745442480647
 30
0.0
 10
236.0372720764074
 20
12.60698241872326
 30
0.0
 10
236.0372720764074
 20
12.60698241872326
 30
0.0
 10
236.3135687343244
 20
12.60698241872326
 30
0.0
 10
236.5374999408656
 20
12.8309136252645
 30
0.0
 10
236.5374999408656
 20
13.10721028318153
 30
0.0
 10
236.5374999408656
 20
13.38350694109857
 30
0.0
 10
236.3135687343244
 20
13.60743814763981
 30
0.0
 10
236.0372720764074
 20
13.60743814763981
 30
0.0
 10
235.7613199280389
 20
13.60743814763981
 30
0.0
 10
235.5373887214976
 20
13.38350694109857
 30
0.0
 10
235.5373887214976
 20
13.10721028318153
 30
0.0
 10
235.5373887214976
 20
13.10721028318153
 30
0.0
 10
231.0374049986643
 20
13.10721028318153
 30
0.0
 10
231.0374049986643
 20
13.10721028318153
 30
0.0
 10
231.0374049986643
 20
13.10721028318153
 30
0.0
 10
230.717011118536
 20
13.10721028318153
 30
0.0
 10
230.717011118536
 20
13.10721028318153
 30
0.0
 10
230.717011118536
 20
13.10721028318153
 30
0.0
 10
226.5374212758309
 20
13.10721028318153
 30
0.0
 10
226.5374212758309
 20
13.10721028318153
 30
0.0
 10
226.5374212758309
 20
13.38350694109857
 30
0.0
 10
226.3134900692897
 20
13.60743814763981
 30
0.0
 10
226.0375379209212
 20
13.60743814763981
 30
0.0
 10
225.7612412630041
 20
13.60743814763981
 30
0.0
 10
225.5373100564629
 20
13.38350694109857
 30
0.0
 10
225.5373100564629
 20
13.10721028318153
 30
0.0
 10
225.5373100564629
 20
12.8309136252645
 30
0.0
 10
225.7612412630041
 20
12.60698241872326
 30
0.0
 10
226.0375379209212
 20
12.60698241872326
 30
0.0
 10
226.0375379209212
 20
12.60698241872326
 30
0.0
 10
226.0375379209212
 20
9.10745442480647
 30
0.0
 10
226.0375379209212
 20
9.10745442480647
 30
0.0
 10
226.0375379209212
 20
9.10745442480647
 30
0.0
 10
216.0374592558865
 20
9.10745442480647
 30
0.0
 10
216.0374592558865
 20
9.10745442480647
 30
0.0
 10
216.0374592558865
 20
9.10745442480647
 30
0.0
 10
216.0374592558865
 20
12.60698241872326
 30
0.0
 10
216.0374592558865
 20
12.60698241872326
 30
0.0
 10
216.313411404255
 20
12.60698241872326
 30
0.0
 10
216.5373426107962
 20
12.8309136252645
 30
0.0
 10
216.5373426107962
 20
13.10721028318153
 30
0.0
 10
216.5373426107962
 20
13.38350694109857
 30
0.0
 10
216.313411404255
 20
13.60743814763981
 30
0.0
 10
216.0374592558865
 20
13.60743814763981
 30
0.0
 10
215.7611625979694
 20
13.60743814763981
 30
0.0
 10
215.5372313914282
 20
13.38350694109857
 30
0.0
 10
215.5372313914282
 20
13.10721028318153
 30
0.0
 10
215.5372313914282
 20
13.10721028318153
 30
0.0
 10
211.0372476685949
 20
13.10721028318153
 30
0.0
 10
211.0372476685949
 20
13.10721028318153
 30
0.0
 10
211.0372476685949
 20
13.10721028318153
 30
0.0
 10
210.7168537884666
 20
13.10721028318153
 30
0.0
 10
210.7168537884666
 20
13.10721028318153
 30
0.0
 10
210.7168537884666
 20
13.10721028318153
 30
0.0
 10
206.5372639457615
 20
13.10721028318153
 30
0.0
 10
206.5372639457615
 20
13.10721028318153
 30
0.0
 10
206.5372639457615
 20
13.38350694109857
 30
0.0
 10
206.3133327392203
 20
13.60743814763981
 30
0.0
 10
206.0373805908518
 20
13.60743814763981
 30
0.0
 10
205.7614284424833
 20
13.60743814763981
 30
0.0
 10
205.537497235942
 20
13.38350694109857
 30
0.0
 10
205.537497235942
 20
13.10721028318153
 30
0.0
 10
205.537497235942
 20
12.8309136252645
 30
0.0
 10
205.7614284424833
 20
12.60698241872326
 30
0.0
 10
206.0373805908518
 20
12.60698241872326
 30
0.0
 10
206.0373805908518
 20
12.60698241872326
 30
0.0
 10
206.0373805908518
 20
9.10745442480647
 30
0.0
 10
206.0373805908518
 20
9.10745442480647
 30
0.0
 10
206.0373805908518
 20
9.10745442480647
 30
0.0
 10
196.0373019258171
 20
9.10745442480647
 30
0.0
 10
196.0373019258171
 20
9.10745442480647
 30
0.0
 10
196.0373019258171
 20
9.10745442480647
 30
0.0
 10
196.0373019258171
 20
12.60698241872326
 30
0.0
 10
196.0373019258171
 20
12.60698241872326
 30
0.0
 10
196.3135985837341
 20
12.60698241872326
 30
0.0
 10
196.5371852807268
 20
12.8309136252645
 30
0.0
 10
196.5371852807268
 20
13.10721028318153
 30
0.0
 10
196.5371852807268
 20
13.38350694109857
 30
0.0
 10
196.3135985837341
 20
13.60743814763981
 30
0.0
 10
196.0373019258171
 20
13.60743814763981
 30
0.0
 10
195.7613497774486
 20
13.60743814763981
 30
0.0
 10
195.5374185709073
 20
13.38350694109857
 30
0.0
 10
195.5374185709073
 20
13.10721028318153
 30
0.0
 10
195.5374185709073
 20
13.10721028318153
 30
0.0
 10
191.037434848074
 20
13.10721028318153
 30
0.0
 10
191.037434848074
 20
13.10721028318153
 30
0.0
 10
191.037434848074
 20
13.10721028318153
 30
0.0
 10
190.7170409679457
 20
13.10721028318153
 30
0.0
 10
190.7170409679457
 20
13.10721028318153
 30
0.0
 10
190.7170409679457
 20
13.10721028318153
 30
0.0
 10
186.5374511252406
 20
13.10721028318153
 30
0.0
 10
186.5374511252406
 20
13.10721028318153
 30
0.0
 10
186.5374511252406
 20
13.38350694109857
 30
0.0
 10
186.3135199186994
 20
13.60743814763981
 30
0.0
 10
186.0372232607824
 20
13.60743814763981
 30
0.0
 10
185.7612711124139
 20
13.60743814763981
 30
0.0
 10
185.5373399058726
 20
13.38350694109857
 30
0.0
 10
185.5373399058726
 20
13.10721028318153
 30
0.0
 10
185.5373399058726
 20
12.8309136252645
 30
0.0
 10
185.7612711124139
 20
12.60698241872326
 30
0.0
 10
186.0372232607824
 20
12.60698241872326
 30
0.0
 10
186.0372232607824
 20
12.60698241872326
 30
0.0
 10
186.0372232607824
 20
9.10745442480647
 30
0.0
 10
186.0372232607824
 20
9.10745442480647
 30
0.0
 10
186.0372232607824
 20
9.10745442480647
 30
0.0
 10
176.0374891052962
 20
9.10745442480647
 30
0.0
 10
176.0374891052962
 20
9.10745442480647
 30
0.0
 10
176.0374891052962
 20
9.10745442480647
 30
0.0
 10
176.0374891052962
 20
12.60698241872326
 30
0.0
 10
176.0374891052962
 20
12.60698241872326
 30
0.0
 10
176.3134412536647
 20
12.60698241872326
 30
0.0
 10
176.5373724602059
 20
12.8309136252645
 30
0.0
 10
176.5373724602059
 20
13.10721028318153
 30
0.0
 10
176.5373724602059
 20
13.38350694109857
 30
0.0
 10
176.3134412536647
 20
13.60743814763981
 30
0.0
 10
176.0374891052962
 20
13.60743814763981
 30
0.0
 10
175.7611924473792
 20
13.60743814763981
 30
0.0
 10
175.5372612408379
 20
13.38350694109857
 30
0.0
 10
175.5372612408379
 20
13.10721028318153
 30
0.0
 10
175.5372612408379
 20
13.10721028318153
 30
0.0
 10
171.0372775180046
 20
13.10721028318153
 30
0.0
 10
171.0372775180046
 20
13.10721028318153
 30
0.0
 10
171.0372775180046
 20
13.10721028318153
 30
0.0
 10
170.7168836378764
 20
13.10721028318153
 30
0.0
 10
170.7168836378764
 20
13.10721028318153
 30
0.0
 10
170.7168836378764
 20
13.10721028318153
 30
0.0
 10
166.5372937951713
 20
13.10721028318153
 30
0.0
 10
166.5372937951713
 20
13.10721028318153
 30
0.0
 10
166.5372937951713
 20
13.38350694109857
 30
0.0
 10
166.31336258863
 20
13.60743814763981
 30
0.0
 10
166.0374104402615
 20
13.60743814763981
 30
0.0
 10
165.761458291893
 20
13.60743814763981
 30
0.0
 10
165.5375270853517
 20
13.38350694109857
 30
0.0
 10
165.5375270853517
 20
13.10721028318153
 30
0.0
 10
165.5375270853517
 20
12.8309136252645
 30
0.0
 10
165.761458291893
 20
12.60698241872326
 30
0.0
 10
166.0374104402615
 20
12.60698241872326
 30
0.0
 10
166.0374104402615
 20
12.60698241872326
 30
0.0
 10
166.0374104402615
 20
9.10745442480647
 30
0.0
 10
166.0374104402615
 20
9.10745442480647
 30
0.0
 10
166.0374104402615
 20
9.10745442480647
 30
0.0
 10
156.0373317752268
 20
9.10745442480647
 30
0.0
 10
156.0373317752268
 20
9.10745442480647
 30
0.0
 10
156.0373317752268
 20
9.10745442480647
 30
0.0
 10
156.0373317752268
 20
12.60698241872326
 30
0.0
 10
156.0373317752268
 20
12.60698241872326
 30
0.0
 10
156.3136284331438
 20
12.60698241872326
 30
0.0
 10
156.5372151301365
 20
12.8309136252645
 30
0.0
 10
156.5372151301365
 20
13.10721028318153
 30
0.0
 10
156.5372151301365
 20
13.38350694109857
 30
0.0
 10
156.3136284331438
 20
13.60743814763981
 30
0.0
 10
156.0373317752268
 20
13.60743814763981
 30
0.0
 10
155.7613796268583
 20
13.60743814763981
 30
0.0
 10
155.537448420317
 20
13.38350694109857
 30
0.0
 10
155.537448420317
 20
13.10721028318153
 30
0.0
 10
155.537448420317
 20
13.10721028318153
 30
0.0
 10
151.0374646974837
 20
13.10721028318153
 30
0.0
 10
151.0374646974837
 20
13.10721028318153
 30
0.0
 10
151.0374646974837
 20
13.10721028318153
 30
0.0
 10
150.7170708173554
 20
13.10721028318153
 30
0.0
 10
150.7170708173554
 20
13.10721028318153
 30
0.0
 10
150.7170708173554
 20
13.10721028318153
 30
0.0
 10
146.5374809746504
 20
13.10721028318153
 30
0.0
 10
146.5374809746504
 20
13.10721028318153
 30
0.0
 10
146.5374809746504
 20
13.38350694109857
 30
0.0
 10
146.3135497681091
 20
13.60743814763981
 30
0.0
 10
146.0375976197406
 20
13.60743814763981
 30
0.0
 10
145.7613009618236
 20
13.60743814763981
 30
0.0
 10
145.5373697552823
 20
13.38350694109857
 30
0.0
 10
145.5373697552823
 20
13.10721028318153
 30
0.0
 10
145.5373697552823
 20
12.8309136252645
 30
0.0
 10
145.7613009618236
 20
12.60698241872326
 30
0.0
 10
146.0375976197406
 20
12.60698241872326
 30
0.0
 10
146.0375976197406
 20
12.60698241872326
 30
0.0
 10
146.0375976197406
 20
9.10745442480647
 30
0.0
 10
146.0375976197406
 20
9.10745442480647
 30
0.0
 10
146.0375976197406
 20
9.10745442480647
 30
0.0
 10
136.0375189547059
 20
9.10745442480647
 30
0.0
 10
136.0375189547059
 20
9.10745442480647
 30
0.0
 10
136.0375189547059
 20
9.10745442480647
 30
0.0
 10
136.0375189547059
 20
12.60698241872326
 30
0.0
 10
136.0375189547059
 20
12.60698241872326
 30
0.0
 10
136.3134711030744
 20
12.60698241872326
 30
0.0
 10
136.5374023096157
 20
12.8309136252645
 30
0.0
 10
136.5374023096157
 20
13.10721028318153
 30
0.0
 10
136.5374023096157
 20
13.38350694109857
 30
0.0
 10
136.3134711030744
 20
13.60743814763981
 30
0.0
 10
136.0375189547059
 20
13.60743814763981
 30
0.0
 10
135.7612222967889
 20
13.60743814763981
 30
0.0
 10
135.5372910902476
 20
13.38350694109857
 30
0.0
 10
135.5372910902476
 20
13.10721028318153
 30
0.0
 10
135.5372910902476
 20
13.10721028318153
 30
0.0
 10
131.0373073674143
 20
13.10721028318153
 30
0.0
 10
131.0373073674143
 20
13.10721028318153
 30
0.0
 10
131.0373073674143
 20
13.10721028318153
 30
0.0
 10
130.7169134872861
 20
13.10721028318153
 30
0.0
 10
130.7169134872861
 20
13.10721028318153
 30
0.0
 10
130.7169134872861
 20
13.10721028318153
 30
0.0
 10
126.537323644581
 20
13.10721028318153
 30
0.0
 10
126.537323644581
 20
13.10721028318153
 30
0.0
 10
126.537323644581
 20
13.38350694109857
 30
0.0
 10
126.3133924380397
 20
13.60743814763981
 30
0.0
 10
126.0374402896712
 20
13.60743814763981
 30
0.0
 10
125.7614881413027
 20
13.60743814763981
 30
0.0
 10
125.5375569347615
 20
13.38350694109857
 30
0.0
 10
125.5375569347615
 20
13.10721028318153
 30
0.0
 10
125.5375569347615
 20
12.8309136252645
 30
0.0
 10
125.7614881413027
 20
12.60698241872326
 30
0.0
 10
126.0374402896712
 20
12.60698241872326
 30
0.0
 10
126.0374402896712
 20
12.60698241872326
 30
0.0
 10
126.0374402896712
 20
9.10745442480647
 30
0.0
 10
126.0374402896712
 20
9.10745442480647
 30
0.0
 10
126.0374402896712
 20
9.10745442480647
 30
0.0
 10
116.0373616246365
 20
9.10745442480647
 30
0.0
 10
116.0373616246365
 20
9.10745442480647
 30
0.0
 10
116.0373616246365
 20
9.10745442480647
 30
0.0
 10
116.0373616246365
 20
12.60698241872326
 30
0.0
 10
116.0373616246365
 20
12.60698241872326
 30
0.0
 10
116.3136582825535
 20
12.60698241872326
 30
0.0
 10
116.5375894890948
 20
12.8309136252645
 30
0.0
 10
116.5375894890948
 20
13.10721028318153
 30
0.0
 10
116.5375894890948
 20
13.38350694109857
 30
0.0
 10
116.3136582825535
 20
13.60743814763981
 30
0.0
 10
116.0373616246365
 20
13.60743814763981
 30
0.0
 10
115.761409476268
 20
13.60743814763981
 30
0.0
 10
115.5374782697267
 20
13.38350694109857
 30
0.0
 10
115.5374782697267
 20
13.10721028318153
 30
0.0
 10
115.5374782697267
 20
13.10721028318153
 30
0.0
 10
111.0374945468934
 20
13.10721028318153
 30
0.0
 10
111.0374945468934
 20
13.10721028318153
 30
0.0
 10
111.0374945468934
 20
13.10721028318153
 30
0.0
 10
110.7171006667652
 20
13.10721028318153
 30
0.0
 10
110.7171006667652
 20
13.10721028318153
 30
0.0
 10
110.7171006667652
 20
13.10721028318153
 30
0.0
 10
106.5375108240601
 20
13.10721028318153
 30
0.0
 10
106.5375108240601
 20
13.10721028318153
 30
0.0
 10
106.5375108240601
 20
13.38350694109857
 30
0.0
 10
106.3135796175188
 20
13.60743814763981
 30
0.0
 10
106.0372829596018
 20
13.60743814763981
 30
0.0
 10
105.7613308112333
 20
13.60743814763981
 30
0.0
 10
105.537399604692
 20
13.38350694109857
 30
0.0
 10
105.537399604692
 20
13.10721028318153
 30
0.0
 10
105.537399604692
 20
12.8309136252645
 30
0.0
 10
105.7613308112333
 20
12.60698241872326
 30
0.0
 10
106.0372829596018
 20
12.60698241872326
 30
0.0
 10
106.0372829596018
 20
12.60698241872326
 30
0.0
 10
106.0372829596018
 20
9.10745442480647
 30
0.0
 10
106.0372829596018
 20
9.10745442480647
 30
0.0
 10
106.0372829596018
 20
9.10745442480647
 30
0.0
 10
96.03754880411562
 20
9.10745442480647
 30
0.0
 10
96.03754880411562
 20
9.10745442480647
 30
0.0
 10
96.03754880411562
 20
9.10745442480647
 30
0.0
 10
96.03754880411562
 20
12.60698241872326
 30
0.0
 10
96.03754880411562
 20
12.60698241872326
 30
0.0
 10
96.31350095248413
 20
12.60698241872326
 30
0.0
 10
96.53743215902537
 20
12.8309136252645
 30
0.0
 10
96.53743215902537
 20
13.10721028318153
 30
0.0
 10
96.53743215902537
 20
13.38350694109857
 30
0.0
 10
96.31350095248413
 20
13.60743814763981
 30
0.0
 10
96.03754880411562
 20
13.60743814763981
 30
0.0
 10
95.76125214619859
 20
13.60743814763981
 30
0.0
 10
95.53732093965733
 20
13.38350694109857
 30
0.0
 10
95.53732093965733
 20
13.10721028318153
 30
0.0
 10
95.53732093965733
 20
13.10721028318153
 30
0.0
 10
91.037337216824
 20
13.10721028318153
 30
0.0
 10
91.037337216824
 20
13.10721028318153
 30
0.0
 10
91.037337216824
 20
13.10721028318153
 30
0.0
 10
90.71694333669576
 20
13.10721028318153
 30
0.0
 10
90.71694333669576
 20
13.10721028318153
 30
0.0
 10
90.71694333669576
 20
13.10721028318153
 30
0.0
 10
86.53735349399066
 20
13.10721028318153
 30
0.0
 10
86.53735349399066
 20
13.10721028318153
 30
0.0
 10
86.53735349399066
 20
13.38350694109857
 30
0.0
 10
86.31342228744943
 20
13.60743814763981
 30
0.0
 10
86.03747013908091
 20
13.60743814763981
 30
0.0
 10
85.7615179907124
 20
13.60743814763981
 30
0.0
 10
85.53758678417117
 20
13.38350694109857
 30
0.0
 10
85.53758678417117
 20
13.10721028318153
 30
0.0
 10
85.53758678417117
 20
12.8309136252645
 30
0.0
 10
85.7615179907124
 20
12.60698241872326
 30
0.0
 10
86.03747013908091
 20
12.60698241872326
 30
0.0
 10
86.03747013908091
 20
12.60698241872326
 30
0.0
 10
86.03747013908091
 20
9.10745442480647
 30
0.0
 10
86.03747013908091
 20
9.10745442480647
 30
0.0
 10
86.03747013908091
 20
9.10745442480647
 30
0.0
 10
76.03739147404622
 20
9.10745442480647
 30
0.0
 10
76.03739147404622
 20
9.10745442480647
 30
0.0
 10
76.03739147404622
 20
9.10745442480647
 30
0.0
 10
76.03739147404622
 20
12.60698241872326
 30
0.0
 10
76.03739147404622
 20
12.60698241872326
 30
0.0
 10
76.31368813196325
 20
12.60698241872326
 30
0.0
 10
76.53761933850448
 20
12.8309136252645
 30
0.0
 10
76.53761933850448
 20
13.10721028318153
 30
0.0
 10
76.53761933850448
 20
13.38350694109857
 30
0.0
 10
76.31368813196325
 20
13.60743814763981
 30
0.0
 10
76.03739147404622
 20
13.60743814763981
 30
0.0
 10
75.7614393256777
 20
13.60743814763981
 30
0.0
 10
75.53750811913646
 20
13.38350694109857
 30
0.0
 10
75.53750811913646
 20
13.10721028318153
 30
0.0
 10
75.53750811913646
 20
13.10721028318153
 30
0.0
 10
71.03752439630313
 20
13.10721028318153
 30
0.0
 10
71.03752439630313
 20
13.10721028318153
 30
0.0
 10
71.03752439630313
 20
13.10721028318153
 30
0.0
 10
70.71713051617489
 20
13.10721028318153
 30
0.0
 10
70.71713051617489
 20
13.10721028318153
 30
0.0
 10
70.71713051617489
 20
13.10721028318153
 30
0.0
 10
66.53754067346978
 20
13.10721028318153
 30
0.0
 10
66.53754067346978
 20
13.10721028318153
 30
0.0
 10
66.53754067346978
 20
13.38350694109857
 30
0.0
 10
66.31360946692854
 20
13.60743814763981
 30
0.0
 10
66.03731280901151
 20
13.60743814763981
 30
0.0
 10
65.76136066064299
 20
13.60743814763981
 30
0.0
 10
65.53742945410175
 20
13.38350694109857
 30
0.0
 10
65.53742945410175
 20
13.10721028318153
 30
0.0
 10
65.53742945410175
 20
12.8309136252645
 30
0.0
 10
65.76136066064299
 20
12.60698241872326
 30
0.0
 10
66.03731280901151
 20
12.60698241872326
 30
0.0
 10
66.03731280901151
 20
12.60698241872326
 30
0.0
 10
66.03731280901151
 20
9.10745442480647
 30
0.0
 10
66.03731280901151
 20
9.10745442480647
 30
0.0
 10
66.03731280901151
 20
9.10745442480647
 30
0.0
 10
56.03757865352533
 20
9.10745442480647
 30
0.0
 10
56.03757865352533
 20
9.10745442480647
 30
0.0
 10
56.03757865352533
 20
9.10745442480647
 30
0.0
 10
56.03757865352533
 20
12.60698241872326
 30
0.0
 10
56.03757865352533
 20
12.60698241872326
 30
0.0
 10
56.31353080189384
 20
12.60698241872326
 30
0.0
 10
56.53746200843508
 20
12.8309136252645
 30
0.0
 10
56.53746200843508
 20
13.10721028318153
 30
0.0
 10
56.53746200843508
 20
13.38350694109857
 30
0.0
 10
56.31353080189384
 20
13.60743814763981
 30
0.0
 10
56.03757865352533
 20
13.60743814763981
 30
0.0
 10
55.76128199560829
 20
13.60743814763981
 30
0.0
 10
55.53735078906706
 20
13.38350694109857
 30
0.0
 10
55.53735078906706
 20
13.10721028318153
 30
0.0
 10
55.53735078906706
 20
13.10721028318153
 30
0.0
 10
51.03736706623371
 20
13.10721028318153
 30
0.0
 10
51.03736706623371
 20
13.10721028318153
 30
0.0
 10
51.03736706623371
 20
13.10721028318153
 30
0.0
 10
50.71697318610548
 20
13.10721028318153
 30
0.0
 10
50.71697318610548
 20
13.10721028318153
 30
0.0
 10
50.71697318610548
 20
13.10721028318153
 30
0.0
 10
46.53738334340038
 20
13.10721028318153
 30
0.0
 10
46.53738334340038
 20
13.10721028318153
 30
0.0
 10
46.53738334340038
 20
13.38350694109857
 30
0.0
 10
46.31345213685914
 20
13.60743814763981
 30
0.0
 10
46.03749998849063
 20
13.60743814763981
 30
0.0
 10
45.76120333057359
 20
13.60743814763981
 30
0.0
 10
45.53761663358087
 20
13.38350694109857
 30
0.0
 10
45.53761663358087
 20
13.10721028318153
 30
0.0
 10
45.53761663358087
 20
12.8309136252645
 30
0.0
 10
45.76120333057359
 20
12.60698241872326
 30
0.0
 10
46.03749998849063
 20
12.60698241872326
 30
0.0
 10
46.03749998849063
 20
12.60698241872326
 30
0.0
 10
46.03749998849063
 20
9.10745442480647
 30
0.0
 10
46.03749998849063
 20
9.10745442480647
 30
0.0
 10
46.03749998849063
 20
9.10745442480647
 30
0.0
 10
36.03742132345592
 20
9.10745442480647
 30
0.0
 10
36.03742132345592
 20
9.10745442480647
 30
0.0
 10
36.03742132345592
 20
9.10745442480647
 30
0.0
 10
36.03742132345592
 20
12.60698241872326
 30
0.0
 10
36.03742132345592
 20
12.60698241872326
 30
0.0
 10
36.31371798137296
 20
12.60698241872326
 30
0.0
 10
36.53730467836568
 20
12.8309136252645
 30
0.0
 10
36.53730467836568
 20
13.10721028318153
 30
0.0
 10
36.53730467836568
 20
13.38350694109857
 30
0.0
 10
36.31371798137296
 20
13.60743814763981
 30
0.0
 10
36.03742132345592
 20
13.60743814763981
 30
0.0
 10
35.76146917508741
 20
13.60743814763981
 30
0.0
 10
35.53753796854618
 20
13.38350694109857
 30
0.0
 10
35.53753796854618
 20
13.10721028318153
 30
0.0
 10
35.53753796854618
 20
13.10721028318153
 30
0.0
 10
31.03755424571284
 20
13.10721028318153
 30
0.0
 10
31.03755424571284
 20
13.10721028318153
 30
0.0
 10
31.03755424571284
 20
13.10721028318153
 30
0.0
 10
30.7171603655846
 20
13.10721028318153
 30
0.0
 10
30.7171603655846
 20
13.10721028318153
 30
0.0
 10
30.7171603655846
 20
13.10721028318153
 30
0.0
 10
26.5375705228795
 20
13.10721028318153
 30
0.0
 10
26.5375705228795
 20
13.10721028318153
 30
0.0
 10
26.5375705228795
 20
13.38350694109857
 30
0.0
 10
26.31363931633826
 20
13.60743814763981
 30
0.0
 10
26.03734265842122
 20
13.60743814763981
 30
0.0
 10
25.76139051005271
 20
13.60743814763981
 30
0.0
 10
25.53745930351147
 20
13.38350694109857
 30
0.0
 10
25.53745930351147
 20
13.10721028318153
 30
0.0
 10
25.53745930351147
 20
12.8309136252645
 30
0.0
 10
25.76139051005271
 20
12.60698241872326
 30
0.0
 10
26.03734265842122
 20
12.60698241872326
 30
0.0
 10
26.03734265842122
 20
12.60698241872326
 30
0.0
 10
26.03734265842122
 20
9.10745442480647
 30
0.0
 10
26.03734265842122
 20
9.10745442480647
 30
0.0
 10
26.03734265842122
 20
9.10745442480647
 30
0.0
 10
16.03760850293504
 20
9.10745442480647
 30
0.0
 10
16.03760850293504
 20
9.10745442480647
 30
0.0
 10
16.03760850293504
 20
9.10745442480647
 30
0.0
 10
16.03760850293504
 20
12.60698241872326
 30
0.0
 10
16.03760850293504
 20
12.60698241872326
 30
0.0
 10
16.31356065130355
 20
12.60698241872326
 30
0.0
 10
16.5374918578448
 20
12.8309136252645
 30
0.0
 10
16.5374918578448
 20
13.10721028318153
 30
0.0
 10
16.5374918578448
 20
13.38350694109857
 30
0.0
 10
16.31356065130355
 20
13.60743814763981
 30
0.0
 10
16.03760850293504
 20
13.60743814763981
 30
0.0
 10
15.76131184501801
 20
13.60743814763981
 30
0.0
 10
15.53738063847677
 20
13.38350694109857
 30
0.0
 10
15.53738063847677
 20
13.10721028318153
 30
0.0
 10
15.53738063847677
 20
13.10721028318153
 30
0.0
 10
11.03739691564343
 20
13.10721028318153
 30
0.0
 10
11.03739691564343
 20
13.10721028318153
 30
0.0
 10
11.03739691564343
 20
13.10721028318153
 30
0.0
 10
1.037318250608726
 20
13.10721028318153
 30
0.0
 10
1.037318250608726
 20
13.10721028318153
 30
0.0
 10
1.037318250608726
 20
13.10721028318153
 30
0.0
 10
1.037318250608726
 20
16.10719943173709
 30
0.0
 10
1.037318250608726
 20
16.10719943173709
 30
0.0
 10
1.037318250608726
 20
16.10719943173709
 30
0.0
 10
1.037318250608726
 20
299.1402248058573
 30
0.0
 10
1.037318250608726
 20
299.1402248058573
 30
0.0
 10
1.037318250608726
 20
299.1402248058573
 30
0.0
 10
1.037318250608726
 20
299.1402248058573
 30
0.0
 10
1.037318250608726
 20
299.1402248058573
 30
0.0
  0
POLYLINE
  5
57
330
40
100
AcDbEntity
  8
svg2
 62
   179
420
  2038295
370
     5
100
AcDb2dPolyline
 66
     1
 10
0.0
 20
0.0
 30
0.0
  0
VERTEX
  5
58
330
57
100
AcDbEntity
  8
svg2
 62
   179
420
  2038295
370
     5
100
AcDbVertex
100
AcDb2dVertex
 10
302.0373778541781
 20
299.1069796344246
 30
0.0
  0
VERTEX
  5
59
330
57
100
AcDbEntity
  8
svg2
 62
   179
420
  2038295
370
     5
100
AcDbVertex
100
AcDb2dVertex
 10
522.037385937199
 20
299.1069796344246
 30
0.0
  0
VERTEX
  5
5A
330
57
100
AcDbEntity
  8
svg2
 62
   179
420
  2038295
370
     5
100
AcDbVertex
100
AcDb2dVertex
 10
522.037385937199
 20
15.10674370282054
 30
0.0
  0
VERTEX
  5
5B
330
57
100
AcDbEntity
  8
svg2
 62
   179
420
  2038295
370
     5
100
AcDbVertex
100
AcDb2dVertex
 10
302.0373778541781
 20
15.10674370282054
 30
0.0
  0
VERTEX
  5
5C
330
57
100
AcDbEntity
  8
svg2
 62
   179
420
  2038295
370
     5
100
AcDbVertex
100
AcDb2dVertex
 10
302.0373778541781
 20
299.1069796344246
 30
0.0
  0
SEQEND
  5
5D
330
57
100
AcDbEntity
  8
svg2
370
     5
  0
SPLINE
  5
5E
330
40
100
AcDbEntity
  8
svg2
 62
   179
420
  2038295
370
     5
100
AcDbSpline
210
0.0
220
0.0
230
1.0
 70
    11
 71
     3
 72
    17
 73
    13
 74
     0
 42
0.0000000001
 43
0.0000000001
 40
0.0
 40
0.0
 40
0.0
 40
0.0
 40
1.0
 40
1.0
 40
1.0
 40
2.0
 40
2.0
 40
2.0
 40
3.0
 40
3.0
 40
3.0
 40
4.0
 40
4.0
 40
4.0
 40
4.0
 10
447.0373127137615
 20
260.1069484484281
 30
0.0
 10
485.6971407205896
 20
260.1069484484281
 30
0.0
 10
517.0371743499074
 20
228.7669148191104
 30
0.0
 10
517.0371743499074
 20
190.1070868122823
 30
0.0
 10
517.0371743499074
 20
151.4469142959056
 30
0.0
 10
485.6971407205896
 20
120.1070529213621
 30
0.0
 10
447.0373127137615
 20
120.1070529213621
 30
0.0
 10
408.3774847069334
 20
120.1070529213621
 30
0.0
 10
377.0374510776156
 20
151.4469142959056
 30
0.0
 10
377.0374510776156
 20
190.1070868122823
 30
0.0
 10
377.0374510776156
 20
228.7669148191104
 30
0.0
 10
408.3774847069334
 20
260.1069484484281
 30
0.0
 10
447.0373127137615
 20
260.1069484484281
 30
0.0
  0
SPLINE
  5
5F
330
40
100
AcDbEntity
  8
svg2
 62
   179
420
  2038295
370
     5
100
AcDbSpline
210
0.0
220
0.0
230
1.0
 70
    11
 71
     3
 72
    17
 73
    13
 74
     0
 42
0.0000000001
 43
0.0000000001
 40
0.0
 40
0.0
 40
0.0
 40
0.0
 40
1.0
 40
1.0
 40
1.0
 40
2.0
 40
2.0
 40
2.0
 40
3.0
 40
3.0
 40
3.0
 40
4.0
 40
4.0
 40
4.0
 40
4.0
 10
447.0473034906688
 20
259.0439642364543
 30
0.0
 10
485.1548826912113
 20
259.0439642364543
 30
0.0
 10
516.0473984169951
 20
228.1516207654447
 30
0.0
 10
516.0473984169951
 20
190.0440415649022
 30
0.0
 10
516.0473984169951
 20
151.9361178548111
 30
0.0
 10
485.1548826912113
 20
121.0441188933501
 30
0.0
 10
447.0473034906688
 20
121.0441188933501
 30
0.0
 10
408.9397242901262
 20
121.0441188933501
 30
0.0
 10
378.0475530738909
 20
151.9361178548111
 30
0.0
 10
378.0475530738909
 20
190.0440415649022
 30
0.0
 10
378.0475530738909
 20
228.1516207654447
 30
0.0
 10
408.9397242901262
 20
259.0439642364543
 30
0.0
 10
447.0473034906688
 20
259.0439642364543
 30
0.0
  0
SPLINE
  5
60
330
40
100
AcDbEntity
  8
svg2
 62
   179
420
  2038295
370
     5
100
AcDbSpline
210
0.0
220
0.0
230
1.0
 70
    11
 71
     3
 72
    17
 73
    13
 74
     0
 42
0.0000000001
 43
0.0000000001
 40
0.0
 40
0.0
 40
0.0
 40
0.0
 40
1.0
 40
1.0
 40
1.0
 40
2.0
 40
2.0
 40
2.0
 40
3.0
 40
3.0
 40
3.0
 40
4.0
 40
4.0
 40
4.0
 40
4.0
 10
436.5814479160283
 20
202.1051486039876
 30
0.0
 10
437.4096488706823
 20
202.1051486039876
 30
0.0
 10
438.0814424903061
 20
201.4336994939124
 30
0.0
 10
438.0814424903061
 20
200.6051540297098
 30
0.0
 10
438.0814424903061
 20
199.7767808202815
 30
0.0
 10
437.4096488706823
 20
199.105159455432
 30
0.0
 10
436.5814479160283
 20
199.105159455432
 30
0.0
 10
435.7529024518257
 20
199.105159455432
 30
0.0
 10
435.0814533417505
 20
199.7767808202815
 30
0.0
 10
435.0814533417505
 20
200.6051540297098
 30
0.0
 10
435.0814533417505
 20
201.4336994939124
 30
0.0
 10
435.7529024518257
 20
202.1051486039876
 30
0.0
 10
436.5814479160283
 20
202.1051486039876
 30
0.0
  0
SPLINE
  5
61
330
40
100
AcDbEntity
  8
svg2
 62
   179
420
  2038295
370
     5
100
AcDbSpline
210
0.0
220
0.0
230
1.0
 70
    11
 71
     3
 72
    17
 73
    13
 74
     0
 42
0.0000000001
 43
0.0000000001
 40
0.0
 40
0.0
 40
0.0
 40
0.0
 40
1.0
 40
1.0
 40
1.0
 40
2.0
 40
2.0
 40
2.0
 40
3.0
 40
3.0
 40
3.0
 40
4.0
 40
4.0
 40
4.0
 40
4.0
 10
457.5813719559172
 20
202.1051486039876
 30
0.0
 10
458.4099174201198
 20
202.1051486039876
 30
0.0
 10
459.0813665301949
 20
201.4336994939124
 30
0.0
 10
459.0813665301949
 20
200.6051540297098
 30
0.0
 10
459.0813665301949
 20
199.7767808202815
 30
0.0
 10
458.4099174201198
 20
199.105159455432
 30
0.0
 10
457.5813719559172
 20
199.105159455432
 30
0.0
 10
456.7528264917146
 20
199.105159455432
 30
0.0
 10
456.0813773816394
 20
199.7767808202815
 30
0.0
 10
456.0813773816394
 20
200.6051540297098
 30
0.0
 10
456.0813773816394
 20
201.4336994939124
 30
0.0
 10
456.7528264917146
 20
202.1051486039876
 30
0.0
 10
457.5813719559172
 20
202.1051486039876
 30
0.0
  0
SPLINE
  5
62
330
40
100
AcDbEntity
  8
svg2
 62
   179
420
  2038295
370
     5
100
AcDbSpline
210
0.0
220
0.0
230
1.0
 70
    11
 71
     3
 72
    17
 73
    13
 74
     0
 42
0.0000000001
 43
0.0000000001
 40
0.0
 40
0.0
 40
0.0
 40
0.0
 40
1.0
 40
1.0
 40
1.0
 40
2.0
 40
2.0
 40
2.0
 40
3.0
 40
3.0
 40
3.0
 40
4.0
 40
4.0
 40
4.0
 40
4.0
 10
457.5813719559172
 20
181.1050523093244
 30
0.0
 10
458.4099174201198
 20
181.1050523093244
 30
0.0
 10
459.0813665301949
 20
180.4332586897007
 30
0.0
 10
459.0813665301949
 20
179.6050577350467
 30
0.0
 10
459.0813665301949
 20
178.7765122708441
 30
0.0
 10
458.4099174201198
 20
178.1050631607689
 30
0.0
 10
457.5813719559172
 20
178.1050631607689
 30
0.0
 10
456.7528264917146
 20
178.1050631607689
 30
0.0
 10
456.0813773816394
 20
178.7765122708441
 30
0.0
 10
456.0813773816394
 20
179.6050577350467
 30
0.0
 10
456.0813773816394
 20
180.4332586897007
 30
0.0
 10
456.7528264917146
 20
181.1050523093244
 30
0.0
 10
457.5813719559172
 20
181.1050523093244
 30
0.0
  0
SPLINE
  5
63
330
40
100
AcDbEntity
  8
svg2
 62
   179
420
  2038295
370
     5
100
AcDbSpline
210
0.0
220
0.0
230
1.0
 70
    11
 71
     3
 72
    17
 73
    13
 74
     0
 42
0.0000000001
 43
0.0000000001
 40
0.0
 40
0.0
 40
0.0
 40
0.0
 40
1.0
 40
1.0
 40
1.0
 40
2.0
 40
2.0
 40
2.0
 40
3.0
 40
3.0
 40
3.0
 40
4.0
 40
4.0
 40
4.0
 40
4.0
 10
436.5814479160283
 20
181.1050523093244
 30
0.0
 10
437.4096488706823
 20
181.1050523093244
 30
0.0
 10
438.0814424903061
 20
180.4332586897007
 30
0.0
 10
438.0814424903061
 20
179.6050577350467
 30
0.0
 10
438.0814424903061
 20
178.7765122708441
 30
0.0
 10
437.4096488706823
 20
178.1050631607689
 30
0.0
 10
436.5814479160283
 20
178.1050631607689
 30
0.0
 10
435.7529024518257
 20
178.1050631607689
 30
0.0
 10
435.0814533417505
 20
178.7765122708441
 30
0.0
 10
435.0814533417505
 20
179.6050577350467
 30
0.0
 10
435.0814533417505
 20
180.4332586897007
 30
0.0
 10
435.7529024518257
 20
181.1050523093244
 30
0.0
 10
436.5814479160283
 20
181.1050523093244
 30
0.0
  0
ENDBLK
  5
43
330
40
100
AcDbEntity
  8
0
100
AcDbBlockEnd
  0
ENDSEC
  0
SECTION
  2
ENTITIES
  0
INSERT
  5
3D
330
1F
100
AcDbEntity
  8
svg2
100
AcDbBlockReference
  2
block 2
 10
0.0
 20
0.0
 30
0.0
  0
INSERT
  5
41
330
1F
100
AcDbEntity
  8
svg2
100
AcDbBlockReference
  2
block 3
 10
0.0
 20
0.0
 30
0.0
  0
ENDSEC
  0
SECTION
  2
OBJECTS
  0
DICTIONARY
  5
C
330
0
100
AcDbDictionary
281
     1
  3
ACAD_GROUP
350
D
  3
ACAD_LAYOUT
350
1A
  3
ACAD_MLINESTYLE
350
17
  3
ACAD_PLOTSETTINGS
350
19
  3
ACAD_PLOTSTYLENAME
350
E
  3
ACAD_TABLESTYLE
350
64
  3
ACAD_VISUALSTYLE
350
2A
  0
DICTIONARY
  5
D
102
{ACAD_REACTORS
330
C
102
}
330
C
100
AcDbDictionary
281
     1
  0
DICTIONARY
  5
1A
102
{ACAD_REACTORS
330
C
102
}
330
C
100
AcDbDictionary
281
     1
  3
Layout1
350
1E
  3
Layout2
350
26
  3
Model
350
22
  0
DICTIONARY
  5
17
102
{ACAD_REACTORS
330
C
102
}
330
C
100
AcDbDictionary
281
     1
  3
Standard
350
18
  0
DICTIONARY
  5
19
102
{ACAD_REACTORS
330
C
102
}
330
C
100
AcDbDictionary
281
     1
  0
ACDBDICTIONARYWDFLT
  5
E
102
{ACAD_REACTORS
330
C
102
}
330
C
100
AcDbDictionary
281
     1
  3
Normal
350
F
100
AcDbDictionaryWithDefault
340
F
  0
DICTIONARY
  5
64
102
{ACAD_REACTORS
330
C
102
}
330
C
100
AcDbDictionary
281
     1
  0
DICTIONARY
  5
2A
102
{ACAD_REACTORS
330
C
102
}
330
C
100
AcDbDictionary
281
     1
  3
2dWireframe
350
2F
  3
3D Hidden
350
31
  3
3dWireframe
350
30
  3
Basic
350
32
  3
Brighten
350
36
  3
ColorChange
350
3A
  3
Conceptual
350
34
  3
Dim
350
35
  3
Facepattern
350
39
  3
Flat
350
2B
  3
FlatWithEdges
350
2C
  3
Gouraud
350
2D
  3
GouraudWithEdges
350
2E
  3
Linepattern
350
38
  3
Realistic
350
33
  3
Thicken
350
37
  0
LAYOUT
  5
1E
102
{ACAD_REACTORS
330
1A
102
}
330
1A
100
AcDbPlotSettings
  1

  2
none_device
  4

  6

 40
0.0
 41
0.0
 42
0.0
 43
0.0
 44
0.0
 45
0.0
 46
0.0
 47
0.0
 48
0.0
 49
0.0
140
0.0
141
0.0
142
1.0
143
1.0
 70
   688
 72
     0
 73
     0
 74
     5
  7

 75
    16
 76
     0
 77
     2
 78
   300
147
1.0
148
0.0
149
0.0
100
AcDbLayout
  1
Layout1
 70
     1
 71
     1
 10
0.0
 20
0.0
 11
12.0
 21
9.0
 12
0.0
 22
0.0
 32
0.0
 14
1.000000000000000E+20
 24
1.000000000000000E+20
 34
1.000000000000000E+20
 15
-1.000000000000000E+20
 25
-1.000000000000000E+20
 35
-1.000000000000000E+20
146
0.0
 13
0.0
 23
0.0
 33
0.0
 16
1.0
 26
0.0
 36
0.0
 17
0.0
 27
1.0
 37
0.0
 76
     0
330
1B
  0
LAYOUT
  5
26
102
{ACAD_REACTORS
330
1A
102
}
330
1A
100
AcDbPlotSettings
  1

  2
none_device
  4

  6

 40
0.0
 41
0.0
 42
0.0
 43
0.0
 44
0.0
 45
0.0
 46
0.0
 47
0.0
 48
0.0
 49
0.0
140
0.0
141
0.0
142
1.0
143
1.0
 70
   688
 72
     0
 73
     0
 74
     5
  7

 75
    16
 76
     0
 77
     2
 78
   300
147
1.0
148
0.0
149
0.0
100
AcDbLayout
  1
Layout2
 70
     1
 71
     2
 10
0.0
 20
0.0
 11
0.0
 21
0.0
 12
0.0
 22
0.0
 32
0.0
 14
0.0
 24
0.0
 34
0.0
 15
0.0
 25
0.0
 35
0.0
146
0.0
 13
0.0
 23
0.0
 33
0.0
 16
1.0
 26
0.0
 36
0.0
 17
0.0
 27
1.0
 37
0.0
 76
     0
330
23
  0
LAYOUT
  5
22
102
{ACAD_REACTORS
330
1A
102
}
330
1A
100
AcDbPlotSettings
  1

  2
none_device
  4

  6

 40
0.0
 41
0.0
 42
0.0
 43
0.0
 44
0.0
 45
0.0
 46
0.0
 47
0.0
 48
0.0
 49
0.0
140
0.0
141
0.0
142
1.0
143
1.0
 70
  1712
 72
     0
 73
     0
 74
     0
  7

 75
     0
 76
     0
 77
     2
 78
   300
147
1.0
148
0.0
149
0.0
100
AcDbLayout
  1
Model
 70
     1
 71
     0
 10
0.0
 20
0.0
 11
12.0
 21
9.0
 12
0.0
 22
0.0
 32
0.0
 14
1.000000000000000E+20
 24
1.000000000000000E+20
 34
1.000000000000000E+20
 15
-1.000000000000000E+20
 25
-1.000000000000000E+20
 35
-1.000000000000000E+20
146
0.0
 13
0.0
 23
0.0
 33
0.0
 16
1.0
 26
0.0
 36
0.0
 17
0.0
 27
1.0
 37
0.0
 76
     0
330
1F
331
29
  0
MLINESTYLE
  5
18
102
{ACAD_REACTORS
330
17
102
}
330
17
100
AcDbMlineStyle
  2
Standard
 70
     0
  3

 62
   256
 51
90.0
 52
90.0
 71
     2
 49
0.5
 62
   256
  6
BYLAYER
 49
-0.5
 62
   256
  6
BYLAYER
  0
ACDBPLACEHOLDER
  5
F
102
{ACAD_REACTORS
330
E
102
}
330
E
  0
VISUALSTYLE
  5
2F
102
{ACAD_REACTORS
330
2A
102
}
330
2A
100
AcDbVisualStyle
  2
2dWireframe
 70
     4
 71
     0
 72
     2
 73
     0
 90
        0
 40
-0.6
 41
-30.0
 62
     5
 63
     7
421
 16777215
 74
     1
 91
        4
 64
     7
 65
   257
 75
     1
175
     1
 42
1.0
 92
        0
 66
   257
 43
1.0
 76
     1
 77
     6
 78
     2
 67
     7
 79
     5
170
     0
171
     0
290
     0
174
     0
 93
        1
 44
0.0
173
     0
291
     0
 45
0.0
1001
ACAD
1000
AcDbSavedByObjectVersion
1070
     0
  0
VISUALSTYLE
  5
31
102
{ACAD_REACTORS
330
2A
102
}
330
2A
100
AcDbVisualStyle
  2
3D Hidden
 70
     6
 71
     1
 72
     2
 73
     2
 90
        0
 40
-0.6
 41
-30.0
 62
     5
 63
     7
421
 16777215
 74
     2
 91
        2
 64
     7
 65
   257
 75
     2
175
     1
 42
40.0
 92
        0
 66
   257
 43
1.0
 76
     1
 77
     6
 78
     2
 67
     7
 79
     3
170
     0
171
     0
290
     0
174
     0
 93
        1
 44
0.0
173
     0
291
     0
 45
0.0
1001
ACAD
1000
AcDbSavedByObjectVersion
1070
     0
  0
VISUALSTYLE
  5
30
102
{ACAD_REACTORS
330
2A
102
}
330
2A
100
AcDbVisualStyle
  2
3dWireframe
 70
     5
 71
     0
 72
     2
 73
     0
 90
        0
 40
-0.6
 41
-30.0
 62
     5
 63
     7
421
 16777215
 74
     1
 91
        4
 64
     7
 65
   257
 75
     1
175
     1
 42
1.0
 92
        0
 66
   257
 43
1.0
 76
     1
 77
     6
 78
     2
 67
     7
 79
     5
170
     0
171
     0
290
     0
174
     0
 93
        1
 44
0.0
173
     0
291
     0
 45
0.0
1001
ACAD
1000
AcDbSavedByObjectVersion
1070
     0
  0
VISUALSTYLE
  5
32
102
{ACAD_REACTORS
330
2A
102
}
330
2A
100
AcDbVisualStyle
  2
Basic
 70
     7
 71
     1
 72
     0
 73
     1
 90
        0
 40
-0.6
 41
-30.0
 62
     5
 63
     7
421
 16777215
 74
     0
 91
        4
 64
     7
 65
   257
 75
     1
175
     1
 42
1.0
 92
        8
 66
     7
 43
1.0
 76
     1
 77
     6
 78
     2
 67
     7
 79
     5
170
     0
171
     0
290
     0
174
     0
 93
        1
 44
0.0
173
     0
291
     1
 45
0.0
1001
ACAD
1000
AcDbSavedByObjectVersion
1070
     0
  0
VISUALSTYLE
  5
36
102
{ACAD_REACTORS
330
2A
102
}
330
2A
100
AcDbVisualStyle
  2
Brighten
 70
    12
 71
     2
 72
     2
 73
     0
 90
        0
 40
-0.6
 41
-30.0
 62
     5
 63
     7
421
 16777215
 74
     1
 91
        4
 64
     7
 65
   257
 75
     1
175
     1
 42
1.0
 92
        8
 66
     7
 43
1.0
 76
     1
 77
     6
 78
     2
 67
     7
 79
     5
170
     0
171
     0
290
     0
174
     0
 93
        1
 44
50.0
173
     0
291
     1
 45
0.0
1001
ACAD
1000
AcDbSavedByObjectVersion
1070
     0
  0
VISUALSTYLE
  5
3A
102
{ACAD_REACTORS
330
2A
102
}
330
2A
100
AcDbVisualStyle
  2
ColorChange
 70
    16
 71
     2
 72
     2
 73
     3
 90
        0
 40
-0.6
 41
-30.0
 62
     5
 63
     8
421
  8421504
 74
     1
 91
        4
 64
     7
 65
   257
 75
     1
175
     1
 42
1.0
 92
        8
 66
     8
424
  8421504
 43
1.0
 76
     1
 77
     6
 78
     2
 67
     7
 79
     5
170
     0
171
     0
290
     0
174
     0
 93
        1
 44
0.0
173
     0
291
     1
 45
0.0
1001
ACAD
1000
AcDbSavedByObjectVersion
1070
     0
  0
VISUALSTYLE
  5
34
102
{ACAD_REACTORS
330
2A
102
}
330
2A
100
AcDbVisualStyle
  2
Conceptual
 70
     9
 71
     3
 72
     2
 73
     0
 90
        0
 40
-0.6
 41
-30.0
 62
     5
 63
     7
421
 16777215
 74
     2
 91
        2
 64
     7
 65
   257
 75
     1
175
     1
 42
40.0
 92
        8
 66
     7
 43
1.0
 76
     1
 77
     6
 78
     2
 67
     7
 79
     3
170
     0
171
     0
290
     0
174
     0
 93
        1
 44
0.0
173
     0
291
     0
 45
0.0
1001
ACAD
1000
AcDbSavedByObjectVersion
1070
     0
  0
VISUALSTYLE
  5
35
102
{ACAD_REACTORS
330
2A
102
}
330
2A
100
AcDbVisualStyle
  2
Dim
 70
    11
 71
     2
 72
     2
 73
     0
 90
        0
 40
-0.6
 41
-30.0
 62
     5
 63
     7
421
 16777215
 74
     1
 91
        4
 64
     7
 65
   257
 75
     1
175
     1
 42
1.0
 92
        8
 66
     7
 43
1.0
 76
     1
 77
     6
 78
     2
 67
     7
 79
     5
170
     0
171
     0
290
     0
174
     0
 93
        1
 44
-50.0
173
     0
291
     1
 45
0.0
1001
ACAD
1000
AcDbSavedByObjectVersion
1070
     0
  0
VISUALSTYLE
  5
39
102
{ACAD_REACTORS
330
2A
102
}
330
2A
100
AcDbVisualStyle
  2
Facepattern
 70
    15
 71
     2
 72
     2
 73
     0
 90
        0
 40
-0.6
 41
-30.0
 62
     5
 63
     7
421
 16777215
 74
     1
 91
        4
 64
     7
 65
   257
 75
     1
175
     1
 42
1.0
 92
        8
 66
     7
 43
1.0
 76
     1
 77
     6
 78
     2
 67
     7
 79
     5
170
     0
171
     0
290
     0
174
     0
 93
        1
 44
0.0
173
     0
291
     1
 45
0.0
1001
ACAD
1000
AcDbSavedByObjectVersion
1070
     0
  0
VISUALSTYLE
  5
2B
102
{ACAD_REACTORS
330
2A
102
}
330
2A
100
AcDbVisualStyle
  2
Flat
 70
     0
 71
     2
 72
     1
 73
     1
 90
        2
 40
-0.6
 41
30.0
 62
     5
 63
     7
421
 16777215
 74
     0
 91
        4
 64
     7
 65
   257
 75
     1
175
     1
 42
1.0
 92
        8
 66
     7
 43
1.0
 76
     1
 77
     6
 78
     2
 67
     7
 79
     5
170
     0
171
     0
290
     0
174
     0
 93
       13
 44
0.0
173
     0
291
     1
 45
0.0
1001
ACAD
1000
AcDbSavedByObjectVersion
1070
     0
  0
VISUALSTYLE
  5
2C
102
{ACAD_REACTORS
330
2A
102
}
330
2A
100
AcDbVisualStyle
  2
FlatWithEdges
 70
     1
 71
     2
 72
     1
 73
     1
 90
        2
 40
-0.6
 41
30.0
 62
     5
 63
     7
421
 16777215
 74
     1
 91
        4
 64
     7
 65
   257
 75
     1
175
     1
 42
1.0
 92
        0
 66
   257
 43
1.0
 76
     1
 77
     6
 78
     2
 67
     7
 79
     5
170
     0
171
     0
290
     0
174
     0
 93
       13
 44
0.0
173
     0
291
     1
 45
0.0
1001
ACAD
1000
AcDbSavedByObjectVersion
1070
     0
  0
VISUALSTYLE
  5
2D
102
{ACAD_REACTORS
330
2A
102
}
330
2A
100
AcDbVisualStyle
  2
Gouraud
 70
     2
 71
     2
 72
     2
 73
     1
 90
        2
 40
-0.6
 41
30.0
 62
     5
 63
     7
421
 16777215
 74
     0
 91
        4
 64
     7
 65
   257
 75
     1
175
     1
 42
1.0
 92
        0
 66
     7
 43
1.0
 76
     1
 77
     6
 78
     2
 67
     7
 79
     5
170
     0
171
     0
290
     0
174
     0
 93
       13
 44
0.0
173
     0
291
     1
 45
0.0
1001
ACAD
1000
AcDbSavedByObjectVersion
1070
     0
  0
VISUALSTYLE
  5
2E
102
{ACAD_REACTORS
330
2A
102
}
330
2A
100
AcDbVisualStyle
  2
GouraudWithEdges
 70
     3
 71
     2
 72
     2
 73
     1
 90
        2
 40
-0.6
 41
30.0
 62
     5
 63
     7
421
 16777215
 74
     1
 91
        4
 64
     7
 65
   257
 75
     1
175
     1
 42
1.0
 92
        0
 66
   257
 43
1.0
 76
     1
 77
     6
 78
     2
 67
     7
 79
     5
170
     0
171
     0
290
     0
174
     0
 93
       13
 44
0.0
173
     0
291
     1
 45
0.0
1001
ACAD
1000
AcDbSavedByObjectVersion
1070
     0
  0
VISUALSTYLE
  5
38
102
{ACAD_REACTORS
330
2A
102
}
330
2A
100
AcDbVisualStyle
  2
Linepattern
 70
    14
 71
     2
 72
     2
 73
     0
 90
        0
 40
-0.6
 41
-30.0
 62
     5
 63
     7
421
 16777215
 74
     1
 91
        4
 64
     7
 65
   257
 75
     7
175
     7
 42
1.0
 92
        8
 66
     7
 43
1.0
 76
     1
 77
     6
 78
     2
 67
     7
 79
     5
170
     0
171
     0
290
     0
174
     0
 93
        1
 44
0.0
173
     0
291
     1
 45
0.0
1001
ACAD
1000
AcDbSavedByObjectVersion
1070
     0
  0
VISUALSTYLE
  5
33
102
{ACAD_REACTORS
330
2A
102
}
330
2A
100
AcDbVisualStyle
  2
Realistic
 70
     8
 71
     2
 72
     2
 73
     0
 90
        0
 40
-0.6
 41
-30.0
 62
     5
 63
     7
421
 16777215
 74
     1
 91
        0
 64
     7
 65
   257
 75
     1
175
     1
 42
1.0
 92
        8
 66
     8
424
  7895160
 43
1.0
 76
     1
 77
     6
 78
     2
 67
     7
 79
     5
170
     0
171
     0
290
     0
174
     0
 93
       13
 44
0.0
173
     0
291
     0
 45
0.0
1001
ACAD
1000
AcDbSavedByObjectVersion
1070
     0
  0
VISUALSTYLE
  5
37
102
{ACAD_REACTORS
330
2A
102
}
330
2A
100
AcDbVisualStyle
  2
Thicken
 70
    13
 71
     2
 72
     2
 73
     0
 90
        0
 40
-0.6
 41
-30.0
 62
     5
 63
     7
421
 16777215
 74
     1
 91
        4
 64
     7
 65
   257
 75
     1
175
     1
 42
1.0
 92
       12
 66
     7
 43
1.0
 76
     1
 77
     6
 78
     2
 67
     7
 79
     5
170
     0
171
     0
290
     0
174
     0
 93
        1
 44
0.0
173
     0
291
     1
 45
0.0
1001
ACAD
1000
AcDbSavedByObjectVersion
1070
     0
  0
ENDSEC
  0
EOF
